/* XPM */
static char *result[] = {
/* columns rows colors chars-per-pixel */
"50 50 220 2 ",
"   c #3C1807",
".  c #31160A",
"X  c #471C08",
"o  c #4F220A",
"O  c #56240A",
"+  c #54250C",
"@  c #5B290E",
"#  c #492B1B",
"$  c #5D2C11",
"%  c #582A16",
"&  c #612F12",
"*  c #653315",
"=  c #6A3415",
"-  c #683619",
";  c #6E3A1A",
":  c #743816",
">  c #733D1B",
",  c #45332E",
"<  c #5A3627",
"1  c #663B26",
"2  c #75411D",
"3  c #7C421E",
"4  c #7B4422",
"5  c #7B4727",
"6  c #755037",
"7  c #5D5555",
"8  c #635654",
"9  c #68655D",
"0  c #7B665E",
"q  c #625B60",
"w  c #6A6B66",
"e  c #6E7163",
"r  c #79766B",
"t  c #6E717F",
"y  c #767677",
"u  c #81441E",
"i  c #8C4A1F",
"p  c #854B25",
"a  c #854B27",
"s  c #894C25",
"d  c #88512A",
"f  c #8D532C",
"g  c #92552C",
"h  c #97582D",
"j  c #875535",
"k  c #8D5731",
"l  c #955C33",
"z  c #9B5E34",
"x  c #925B38",
"c  c #9D6236",
"v  c #94633F",
"b  c #9C633B",
"n  c #A6693B",
"m  c #A3693E",
"M  c #845D44",
"N  c #9D6943",
"B  c #9A6846",
"V  c #8A6953",
"C  c #8C6C53",
"Z  c #957258",
"A  c #A46D44",
"S  c #A96E44",
"D  c #A36D49",
"F  c #AA7146",
"G  c #A6704B",
"H  c #AC754C",
"J  c #AD7B53",
"K  c #A87955",
"L  c #B37D54",
"P  c #B47E59",
"I  c #896F63",
"U  c #837768",
"Y  c #997965",
"T  c #8A7B73",
"R  c #977F71",
"E  c #A57F66",
"W  c #7E847E",
"Q  c #B4825B",
"!  c #BA855C",
"~  c #868579",
"^  c #968A7A",
"/  c #AA8569",
"(  c #B38564",
")  c #BC8B65",
"_  c #B58A6B",
"`  c #A98C77",
"'  c #B58F75",
"]  c #AC987B",
"[  c #B8947A",
"{  c #C2946F",
"}  c #C29674",
"|  c #C59A7A",
" . c #6C7C8C",
".. c #657B9D",
"X. c #738293",
"o. c #728BAE",
"O. c #748DB1",
"+. c #7C95B8",
"@. c #888A87",
"#. c #85918F",
"$. c #969489",
"%. c #859194",
"&. c #979A96",
"*. c #A89485",
"=. c #BA9B84",
"-. c #B09C92",
";. c #BDA48E",
":. c #A4A498",
">. c #AAA59C",
",. c #B6A899",
"<. c #848EA6",
"1. c #8993A6",
"2. c #949DA2",
"3. c #8898B3",
"4. c #949DB2",
"5. c #A19EA3",
"6. c #9BA2A9",
"7. c #94A2B6",
"8. c #A3A6A4",
"9. c #A2A5AA",
"0. c #A5ABAE",
"q. c #ACAEA9",
"w. c #B6ABA2",
"e. c #ADB0A9",
"r. c #B7B3A7",
"t. c #B4B4AE",
"y. c #A6AEB4",
"u. c #A4ADBB",
"i. c #ACB3B3",
"p. c #ACB5BE",
"a. c #B3B8B9",
"s. c #BBBEBC",
"d. c #C7A287",
"f. c #CAA48A",
"g. c #D0B28F",
"h. c #CFAB94",
"j. c #CDAC94",
"k. c #C4B499",
"l. c #D2B39D",
"z. c #CAAFA1",
"x. c #C9BAA6",
"c. c #CCBAAB",
"v. c #D5BBAA",
"b. c #C1BEBB",
"n. c #C9BEB8",
"m. c #B9C1BF",
"M. c #C4C2BB",
"N. c #CCC5BB",
"B. c #D8C5B5",
"V. c #D3C5BC",
"C. c #DCCABC",
"Z. c #D7D0BB",
"A. c #8EA4C5",
"S. c #95A9C5",
"D. c #9FB6D3",
"F. c #ABB5C2",
"G. c #A3B3CA",
"H. c #A7B6C8",
"J. c #B2B7C0",
"K. c #B3BAC2",
"L. c #B9BDC5",
"P. c #B5BDCC",
"I. c #BDC2C5",
"U. c #BDC3CC",
"Y. c #BBC6D1",
"T. c #BBC9D8",
"R. c #C4C4C2",
"E. c #CBC8C4",
"W. c #CCC9C5",
"Q. c #C1C5CC",
"!. c #C5CACE",
"~. c #CCCCCB",
"^. c #D8CBC1",
"/. c #D2CFCC",
"(. c #CED1CF",
"). c #D6D3CC",
"_. c #DCD4CA",
"`. c #C3CBD4",
"'. c #C9CDD3",
"]. c #C4CEDD",
"[. c #CCD2D5",
"{. c #C5D1DB",
"}. c #CCD3DB",
"|. c #D4D3D3",
" X c #D9D6D2",
".X c #D5D8D7",
"XX c #DBDBD6",
"oX c #D2D5DB",
"OX c #D5D9DD",
"+X c #DBDCDC",
"@X c #E3D5CA",
"#X c #E8DCD5",
"$X c #E2DFDC",
"%X c #DEE0DF",
"&X c #E7E1DA",
"*X c #C1CEE2",
"=X c #C5D2E3",
"-X c #CCD6E4",
";X c #CFDAE8",
":X c #D5DBE3",
">X c #D2D8E4",
",X c #DCDEE1",
"<X c #DEE1E4",
"1X c #DCE2E9",
"2X c #E4E4E4",
"3X c #E9E6E3",
"4X c #EBE9E6",
"5X c #E2E5EA",
"6X c #E5E9ED",
"7X c #ECECEC",
"8X c #F0EDE5",
"9X c #F0EFED",
"0X c #EFF0EF",
"qX c #F2F1ED",
"wX c #E7EBF0",
"eX c #EDEDF0",
"rX c #EFF1F1",
"tX c #F4F4F3",
"yX c #F8F8F7",
"uX c #FFFFFF",
/* pixels */
"uXuXuXuXuXuXuXuXuXuXuXuXuXuXuXuXuXuXuXuXuXuXyXM.Z.uXuXuXuXuXuXuXuXuXuXuXuXuXuXuXuXuXuXuXuXuXuXuXuXuX",
"uXuXuXuXuXuXuXuXuXuXuXuXuXuXuXuXuXuXuXuX8XB.g.] :.r.8XyXuXuXuXuXuXuXuXuXuXuXuXuXuXuXuXuXuXuXuXuXuXuX",
"uXuXuXuXuXuXuXuXuXuXuXuXuXuXuXuXuXuXuX4Xk.x.k.Z.w.,.r.%XuXuXuXuXuXuXuXuXuXuXuXuXuXuXuXuXuXuXuXuXuXuX",
"uXuXuXuXuXuXuXuXuXuXuXuXuXuXuXuXuXuXuXyX&XyXXXuX).yX).).uXuXuXuXuXuXuXuXuXuXuXuXuXuXuXuXuXuXuXuXuXuX",
"uXuXuXuXuXuXuXuXuXuXuXuXuXuXuXuXuXuXuXyX3XyX2XuX+XtX+X5XyXuXuXuXuXuXuXuXuXuXuXuXuXuXuXuXuXuXuXuXuXuX",
"uXuXuXuXuXuXuXuXuXuXuXuXuXuXuXuXyXtX4X5X6X1X5X,X>X'.Q.'.%XyXuXuXuXuXuXuXuXuXuXuXuXuXuXuXuXuXuXuXuXuX",
"uXuXuXuXuXuXuXuXuXuXuXuXuXuXuXuX&X&XM.I.Q.8.U.s.5.9.&.6.[.4X).uXuXuXuXuXuXuXuXuXuXuXuXuXuXuXuXuXuXuX",
"uXuXuXuXuXuXuXuXuXuXuXuXuXuXuXuXyX5XoXU.`.L.`.U.L.p.6.6.J.[.&XuXuXuXuXuXuXuXuXuXuXuXuXuXuXuXuXuXuXuX",
"uXuXuXuXuXuXuXuXuXuXuXuXuXuXuXuXuXtX$X5X5X,XOX'.Q.J.F.F.!.eXuXuXuXuXuXuXuXuXuXuXuXuXuXuXuXuXuXuXuXuX",
"uXuXuXuXuXuXuXuXuXuXuXuXuXuXuXuXuX9X<X<X5X,X|.~.b.0.p.J.L.tXuXuXuXuXuXuXuXuXuXuXuXuXuXuXuXuXuXuXuXuX",
"uXuXuXuXuXuXuXuXuXuXuXuXuXuXuXuXuX9X4XeX9X6X2XXX X/.Q.].oX7XuXuXuXuXuXuXuXuXuXuXuXuXuXuXuXuXuXuXuXuX",
"uXuXuXuXuXuXuXuXuXuXuXuXuXuXuXuXuX9X7XeXeX9X~.T E.b.K.T.{.6XuXuXuXuXuXuXuXuXuXuXuXuXuXuXuXuXuXuXuXuX",
"uXuXuXuXuXuXuXuXuXuXuXuXuXuXuXuXuX7X6X9X7X7X2X). XR.u.H.{.6XuXuXuXuXuXuXuXuXuXuXuXuXuXuXuXuXuXuXuXuX",
"uXuXuXuXuXuXuXuXuXuXuXuXuXuXuXuXuX6X7X9X7X6X7X7X+X!.F.P.oX7XuXuXuXuXuXuXuXuXuXuXuXuXuXuXuXuXuXuXuXuX",
"uXuXuXuXuXuXuXuXuXuXuXuXuXuXuXuXuX7X7XtX7XtX$XE.$X'.I.'.|.6XuXuXuXuXuXuXuXuXuXuXuXuXuXuXuXuXuXuXuXuX",
"uXuXuXuXuXuXuXuXuXuXuXuXuXuXuXuXyX6X7X0XtXtXE.T $X'.L.U.~.2XuXuXuXuXuXuXuXuXuXuXuXuXuXuXuXuXuXuXuXuX",
"uXuXuXuXuXuXuXuXuXuXuXuXuXuXuXuXyX6X7XqX9X9X9X7X3XXXI.P.!.$XuXuXuXuXuXuXuXuXuXuXuXuXuXuXuXuXuXuXuXuX",
"uXuXuXuXuXuXuXuXuXuXuXuXuXuXuXuXyX6X7XtX9X7X7X9X3XoXQ.P.Q.+XuXuXuXuXuXuXuXuXuXuXuXuXuXuXuXuXuXuXuXuX",
"uXuXuXuXuXuXuXuXuXuXuXuXuXuXuXuXtX7X7X8X9X9X4X7X3X+XQ.U.'.2XyXuXuXuXuXuXuXuXuXuXuXuXuXuXuXuXuXuXuXuX",
"uXuXuXuXuXuXuXuXuXuXuXuXuXuXuXuXtX7X7X9XeX9XW.>.3XoX`.].+X,XtXuXuXuXuXuXuXuXuXuXuXuXuXuXuXuXuXuXuXuX",
"uXuXuXuXuXuXuXuXuXuXuXuXuXuXuXuXqX7X8X7X9X9X/.n.6X+X{.].oX+XtXuXuXuXuXuXuXuXuXuXuXuXuXuXuXuXuXuXuXuX",
"uXuXuXuXuXuXuXuXuXuXuXuXuXuXuXyX7X3X6X3X6X9XtX9X7X,X[.'.'.:XrXuXuXuXuXuXuXuXuXuXuXuXuXuXuXuXuXuXuXuX",
"yXyXyXuXyXuXuXuXuXuXuXuXuXuXuXuX7X7X7X7X7X9X9XtX7XOX`.U.`.}.rXuXuXuXuXuXuXuXuXuXuXuXuXuXuXuXuXuXuXuX",
"rX7XtXyXyXeX7XyXtXyXyXuXuXuXyXyX6X8X9XeX4X7X+X|.2X+XOXY.Y.{.rXuXuXuXuXuXuXuXuXuXuXuXuXuXuXuXuXuXuXuX",
"7X2X7XeX9X7XtXuXyXtXtX9XyXyXtXtX6X2X2XwXeX9Xn.t. X+X+XJ.J.'.eXtXyXuXuXuXuXuXuXuXuXuXuXuXuXuXuXuXuXuX",
"tXyXtXyXyX6X6XuXtX7X6XtXuX7X4X+X,X>XL.,XoXP.P.Q.u.u.y.1.4.J.!.6XyXuXuXuXuXuXuXuXuXuXuXuXuXuXuXuXuXuX",
"9X7X6XyXuX9X3XuXyX7X6X7XuXtX7X,X,X>XU.1X,X-X>X:XG.S.A.....3.U.7XtXuXuXuXuXuXuXuXuXuXuXuXuXuXuXuXuXuX",
"yXyXyXtXyXtXtXyXyXyXyXrXtXyXuX2X-X-X}.>X:X].J.J.P.G.A.o.o.3.H.6XuXuXuXyXuXuXtXyXuXuXuXuXuXuXuXuXuXuX",
"tXuXuXuXuXuXuXuXuXyXyXrX}.[.'.7.].;X-X-X-X@.7 q P.D.S.3.o.O.3.6.(.%X(.m.m.M. X%XXX).).2XuXuXuXuXuXuX",
"uXuXuXuXuXuXuXuXuXwXwXwX1X<XI.2.=X;X>X=X].t q q 1.A.S.A.+.O.1. .e.e.m.0.m.i.0.i.s.s.W r ^ N.4XuXuXuX",
"uXuXuX5X6XwX6XoXoX5X5X}.i.$.#. .T.*X*X=X'.y w y 7.D.7.O.3.&.5.>.M.%X&X%Xm.e.0.#.@.&.:.$.~ ~ ^ ).uXuX",
"9XR.K.p.F.`.{.Y.T.{.OX{.8.r w X.7.3.4.G.4.1.<.<.1. .7 ^ r.>.>.b.%X%X.Xm.q.X.%.a.~.).M.:.~ y w W i.7X",
"qXw.V M R >.6.6.F.'.}.:XoX(.,X:XoX'.'.'.'.oXOX].U.6.&.M.t.&.0.6.8.e.6.2.&.q.M.N.M.r.^ e e r 9 W r q.",
"uXuX#XY : f v *.I.oX,X,X+X,XOX,X X/.XX5X6XwXwX6X2X%X.X(.W.m.t.e.&.r.m.N.M.m.a.e.>.$.W U C 6 # . , +X",
"uXuXuXuX` s G l.c.d.| _ ( E / / V *.M. XV.^.E.c.x.x.;.[ ` Z 0 V C Z / ] -.,.r.8.&.W ^ ` d O   U &XuX",
"uXuXuXuXyX/ m } C.l.} L z g u > > E B.C.h.f._ ! Q Q H n h & X o O @ * ; : u N =.;.Q H ) d o T yXuXuX",
"uXuXuXuXuX&X( L h.v.d.} F h a p s x v.#X#X@Xv.h.| { Q H S k = @ $ = u = * p k J d.D ) ' * ^ yXuXuXuX",
"uXuXuXuXuXuXC.H ! } ! { j./ j a 4 D h.B.@XC.v.d.| { ) H b c 5 ; * * * @ = 4 g c A c b N Z qXuXuXuXuX",
"uXuXuXuXuXuXtX( F ! S P v.V.[ j s z ! f.f.h.d.{ ) Q H F m c p 3 ; * * = 2 p f p m l 2 2 B.uXuXuXuXuX",
"uXuXuXuXuXuXuXqXC.l.b g ( d.=.A c z L L h L { H n l n b A A b l i 2 2 3 p p g 3 k 2 + 6 n.uXuXuXuXuX",
"uXuXuXuXuXuXuXuXuXuX_./ _ K B N P H P G h S L S A x l N G H S n c p + - d d A ; $   8 tXuXuXuXuXuXuX",
"uXuXuXuXuXuXuXuXuXuXuXC.z.[ x d P P A s h c z s ; > p B F n S H S ; % + k N a <   . /.uXuXuXuXuXuXuX",
"uXuXuXuXuXuXuXuXuXuXuXqXn.l.' A G _ G s u g h u O X a z c z n H S > X > b ; I ).(.).uXuXuXuXuXuXuXuX",
"uXuXuXuXuXuXuXuXuXuXuXuX-.B _ P G _ P x i u u = o X ; a s h l x : & V j.;.w.uXuXuXuXuXuXuXuXuXuXuXuX",
"uXuXuXuXuXuXuXuXuXuXuXuX4XM i S P G G > a ; & @ + + * a g f O % T w.yXuXuXuXuXuXuXuXuXuXuXuXuXuXuXuX",
"uXuXuXuXuXuXuXuXuXuXuXuXuX^.j D b f u > % X - > - - * x P G B c.9XuXuXuXuXuXuXuXuXuXuXuXuXuXuXuXuXuX",
"uXuXuXuXuXuXuXuXuXuXuXuXuXuX$X7X^.Y - = o 1 - @ & + - D j.j.@XuXuXuXuXuXuXuXuXuXuXuXuXuXuXuXuXuXuXuX",
"uXuXuXuXuXuXuXuXuXuXuXuXuXuXuXuXuXuX^.*.w.3XE.< + ; ; x d.@XuXuXuXuXuXuXuXuXuXuXuXuXuXuXuXuXuXuXuXuX",
"uXuXuXuXuXuXuXuXuXuXuXuXuXuXuXuXuXuXuXuXuXuXuXn.X & 5 E $XuXuXuXuXuXuXuXuXuXuXuXuXuXuXuXuXuXuXuXuXuX",
"uXuXuXuXuXuXuXuXuXuXuXuXuXuXuXuXuXuXuXuXuXuXuX3X0 -.4XuXuXuXuXuXuXuXuXuXuXuXuXuXuXuXuXuXuXuXuXuXuXuX"
};
