/* XPM */
static char *dummy[]={
"50 50 709 2",
"i5 c #121315",
"iT c #121516",
"iI c #141519",
"iZ c #161717",
"iY c #16191a",
".B c #16191f",
"i3 c #171919",
"iE c #171a1b",
"ix c #181a1b",
"gt c #181d25",
".n c #191c20",
"i4 c #1b1c1c",
".m c #1b1e21",
"hQ c #1c2026",
"i0 c #1d1f1f",
"iJ c #1e2020",
"iK c #1f2122",
".o c #1f2225",
"iS c #202120",
"dR c #202322",
".A c #202324",
"iR c #212221",
"#c c #212425",
".z c #212426",
"i2 c #222424",
".y c #222425",
"iD c #232525",
".p c #232526",
"#b c #232527",
"a9 c #232626",
".X c #232627",
"iM c #242524",
"iL c #242625",
"i1 c #242626",
"br c #242627",
"aT c #242727",
"iQ c #252624",
"ai c #252727",
"#t c #252728",
"hc c #252827",
"dc c #252828",
"fo c #252829",
"h7 c #262725",
"hn c #262726",
"hd c #262727",
"#s c #262827",
"#O c #262828",
"d9 c #262829",
"gD c #262929",
"iP c #272825",
"d7 c #272827",
"dU c #272828",
"dS c #272928",
"fl c #272929",
"hY c #272a29",
"hW c #272a2a",
"iC c #282927",
"it c #282928",
"gk c #282929",
"gc c #282a28",
"hJ c #282a29",
"gM c #282a2a",
"ei c #292a28",
"do c #292a29",
"gl c #292b29",
".q c #292b2a",
"h8 c #2a2a27",
"ej c #2a2b28",
"ij c #2a2b29",
".Y c #2a2b2a",
"ar c #2a2c2b",
"g1 c #2b2a27",
"h9 c #2b2b26",
"hA c #2b2b27",
"dI c #2b2b28",
"gs c #2b2b29",
"dz c #2b2c28",
"ek c #2b2c29",
".x c #2b2c2a",
"gU c #2c2c28",
"iN c #2c2c29",
"c3 c #2c2d2a",
"#a c #2c2d2b",
".r c #2c2e2c",
"g2 c #2d2d28",
"d6 c #2d2d29",
"h3 c #2d2d2a",
"im c #2d2e2a",
"ez c #2d2e2c",
"#1 c #2d2f2c",
"iO c #2e2d28",
"gm c #2e2d29",
"g7 c #2e2e29",
"el c #2e2e2a",
"ae c #2e2e2c",
"aN c #2e2f2c",
"bZ c #2e2f2d",
"#N c #2e302d",
"he c #2f2e28",
"hb c #2f2e29",
"dV c #2f2e2a",
"hi c #2f2f29",
"gd c #2f2f2a",
"is c #2f2f2b",
"#2 c #2f2f2c",
".s c #2f302d",
"#u c #2f312d",
"e. c #302f26",
"hK c #302f29",
"if c #302f2a",
"aK c #30302d",
"fO c #30312e",
"hP c #312f29",
"in c #31302a",
"et c #31312c",
"av c #31312d",
"au c #31322e",
"i. c #323029",
"ii c #32302a",
"iy c #32312a",
"em c #32312b",
"es c #32322d",
"aW c #32322e",
"aU c #32322f",
"a1 c #32332f",
"iB c #333129",
"iz c #33312a",
"eL c #33322d",
"eh c #33332e",
"a2 c #33332f",
"a6 c #333330",
"a0 c #333430",
"ic c #343128",
"h4 c #343129",
"io c #34322a",
"en c #34332c",
"eM c #34342f",
".w c #343530",
"hF c #353229",
"iA c #35322a",
"gL c #35332b",
"gu c #35332c",
"ir c #35342d",
"er c #35342e",
".u c #35352f",
"#A c #353530",
".t c #353531",
"#I c #353630",
"hu c #363329",
"hf c #36332a",
"hS c #36332b",
"hH c #36342a",
"gE c #36342b",
"d5 c #36342d",
"aJ c #36352f",
"aw c #363630",
"eT c #363631",
"dT c #363731",
"i# c #37332a",
"ho c #37342a",
"hM c #37342b",
"dW c #37352e",
"eq c #37352f",
"eK c #37362f",
"eJ c #373630",
"#z c #373731",
"#B c #373732",
".v c #373832",
"a8 c #373833",
"g8 c #38342a",
"hz c #38342b",
"hG c #38352b",
"dH c #38352c",
"ig c #38362c",
"ax c #38362f",
"bi c #383833",
"#H c #383933",
"hO c #39352b",
"hm c #39352c",
"gT c #39362c",
"hp c #39362d",
"iq c #39372e",
"ep c #39372f",
"aI c #393731",
"eo c #393830",
"fM c #393832",
"fp c #393932",
"g3 c #3a362c",
"hL c #3a372c",
"hI c #3a372d",
"eI c #3a3830",
"f# c #3a3831",
"eN c #3a3931",
"ad c #3a3932",
"as c #3a3933",
"#C c #3a3a33",
"#G c #3a3a34",
"a3 c #3a3b34",
"ib c #3b372d",
"gN c #3b382e",
"dA c #3b382f",
"gj c #3b3931",
"bl c #3b3a34",
"ah c #3b3b35",
"h6 c #3c382e",
"ih c #3c392e",
"dn c #3c392f",
"ay c #3c3a31",
"#3 c #3c3b34",
"a4 c #3c3b35",
"aX c #3c3c35",
"gV c #3d392e",
"h5 c #3d392f",
"id c #3d3a2f",
"dd c #3d3a30",
"gn c #3d3a31",
"aH c #3d3b33",
".Z c #3d3d35",
"aZ c #3d3d36",
"hB c #3e3a30",
"hT c #3e3b30",
"ip c #3e3b31",
"aG c #3e3b32",
"a5 c #3e3d35",
"#D c #3e3d36",
"bk c #3e3e36",
"bj c #3e3e37",
"ia c #3f3b31",
"hl c #3f3c31",
"dX c #3f3c32",
"eO c #3f3d34",
"#F c #3f3e37",
"at c #3f3f36",
"#E c #3f3f37",
"h0 c #403c31",
"ha c #403d32",
"az c #403e35",
"eu c #403f36",
"aY c #403f37",
"aV c #404037",
"gv c #413d32",
"hv c #413d33",
"d4 c #413e33",
"hR c #413f34",
"dG c #423e33",
"aF c #423e34",
"h2 c #423f33",
"aA c #423f34",
"#J c #424239",
"gF c #433f34",
"hX c #433f35",
"dB c #434034",
"hq c #434035",
"aE c #434036",
"aB c #434136",
"aC c #434137",
"bm c #434339",
"#y c #43433a",
"cV c #444035",
"dC c #444135",
"ac c #444136",
"aD c #444137",
"d3 c #444236",
"ee c #444239",
"gC c #454135",
"g4 c #454136",
"d2 c #454236",
"bh c #45453a",
"cA c #464236",
"g6 c #464237",
"g0 c #464337",
"#4 c #46443a",
"## c #46453b",
"cm c #474337",
"dF c #474338",
"ge c #474437",
"cW c #474438",
"d8 c #474439",
"d0 c #484337",
"hE c #484437",
"dD c #484438",
"hZ c #484538",
"hh c #484539",
"gb c #48453a",
"ey c #48463c",
"dY c #494538",
"dZ c #494539",
"gw c #494639",
"eH c #49463a",
"d1 c #4a4539",
"gW c #4a4639",
"gZ c #4a463a",
"de c #4a473a",
"#v c #4a483d",
"cB c #4b473a",
"gO c #4b473b",
"gG c #4b483b",
"hr c #4b493d",
".0 c #4b4a3f",
"hC c #4c473b",
"h# c #4c483a",
"c2 c #4c483b",
"dm c #4c483c",
"ab c #4c493c",
"eE c #4c493d",
"aM c #4c4b3e",
"dE c #4d493b",
"#5 c #4d493c",
"dj c #4d493d",
"fq c #4d4a3c",
"dl c #4d4a3d",
"e2 c #4e4a3c",
"b0 c #4e4a3d",
"dk c #4e4a3e",
"fk c #4e4b3e",
"#. c #4e4d41",
"e3 c #4f4a3d",
"df c #4f4b3d",
"dh c #4f4b3e",
"di c #4f4b3f",
"hV c #4f4c3e",
"ev c #4f4c3f",
"eQ c #4f4c40",
"#M c #4f4e41",
"cs c #504b3e",
"dg c #504c3e",
"bx c #504c3f",
"hj c #504d3f",
"gH c #504d40",
"#0 c #504e41",
"#6 c #514d3f",
"cC c #514d40",
"hN c #514e40",
"bT c #514f41",
"af c #514f42",
".1 c #515042",
"ga c #524d40",
"#7 c #524e3f",
"cX c #524e40",
"cn c #524e41",
"a# c #524f40",
"#9 c #524f41",
"eU c #524f42",
".6 c #525041",
".7 c #525042",
".8 c #525143",
"e1 c #534e40",
"#8 c #534f40",
"aa c #534f41",
"fa c #534f42",
"a. c #535042",
"gS c #535043",
"gK c #535044",
".3 c #535142",
".4 c #535143",
".9 c #535243",
".2 c #535244",
"e4 c #544f42",
"ff c #545042",
"ew c #545043",
"eP c #545143",
".5 c #545344",
"ef c #555142",
"cY c #555143",
"gB c #555144",
"hU c #555243",
"fg c #555244",
"#K c #555445",
"bd c #565243",
"c1 c #565244",
"cr c #565245",
"fL c #565344",
"ex c #565345",
"hs c #565346",
"#x c #565445",
"eG c #575344",
"cD c #575345",
"e5 c #575346",
"fh c #575446",
"bn c #575544",
"aL c #575545",
"c0 c #585446",
"cZ c #585447",
"hw c #585546",
"#w c #585646",
"e0 c #595446",
"cJ c #595447",
"eg c #595545",
"b1 c #595546",
"ch c #595547",
"g9 c #595548",
"hy c #595646",
"ht c #595647",
"a7 c #595747",
"hg c #5a5547",
"eV c #5a5647",
"cI c #5a5648",
"b2 c #5b5748",
"bg c #5b5846",
"cH c #5b5848",
"fr c #5c5848",
"cE c #5c5849",
"by c #5c5948",
"cG c #5c5949",
"cF c #5d5949",
"fB c #5d594a",
"bK c #5d5a47",
"fe c #5d5a4a",
"bS c #5e5a4a",
"bI c #5e5b47",
"fs c #5e5b4a",
"eZ c #5f5b4a",
"fi c #5f5b4b",
"bJ c #5f5c48",
"eW c #5f5c4b",
"bH c #5f5d49",
"hD c #605b4a",
"cq c #605c4b",
"h. c #605c4c",
"#Z c #605d4b",
"gJ c #605d4c",
"fC c #615d4b",
"b3 c #615d4c",
"cg c #615e4c",
"hx c #625d4b",
"eX c #625e4c",
"bL c #625f4b",
"bq c #625f4c",
"eF c #625f4d",
"fD c #635f4c",
"fA c #635f4d",
"eY c #63604d",
"gY c #64604d",
"bG c #64614c",
"hk c #64614d",
"co c #64614e",
"cp c #65614d",
"fE c #65614e",
"ag c #65624e",
"g5 c #65624f",
"fK c #66624e",
"bM c #66634e",
"b4 c #66634f",
"cf c #67634f",
"ce c #67644f",
"gf c #676450",
"gI c #676550",
"fF c #68634f",
"#L c #68644f",
"bz c #686450",
"gR c #68654f",
"f5 c #686550",
"bo c #69654f",
"g# c #696550",
"cd c #696650",
"bP c #696651",
"fz c #6a6651",
"bF c #6a6750",
"bp c #6a6751",
"fG c #6b6751",
"fb c #6b6752",
"cc c #6b6852",
"bR c #6c6852",
"bN c #6c6951",
"gA c #6c6952",
"bQ c #6d6952",
"cb c #6d6953",
"fy c #6e6a53",
"gX c #6e6b53",
"bO c #6f6b53",
"ca c #6f6b54",
"ft c #6f6c54",
"c. c #706c54",
"fj c #716c54",
"bf c #716d54",
"c# c #716d55",
"fd c #726e55",
"g. c #737056",
"fH c #746f56",
"b5 c #747056",
"be c #757057",
"bE c #757156",
"fx c #757157",
"bA c #757257",
"fI c #767157",
"f4 c #777258",
"go c #777358",
"gQ c #787458",
"b9 c #7a7559",
"b6 c #7a765a",
"fw c #7c775a",
"f7 c #7c775b",
"bD c #7c785a",
"gi c #7d785b",
"gz c #7d795b",
"e9 c #7f5545",
"b7 c #7f7a5c",
"dO c #805644",
"eA c #805645",
"gP c #807b5c",
"b8 c #807b5d",
"bB c #817c5d",
"fn c #825746",
"bb c #825846",
"bC c #827d5d",
"gr c #827d5e",
"bW c #835846",
"iH c #835847",
"bv c #835947",
"cw c #855947",
"dv c #855948",
".b c #855a47",
"f9 c #85805f",
"f3 c #858060",
"c6 c #865a48",
"ja c #865b48",
"gx c #868160",
"cQ c #875b48",
"dp c #875b49",
"f8 c #878160",
"fc c #878260",
"fW c #878261",
".N c #885b49",
"#n c #885c49",
"gg c #888260",
"fV c #888261",
"fv c #888361",
"cl c #895c49",
"aR c #895d49",
"fZ c #898361",
"fP c #898362",
"f0 c #898461",
"bX c #8a5d4a",
"ec c #8a5d4b",
"f1 c #8a8461",
"fX c #8a8462",
"fY c #8a8562",
"iW c #8b5d4a",
"cP c #8b5e4a",
"#W c #8b5e4b",
"fJ c #8b8562",
"gq c #8b8563",
".i c #8c5f4b",
"fU c #8c8663",
".V c #8d5f4b",
"cj c #8d5f4c",
"cR c #8d604b",
"fS c #8d8763",
"gy c #8d8764",
"gp c #8d8864",
"dq c #8e604c",
"fR c #8e8864",
"fT c #8e8964",
"eB c #8f614c",
"c7 c #8f614d",
"gh c #8f8864",
"fu c #8f8964",
"fQ c #8f8965",
"f2 c #908a65",
"il c #91624d",
"c5 c #93634f",
"cT c #94644f",
"eb c #95654f",
"jb c #966550",
"bV c #976650",
"ed c #976751",
"cv c #986851",
".c c #996852",
"ba c #996952",
"dr c #9a6952",
"c8 c #9b6952",
"bw c #9b6b54",
"cO c #9c6a52",
"cU c #9c6a53",
"iv c #9d6b53",
"bc c #9d6c55",
"eD c #9f6d56",
"bY c #a06e56",
"bu c #a16e56",
"c4 c #a26f56",
"ao c #a27159",
"cz c #a36f57",
"iU c #a37057",
"#X c #a37159",
"ea c #a47057",
"i8 c #a47058",
"da c #a47157",
"i9 c #a57057",
"j# c #a57158",
"ds c #a67157",
"iF c #a67158",
"eC c #a67259",
"#o c #a6725a",
"j. c #a77258",
".W c #a87359",
".O c #a9735a",
"iG c #a9745a",
"ie c #a9755a",
"dw c #aa7459",
"dN c #ab755a",
"cS c #ab755b",
"cu c #ae775c",
"ck c #ae785c",
"fm c #af785c",
"c9 c #af785d",
".j c #b1795e",
".M c #b27a5e",
"cN c #b37b5f",
"f. c #b37d60",
"dL c #b37f63",
"aQ c #b47b5f",
".a c #b47c5f",
"#g c #b47e63",
".R c #b47f63",
"#h c #b57f63",
"i7 c #b58063",
"#f c #b67f63",
"#r c #b67f64",
".Q c #b68063",
"#p c #b68064",
".S c #b78063",
"#P c #b78064",
"e6 c #b78163",
"#q c #b78164",
"eS c #b87f61",
"dK c #b88063",
"dM c #b88064",
"#j c #b88164",
"fN c #b98062",
".P c #b98164",
".H c #b98165",
"b. c #b98264",
"#e c #b98265",
"d# c #ba8062",
".U c #ba8063",
"iw c #ba8162",
"dJ c #ba8163",
".I c #ba8264",
"#d c #ba8265",
"#k c #ba8364",
"eR c #bb8264",
"#i c #bb8265",
".G c #bb8365",
"am c #bb8366",
"#V c #bc8163",
".h c #bc8263",
"dy c #bc8364",
".J c #bc8365",
"ct c #bc8366",
"h1 c #bc8465",
"cK c #bc8466",
"iX c #bd8263",
"an c #bd8264",
"dt c #bd8265",
"dP c #bd8365",
"#U c #bd8366",
"#l c #bd8465",
"#T c #bd8466",
"#Q c #be8465",
"aO c #be8466",
".F c #be8566",
".T c #be8567",
"dQ c #bf8465",
"i6 c #bf8566",
"aS c #bf8567",
"bs c #c08566",
"aP c #c08567",
"du c #c08666",
"ap c #c08667",
"cM c #c18566",
"iu c #c18567",
"cL c #c18666",
".K c #c18667",
"cx c #c28666",
"b# c #c28667",
"f6 c #c28668",
".E c #c28767",
"db c #c28768",
"e7 c #c38667",
"dx c #c38767",
"#Y c #c38768",
"#S c #c38868",
"bt c #c48767",
"d. c #c48867",
".g c #c48868",
"ik c #c58767",
"aq c #c58867",
".f c #c58868",
"al c #c58869",
"#m c #c58968",
"jc c #c68868",
".e c #c68968",
".D c #c68969",
"iV c #c78968",
".C c #c78969",
".L c #c78a69",
"#R c #c88969",
"Qt c #c88a69",
"e# c #c88a6a",
"aj c #c98a69",
"e8 c #c98a6a",
".l c #c98b69",
".d c #c98b6a",
"ak c #ca8b69",
".# c #ca8b6a",
".k c #ca8c6a",
"bU c #cb8c6a",
"ci c #cb8c6b",
"cy c #cc8d6c",
"Qt.#.a.b.c.d.e.f.g.f.d.h.i.j.k.l.m.n.o.p.q.r.s.t.u.v.w.s.x.q.y.z.A.BQt.e.C.D.f.E.F.G.H.I.J.F.K.g.LQt",
"Qt.#.M.N.O.K.P.Q.R.S.T.U.V.W.y.X.Y.Z.0.1.2.3.4.5.6.7.8.9.4.5#.##.v#a#b#c#d#e#f#g#h#h#f#i#j.R#h#k#l#m",
"Qt.#.M#n#o#p#q#r#h#h#h.P#s#t#u#v#w#x#y#z#A#B#C#D#E#E#F#G#H#I#B#J#K#L#M#N#O#O#r#P#h#h#Q#R#S#P#T.L#T#U",
"Qt.l#V#W#X#T.D#Y#h#h#d#O#t#G#Z#0#1#2#3#4#5#6#7#8#9#9a.a#aaabacadae#aafagahai#O.f.P.R.Kaj.D.P.fakalam",
"Qt.lan#Waoap.l.e#j.Raq#Oar#1asatauavawaxayazaAaBaCaDaEaFaGaHaIaJaK#AaLaMaNar#OQtaO#gaPak#m#P.f.LaO#i",
"Qt.kaQaR#XaS.l#m.Q#h.faTaUafaVaWaXaYaZ#G.wa0a1aWaWaWa2#A.w.wa3a4a5#3a6#Ba7a8a9Qt#i#h#PaO#d#hb.#d#pb#",
"ak.Dbabbbcb..F#d#h#h.GaiaNbdbebfbgbhaX#Hbi#Gahbjbk#DaZ#Ebjbla3aXbmbnbobpbqa1br#i#f#h#h#g.R#h#g#hbsQt",
"btbubbbvbw#P#h#h#h#h#hai.sbxbybzbAbBbCbDbEbFbGbHbIbJbKbLbMbNbObPbQbRagbSbT.sai#h#h#h#h#h#h#h#j.EajbU",
"bVbWbX.bbY#j#h#h#h#h#haibZb0b1b2b3b4bQb5b6b7b8b9c.bfc#cacbcccdcecfcgchchaa.sai#h#h#h#h.R.Q#T.Cci.eaQ",
"cjck.Wclck#d.R#h#h#h#haiaecmcnchchb2bScgcoagb4agagagb4b4b4b4cpbqcqb2chcrcs.sai#h#h#h#hct.g.#btcucvcw",
"cxcycz.icxb..R#h#h#h#haiaecAcBcCcDchchchchb2cEcEcFcFcFcGcHcIchchcJcDcC#5cB#2aiaOctcKcLcMcNcOcPcQcRcS",
".#.ecTcU.e#P#h#h#h#h#haiaNcVcWb0#5cXcYcDchchchchchcZc0c0c0c1cDaabxc2c2c2cmc3#t#V.Mc4c5bWc6c7c8c9d..d",
".kd##Wdadb.R#h.R#h#h#hdc.YddcVcmdec2c2#5b0dfdgdgbxdhbxcCdidjdkdjdldjdmcAdndodcdpbbdqdrds.jdt.T#Pdu.l",
"bU.Mdvdw.F#jdxaS.JdyaT#O#OdzdAdBdCdDcBc2dEc2c2c2c2c2b0dhdmb0dldhabdFdGdHdI#O#tbrd#dJdK#S.D.PdLdM.DQt",
"cidNdOcNdPdQaq.kdR#tdSdTaC#2dUdVdWdddXdCdYdZdDdDd0dZd1dZcmdDd2d3d4d5d6d7aNd8ahd9aie.#p.DQt#d#gaOajQt",
"e#eabbebbXeced#O#O#aeeefegb0azeh.xeiejekelemend5dWeoepeqereset#aekc3eheuevewexeyez#t#OQtajaO#f.EQtQt",
".CbueAeBeCeD#O#ta2eEcIeFb4b3eGbxeHaEaGeIeJeKeLa2ehaWeMeLeraJeNeOaccB#9cDchchePexeQa1ai#OQteR#hduajQt",
".CbueAeS.G#t#OeTeUeVeWcgeXeYeYeZe0cYaae1dge2c2c2c2c2c2cBc2#5e3cCe4e5chchcJc0c0c0cIcn.u#O#t#f#he6e7Qt",
"e8dae9f.#t#Of#facIcIeYcIfbfcfdcfeYfeeVc0cZcDc1cYfffafaewcYfgcDfhcZcZchcIficbfjcqcheVfk#Dflai#h#h#p.f",
"cifmfndcfofpfqchchfrcofsftfufufvbBfwfxfyfzfAeZeZfBeWfCfDfEfFfGc.fHfIb9b8fvfJfIfKcIfLcCbxfM#tdc.R.R.K",
".#fN#O#OfO#5bxchcheZb4eYccfPfufufQfRfSfufTfUfVfVfWfvfXfcfXfYfZf0f1fSf2f3f0f4b4f5cgc0ePdhcCaU#O#O.Qf6",
".ldxdcdoaE#5aachcZfif5cocef7f2fRfRfRfRfRfRfRfufufufufRfXfXfJfJf0f8fSfRf9g.bPf5g#eYcEcDe2gagb.r#taS.g",
".lgcdSgdgedhcCchchcEgfagceccggfufRfRfRfRfRfRfRfRfRfRfRfRfRghfQfRfRfRfZgibpgff5f5ceb2che2c2e3gjgkgl.e",
"gmdUekgnd2#5c2eVchchcocececegofRfufRfRfRfRfRfRfRfRfRfRfRfugpfWgqfJgrb5b4f5f5f5f5cqchchdhcB#6cVgs#Ogt",
"glflgugvacdhgwc1chchbScdf5f5f5fHgxfQfufRfRfRfRfRfRfRfRfUggb9b7gyfYgzgAf5f5agb4agchcDgBdhcBcsgCgmgDgl",
"#O.qgEgFgwc2gGgHchchcIfEf5f5f5gfbpb9fvfufQfufufRfRfRfufRfSfUfYb7fdgIgff5gfeFf5gJchc1gKdhcBc2cmgLgM#O",
"dcgsgNcVb0dmgOc2fgchchcFcdf5f5f5f5cefGfxgPgxfXfUfSfSfJfcb8gQgAgfgff5f5f5cogfgRcEchgBgS#5cBc2degTgs#O",
"gDgUgVcVgWc2gGdlbxchchcheXgRf5f5f5f5f5cecebPgAfycagXccbPcecegff5f5f5f5gYb4#LgYchchffaac2c2gZg0gNg1#s",
"dcg2g3cVg4gW#5dh#5crchcheVeYf5f5f5f5f5f5f5f5gfgfgfgfcef5f5f5f5f5f5bzeFagg5eYfBchc0cncCcBb0cWg6dXg7d7",
"#Og7g8dGcVcmc2c2gOcCg9chchcIfAf5f5f5f5f5f5f5f5f5f5f5f5f5f5f5f5f5agh.agageFcqchchgBcn#5h#e3dCdZhahbhc",
"hdhehfd4cVcVcBc2c2c2cDchchchhgcgf5f5f5f5f5f5f5f5f5f5f5f5f5f5f5fEcgfKeYeYcgchchc0a.cXc2b0hhg0dedGhi#s",
"#shbhfddcVg4cmc2c2c2hjchchchchchcgf5f5gff5f5f5f5f5f5f5f5gRf5#LhkeX#ZeYb3eVchchcDcre2gZevdCg0hlhmg2hn",
"#sg7hohphqd2cVdYc2c2hrhshgchchchcheWg#eYeYb4fEagagb4fEcocgcqbSbSeXfDbSchchchchht#6gO#5d2g0cmhahfhed7",
"#Od6huhfhvgFgFgCcBc2b0hwb1chchchchcJbSfDhxcqcEbScqfDeXfC#ZfCeXb3bSeVchchcDc0hya#c2c2cmcAcAdDgNhzgU#O",
"#thAhuhuhBaAgFcVcAh#hCdgcXc1chchchchcZc0cEhDeZgYeXb3eZcFcGb2eVchchcheVcrffchfac2c2hEg4cmcVhqhzg8gUdc",
"#OekhFhGhHd4hqcVgFdYcBgO#5b0ewcIchchchchchc0cZcZcZchchchchchchchchc0ewcYb1aahCh#cmg4dYcVcmhIgThF.YdS",
"ekhJhKhLhMgTgFcVgFd2dec2c2c2gOhNc0eVcheVchchchchchchchchchchcIchcDfac1cDdhc2dhcmcAdZg4cVhlhohOhPgD#O",
"hQ#O.xhFhIhFddcVcAhRacdmc2b0#6#5b0cYcDc0chchchchchchchchc0cDewewgBfhcngOc2dhdDcAdYcVhqd4hSg3hF.xdc.g",
".G#OflgmhShphfhlhTd4hqdCgOc2dghUa.dh#5#5bxcnffcYffcYewcYa.bdc1ffhVc2#5b0c2d2dFcWhqdChqhmhMhzelgD#O.f",
".H#h#OhWgmhfhFhGhpgTd4aAg4cBc2dmbxcYcYdg#5b0dg#6#6cXaaffcndg#5c2c2c2b0cAdCcmd2hXcmcVhIhzhGhbhYdc#i.f",
".H.R#TgcgcgmhFhFhGhMhFgNaAgCg0hZdZcBe2dgbxdhbx#6c2c2c2c2cBc2c2gWdDcAdCacd2hqcmg0h0hGdHhGdVfldcajaS.g",
".H#h#eh1d7fldVhFhFhuhFhFhIh2aAg4gCg6cmdZgWcBcBcBc2#5c2gZdZdDcmcVcVgCg4gCg4acgvgThMgThMh3hJdSQtajaS.g",
".G.R#jdx#ieieid6hFhFhuhFh4hfdnh2cmdDcmcmcmcmcmcmg6g6g4g4g4g4accVcVgFdBgvh5hMhGdnh6hfelfl#OQtQt.fdP.f",
"#l#g.J.l.KaOh7h8h9i.hFhOhMhFhFi#gNgvcAcmdYdDd0g4cVcVgFaAdGhviadnibhMhficichfidgThedIai#O#hdM.H.Q#UQt",
"#Q#h#j.K#daO.#ie#Ofl.YifhMhohfhFhMhfhMdndGh2dGd4hIigdHhShfhFhFh4ichFhogTihhpiiij#Odc.P#h#h#h#h.R.I.C",
"aP.R#h#f.R.Kikil.VaigD#OgciminiogTiphIgThohMhfhGhMhohfhFhFhFhFhFhMgTiqirisit#OgD#O.f.K#h#h#h#h#h#P.f",
"iu.R#h#h#q.givbXiwc9cwix#tdcdcdUekiyizgEgNdnhIgTgTgThfi#hfhFiAiBingdiCiD.pdciE#f#h.G.P#h#h#h#h#h#P.f",
".g.R#h#hh1iFc6cu.#.#iGiHeC#liIiJiKiLiMaiijiNiOhei.hPhbhbd6eiiPiQhciRiSiTQtQtQtiu#h#g#g.R#h#h#h.R#d.D",
".f.Q#hdMiUdpdsajQtQtiVdriWiXaS#f#h#hiYiJ.yiZi0i1#OdSi2iJi3.Ai4i5c4.dQtQtQtQtQt.C.Ki6dP#ddM#P#hi7bsQt",
".f#P#di8c6i9ajajQtQt.#fNc6j.Qtdx#i#f#h#h#h#h#h#h#peRiu.fcMj#jajbbtQtQtQtQtQtQtQtajajQt.Djc.f.g.f.LQt"};
