/* XPM */
static char *dummy[]={
"50 50 564 2",
"fm c #10571b",
"fQ c #12581c",
"fw c #13581c",
"e2 c #14571c",
"dK c #14581c",
"fl c #14591c",
"eQ c #15581c",
"fa c #15591d",
"dN c #16581d",
"fE c #16591d",
"fR c #16591e",
"dR c #16601f",
"e1 c #17581e",
"fb c #17591e",
"dr c #18581e",
"fF c #185a1e",
"ey c #19571e",
"e0 c #19591f",
"e3 c #195a1e",
"cl c #196c24",
"ds c #1a591f",
"dt c #1a5a1f",
"eK c #1a5c1f",
"dL c #1b5a1f",
"du c #1b5f21",
"c0 c #1b6c25",
"eR c #1c5a20",
"eP c #1c6021",
"cH c #1d6323",
"dJ c #1e5b20",
"eZ c #1e5b21",
"c3 c #1e7027",
"dv c #1f6725",
"bA c #1f6b26",
"ex c #1f7128",
"c2 c #1f7529",
"dM c #205b21",
"eL c #206a27",
"dw c #206e27",
"fG c #215c22",
"bd c #215d22",
"c5 c #227029",
"eO c #227229",
"dQ c #227a2c",
"c4 c #23752a",
"bU c #23832f",
"eM c #24732a",
"ej c #256928",
"d5 c #25722a",
"c6 c #25752b",
"eN c #25762b",
"ew c #257b2c",
"d6 c #257b2d",
"bp c #265d24",
"dO c #266426",
"c7 c #26762c",
"cx c #268731",
"ce c #278731",
"cP c #288731",
"en c #288932",
"d4 c #295c25",
"dm c #296026",
"c8 c #297e2f",
"c1 c #298230",
"em c #298833",
"cI c #2a8231",
"cO c #2a8732",
"cN c #2a8833",
"cM c #2a8933",
"be c #2b5525",
"e4 c #2b5e26",
"ek c #2b8532",
"cn c #2b8733",
"cL c #2b8833",
"cK c #2b8933",
"c9 c #2c8733",
"d# c #2c8833",
"cJ c #2c8933",
"cm c #2c8a34",
"el c #2d8834",
"d. c #2d8934",
"cw c #2e8733",
"b4 c #2e8934",
"cq c #2f8734",
"fD c #315f29",
"dq c #316029",
"dP c #318134",
"cd c #328735",
"fc c #34612a",
"cp c #348736",
"fK c #35612a",
"co c #368736",
"d3 c #37612c",
"ez c #37622b",
"fv c #39612d",
"cr c #398738",
"bT c #398838",
"bq c #3a5a2c",
"dz c #3d612e",
"dx c #3d6930",
"dn c #3e6b30",
"b3 c #3e7534",
"cs c #3e8639",
"d7 c #467839",
"fk c #496533",
"bB c #4a6433",
"f2 c #4a6733",
"cZ c #4c6834",
"eo c #4d7a3b",
"f# c #4f6636",
"ct c #4f853f",
"f1 c #525e35",
"cv c #528840",
"dA c #536738",
"d0 c #576a39",
"cy c #598543",
"e5 c #5b5d38",
"da c #5d8744",
"fJ c #5f6b3e",
"bV c #617640",
"cu c #668747",
"a3 c #69663f",
"fS c #6a6f41",
"cf c #6b8748",
"eS c #6c603f",
"dp c #6c6f41",
"d1 c #6f7044",
"ei c #706e44",
"a2 c #707344",
"b5 c #71894b",
"f3 c #727245",
"fd c #737145",
"ep c #746e46",
"fP c #747245",
"fn c #747246",
"b2 c #755741",
"dZ c #757346",
"cQ c #75844d",
"dy c #796c47",
"do c #7b7649",
"eY c #7e724b",
"fx c #7e744a",
"cE c #7f5545",
"bv c #805644",
"#q c #805645",
"ck c #807049",
"d8 c #808250",
"fN c #815745",
"aM c #815746",
"cV c #825746",
".3 c #825747",
"ad c #825846",
"az c #835846",
"gS c #835847",
"ea c #835946",
"ao c #835947",
"d2 c #83764c",
"fW c #845946",
"#O c #845947",
"al c #855947",
"bm c #855948",
".b c #855a47",
"#g c #865a48",
"gz c #865a49",
"dD c #865b48",
"gb c #865b49",
".w c #875b48",
"#H c #875b49",
"gq c #875c49",
".I c #885b49",
"#b c #885c49",
"b9 c #888953",
"bz c #888a53",
"aH c #895c49",
"#G c #895c4a",
"#5 c #895d49",
"#P c #895d4a",
"dS c #89744f",
"ev c #89754f",
"dI c #89784e",
"#I c #8a5d4a",
"bI c #8a5d4b",
"fV c #8a5e4b",
"dX c #8b5d4a",
"aZ c #8b5e4a",
"#z c #8b5e4b",
"av c #8c5e4b",
"eC c #8c5f4a",
".i c #8c5f4b",
".Q c #8d5f4b",
".x c #8d5f4c",
"a0 c #8d604b",
"eF c #8d604c",
"bj c #8e604c",
"gu c #8e614c",
"fH c #8e7851",
"aF c #8f614c",
"a8 c #8f614d",
"eA c #8f6f4f",
"fh c #905f4d",
"#p c #90614d",
"gs c #90624c",
"#h c #90624d",
"f0 c #90664e",
"b1 c #91614d",
"aw c #91624d",
".2 c #91624e",
"bF c #91634e",
"#F c #92634e",
"eH c #92644e",
"eB c #93624e",
"gG c #93634e",
"a7 c #93634f",
"et c #93644e",
"#i c #93644f",
"ff c #937a53",
"gp c #94644e",
"#j c #94644f",
"gD c #94654f",
"bH c #95654f",
"gM c #956550",
"gg c #956650",
"fe c #957955",
"a5 c #96654f",
"eV c #966550",
"aC c #966650",
"gE c #966750",
"dl c #967c53",
"ay c #976650",
"#k c #976750",
"bJ c #976751",
"b8 c #978958",
"ch c #986751",
"aP c #986851",
"gO c #986852",
"cc c #988958",
"e9 c #996751",
"dg c #996851",
".c c #996852",
"ac c #996952",
"gc c #996953",
"gn c #9a6951",
"bi c #9a6952",
".v c #9a6953",
"fC c #9a7857",
"bM c #9a8a59",
"a9 c #9b6952",
"gf c #9b6953",
"gr c #9b6a52",
"ar c #9b6a53",
"ap c #9b6b54",
"b7 c #9b895a",
"aY c #9c6a52",
"#l c #9c6a53",
"bY c #9c6a54",
"bf c #9c6f54",
"f5 c #9d6b53",
"ae c #9d6c55",
"b6 c #9d895a",
"#1 c #9e6b54",
"aL c #9e6c53",
".4 c #9e6c54",
"#r c #9e6d56",
"fg c #9e7a56",
"eT c #9f6b55",
"ai c #9f6c54",
"gH c #9f6c55",
"df c #9f6d55",
"b0 c #9f6d56",
"fX c #a06c54",
"gj c #a06d55",
"bX c #a06e55",
"aA c #a06e56",
"am c #a16d55",
"#f c #a16e56",
"#J c #a26e56",
"gQ c #a26f55",
"a6 c #a26f56",
"#V c #a27159",
"fu c #a27a5a",
"bS c #a28a5c",
"gw c #a36f56",
"#m c #a36f57",
"ge c #a37056",
"#E c #a37057",
"#A c #a37159",
"db c #a37e5d",
"bG c #a47057",
"e7 c #a47058",
"ba c #a47157",
"eh c #a47b5c",
"fL c #a47d5b",
"gW c #a57057",
"gX c #a57158",
"eq c #a57e5b",
"c. c #a5875d",
"bk c #a67157",
"gR c #a67158",
"gA c #a67258",
"bZ c #a67259",
"#c c #a6725a",
"es c #a77258",
"cG c #a77f5b",
"f6 c #a87259",
".R c #a87359",
"fU c #a8735a",
"fI c #a97359",
".J c #a9735a",
"gT c #a97459",
"fO c #a9745a",
"cW c #a9745b",
"gL c #a9755a",
"dB c #a97c5e",
"bn c #aa7459",
"aa c #aa745a",
"as c #aa755a",
"aD c #aa755b",
"cA c #aa755c",
"dY c #aa765b",
"a# c #ab755a",
"a1 c #ab755b",
"dE c #ab765b",
"dG c #ab7d5f",
"f7 c #ac755a",
"#8 c #ac765b",
"dh c #ac765c",
"dH c #ac7c5f",
"d9 c #ac8160",
"ec c #ad765c",
"bE c #ad775c",
"#0 c #ad775d",
"gm c #ad775e",
"bL c #ad845e",
"aO c #ae775c",
"aG c #ae785c",
"c# c #ae8160",
"cU c #af785c",
"aK c #af785d",
"eU c #af795d",
"#n c #af795e",
"er c #b0785d",
"fA c #b0795d",
"g# c #b0795e",
"#3 c #b0795f",
"#D c #b07a5f",
"#Q c #b07b60",
"bK c #b1775d",
"gF c #b1795d",
".j c #b1795e",
".y c #b17a5e",
".H c #b27a5e",
"gk c #b27a5f",
"gV c #b37b5e",
"aX c #b37b5f",
"#7 c #b37c5f",
"#Z c #b37c61",
"cF c #b37d60",
"aR c #b37e63",
"dc c #b37f62",
"bu c #b37f63",
"e6 c #b38060",
"cY c #b38161",
"#4 c #b47b5f",
".a c #b47c5f",
"ga c #b47c60",
"eW c #b47d61",
".Y c #b47e63",
".M c #b47f63",
"eJ c #b48162",
".u c #b57c5f",
"dW c #b57c60",
"fr c #b57d60",
"eb c #b57d61",
"gi c #b57e62",
"gd c #b57e63",
".9 c #b57f63",
"bh c #b57f64",
"bb c #b58063",
"f4 c #b58162",
"br c #b67a60",
"e# c #b67d60",
"gv c #b67e60",
"eD c #b67f62",
".8 c #b67f63",
"#e c #b67f64",
".L c #b68063",
".X c #b68064",
"dC c #b77d61",
"#N c #b77e61",
"ca c #b77e64",
"cX c #b77f63",
"dd c #b77f64",
".N c #b78063",
"#s c #b78064",
"cB c #b78163",
"#d c #b78164",
"f8 c #b87d61",
"ft c #b87e60",
"ci c #b87f61",
"gy c #b88062",
"bt c #b88063",
"#Y c #b88064",
"fB c #b88065",
"af c #b88163",
"#. c #b88164",
"ag c #b88165",
"gl c #b97e61",
"gx c #b97f61",
"aT c #b97f62",
"di c #b98062",
"eE c #b98063",
"gB c #b98064",
"eX c #b98065",
"gh c #b98163",
".K c #b98164",
".C c #b98165",
"ab c #b98264",
".7 c #b98265",
"b# c #ba8062",
".P c #ba8063",
"cj c #ba8064",
"gN c #ba8162",
".5 c #ba8163",
"aI c #ba8164",
"#C c #ba8165",
".D c #ba8264",
".6 c #ba8265",
"## c #ba8364",
".W c #ba8365",
"cR c #bb7f65",
"au c #bb8062",
"gI c #bb8163",
"#K c #bb8164",
"fT c #bb8165",
"#6 c #bb8264",
".V c #bb8265",
"dV c #bb8266",
".B c #bb8365",
"#T c #bb8366",
"dT c #bc8066",
"#y c #bc8163",
"eg c #bc8166",
".h c #bc8263",
"cT c #bc8264",
"fz c #bc8265",
"bo c #bc8364",
".E c #bc8365",
"#L c #bc8366",
"dF c #bc8465",
"aU c #bc8466",
"cz c #bd7e66",
"f. c #bd8166",
"gU c #bd8263",
"#U c #bd8264",
"bl c #bd8265",
"aE c #bd8364",
"aj c #bd8365",
"#x c #bd8366",
"#a c #bd8465",
"#w c #bd8466",
"gK c #bd8565",
"bs c #bd8566",
"bc c #bd8864",
"e. c #be8167",
"go c #be8264",
"eu c #be8267",
"fi c #be8364",
"#t c #be8465",
"#2 c #be8466",
".A c #be8566",
".O c #be8567",
"fZ c #bf8264",
"bR c #bf8266",
"fy c #bf8267",
"ed c #bf8367",
"gC c #bf8464",
"#o c #bf8465",
"at c #bf8466",
"fY c #bf8467",
"#X c #bf8566",
".o c #bf8567",
"fM c #c08367",
"a4 c #c08465",
"bQ c #c08466",
"dk c #c08468",
"e8 c #c08565",
"an c #c08566",
".p c #c08567",
".Z c #c08666",
".n c #c08667",
"cg c #c18267",
"fj c #c18268",
"fo c #c18368",
"aJ c #c18565",
"aW c #c18566",
"de c #c18567",
"aV c #c18666",
".F c #c18667",
"f9 c #c18866",
"fp c #c28568",
".S c #c28666",
".U c #c28667",
"aq c #c28668",
".q c #c28767",
"#9 c #c28768",
"by c #c28968",
"gP c #c38666",
"cC c #c38667",
".0 c #c38767",
"#B c #c38768",
"dj c #c38867",
"#v c #c38868",
"ee c #c48568",
"g. c #c48668",
".T c #c48767",
".1 c #c48768",
"b. c #c48867",
".g c #c48868",
"eG c #c58767",
"#W c #c58867",
".f c #c58868",
"#S c #c58869",
".m c #c58968",
"ah c #c58969",
"fq c #c68768",
"ef c #c6876a",
"ax c #c68868",
".e c #c68968",
".z c #c68969",
"bN c #c68a68",
"bg c #c78869",
"dU c #c78968",
".r c #c78969",
".t c #c78a68",
".G c #c78a69",
"aB c #c78a6a",
"#u c #c88969",
"Qt c #c88a69",
"aN c #c88a6a",
"eI c #c88b69",
"gJ c #c88b6a",
"cb c #c9846a",
"bC c #c98669",
"bP c #c98869",
".s c #c98a69",
"cD c #c98a6a",
".l c #c98b69",
".d c #c98b6a",
"aS c #c98c6a",
"fs c #ca8a69",
"#R c #ca8b69",
".# c #ca8b6a",
".k c #ca8c6a",
"#M c #ca8c6b",
"bW c #cb886b",
"gt c #cb8b6a",
"ak c #cb8c6a",
"a. c #cb8c6b",
"bD c #cb8d6a",
"bO c #cc8a6b",
"bw c #cc8b6a",
"cS c #cc8d6b",
"aQ c #cc8d6c",
"bx c #ce8a6b",
"Qt.#.a.b.c.d.e.f.g.f.d.h.i.j.k.lQt.m.n.o.p.p.q.f.r.l.s.t.u.v.w.x.y.eQt.e.r.z.f.q.A.B.C.D.E.A.F.g.GQt",
"Qt.#.H.I.J.F.K.L.M.N.O.P.Q.R.S.T.U.V.B.O.W.X.Y.L.V.Z.0.0.1.G.u.2.3.4.5.D.6.7.8.Y.9.9.8.V#..M.9###a.m",
"Qt.#.H#b#c.X#d#e.9.9.9.K#f#g#h#i#i#j#k#l#m#n.K.7.M.M.L.8.8.BQt#o#p#q#r.9.M.M#e#s.9.9#t#u#v#s#w.G#w#x",
"Qt.l#y#z#A#w.z#B.9.9.6.F#C#D#E.c#F#G#H#g.I#b#I#J#K.9#s#w.L.Y#L#M#N#O#P#Q.L#s#B.f.K.M.F.s.z.K.f#R#S#T",
"Qt.l#U#z#V.n.l.e#..M#W#R#X.9.9.9.9#.#Y#Z#0#1.i#q.y#2.F.l#t.M#s.z.m.c#q#3.L.D.eQt#2.Y.p#R.m#s.f.G#2.V",
"Qt.k#4#5#A.o.l.m.L.9.f#R.A.Y#6#X.E.D.X.9.9#T#7.i#8#9.U#R#w.Y#..fa.a##qaa#s.K.fQt.V.9#s#2.6.9ab.6.X.U",
"#R.zacadaeab.A.6.9.9.B.naf#s.e.lQt.e.f.Fag.8ahaiaa.n#.aj.L.Y#wQtak#4alam.o.Mab.V.8.9.9.Y.M.9.Y.9anQt",
".T#fadaoap#s.9.9.9.9.9.9.9.KQtQtQtQt.s.laq#w.daras.A.M.Y.9.Yat.s.#auavawax#s.M.9.9.9.9.9.9.9#..q.sak",
"ayaz#I.baA#..9.9.9.9.9.9.9#s.f.s.s.lQt.0#2aB.faCaD#w#s#w.9.M#..1.#aEaF.bau.o.M.9.9.9.9.M.L#w.ra..e#4",
".xaG.RaHaG.6.M.9.9.9.9.9.9.MaI#2#X#w.V#s.q.#aJ#haK.6.6#S.F#L.Y#L.s.GaLaMaiaNab.9.9.9.9#L.g.#.TaOaPal",
".SaQ#m.i.Sab.M.9.9.9.9.9#w.p.L.6#s.MaR.7.raS#NaHaT#T.9.7Qt.g.X.oQt.daJ#h#b#N.d#2#LaUaVaWaXaYaZ.wa0a1",
".#.e#j#l.e#s.9.9.9.9.9#..eQt#B.l.F.9.Y.A.ma2a3awa4#..9.X.f.F.9.p.s.s.Uata5aF#4#y.Ha6a7az#ga8a9aKb..d",
".kb##zba#9.M.9.M.9.9.9#..zQt.e.s.q.Lbb#9bcbdbebfbgbh.9.9#..N.M.K.g.U#sag#tbi#O#Hadbjbibk.jbl.O#s.Z.l",
"ak.Hbmbn.A#..0.o.Ebo.8.8an.0#vQt#w.Y#s.f.#bpbqbr#S.9.9.9.9.9.9.9#s.N#x#.bs.f#E#zb#.5bt#v.z.Kbu#Y.zQt",
"a.a#bvaXaj#o#W.kbwbx.1#X.E.K.r.l#a.Y.KbybzbAbBbC#w.9.9.9.9.9.9.9.M.D.G.q.6bDbEbF.d.7.X.zQt.6.Y#2.sQt",
"aNbGadbH#IbIbJbKbLbMbNbxbObPbxbwbQ.YbRbSbTbUbVbW.X.9.9.9.9.9.9.9.M#Y.qaj.VakbXbY.0.Y.6Qt.s#2.8.qQtQt",
".r#f#qaFbZb0b1b2b3b4b5b6b7b8b9c.c#cacbcccdcecfcg#L#w.M.9.9.9.9.9.9.9.L.8.U#Mch#ian.Y.L.eQt#6.9.Z.sQt",
".r#f#qci.B#scjckclcmcncococpcqcrcsctcucvcwcxcycz#t#t.X#X.6.9.9.9.9.9.9#..daWaF#OcA.7.L#L.6.8.9cBcCQt",
"cDbacEcF.L.9#CcGcHcIcJcKcKcKcLcKcMcNcOcncncPcQcR.9.M.VQt#9.9.9.9.9.9.9#XcS.H#IchbFcT#B.e.K.9.9.9.X.f",
"a.cUcVcW.L#dcXcYcZc0c1c2c3c4c5c6c7c8c9d.d#dadbdcdd.M.K.gat#sde.6.9.9.6.G.ddfdg#yaHdh.#.s#L.M.9.M.M.F",
".#diaZcA#Xdj#sdkdldmdndodpdqdrdsdtdudvdwdxdydzdAdB#s.9#Y.8#w#R#B.9#..fa.dCdD.H.k#J#i.T#9#s.9.D#w.Laq",
".l.0#idE.Fah#.#sdFdGdH.pcDdIdJdKdLdMdNdNdOdPdQdRdSdTdd.M.M.BdU.odVaBQtdW#z.cde.zb#dX.a.A.M.Xah.l.o.g",
".l.T#idYcBab.8.9.9dd#e.9.V.ZdZd0d1d2d3d4d5cnd.d6d7d8d9e.#Y.N#X.m.re#dfeabHeb#d#e#Xa9.c.A.M#..r.sb..e",
".l.T#iec.W.8.9.9.9.9.9.9.9.8edeeefegeheiejekc9elemeneoepeq#u.0era9#g#GesaE.7.M.M#LcU.iaE.9.L#SQt#B.e",
".l.Tet.j.r.6.M.9.9.9.9.9.9.9bu#LQt#Xeuevbdewc9c9d#d.exeyezeAeB#HeCbZeD.V#..M.9.9.8eEeFa1#L.M.K.B#2.G",
".leGeHaT.r.6.M.9#x.F.L.9.9.9.MaUeIat#CeJdAeKeLeMeNeOePeQeReSeTeU#Y.8.X.9.9.8.9.9.9.6eVaY.g.9.M.M.6.r",
".la4bHeW.6.8.9.9.p.e#s.9.9.9.M.N.E#s.9eXeYeZe0e1e2bpe3e4e5e6aN#..9.K#s.9.6.q.6.9.9#ee7aFe8#w.M.M.C.r",
"akaXe9.8.9.9.9.9#.ab.9.9.9.9.9.9.M.9.9f.f#fafbfcfdfefffgfhfiat.Y#s.eaV.X.0.l.0.8.9.9eW.waO.d#..9.8.f",
"Qt.4#E#..9.7aj.9.9.M.9.9.9.9.9.9.9.9.9fjfkflfmfnfoeXfpfqaFfr#L.Y#.#R.g#sdjfs.g.8.9.9.K#lawa4ah.X.M#B",
"aO#5ft.6.9cC.sbb.9.9.9.9.9.9.9.9.9.9.8fufvfafwfxfy.9.M#9aybG.A.Y.X.F#x.9fz.gfz.9.9.9#db#dDay.P.F#w#v",
"#H#OfA.B.M#2.T.E.L.9.9.9.9.9.9.9.9fBfCfDfEfFfGfHf..9.M.EfI#hcT#s.9.Y.M.9.9.9.9.9.9.9.9.gaXaH#P#la6.4",
"ba.4#h#Y.9.8#2#u#2.Y.9.9.9.9.L.L.9.9fJfwdtfafKfLfM.C#s#wa4.ias.G.N.9.9.9.9.9.9.B.C.M.9.z#U.QfNcVaM#P",
".k.P#GfO#d.M#2fs.p.9.9.8.9.9.e.p.9.FfPfwfQfRfSfT#B#waj.l.lfUfVaE#T.9#s.9.9.9.KQt.0.8#s.1aPfWbG#y.Tax",
"Qt.kfXa8.8.9#YfY#..8.L#Y.9.9.U#B.gfZf0f1f2f3f4.8#.#s.B.f.gaVbFf5.o.K.f#2.9.M#.Qt.qbh#wf6aob0.F.q.r.s",
"axaqfi#z#m.6.M.Y.9.9.9.9.9bb.F.ff7.i.xf8f9g.dd.9.9.9.9#s.6akg##bga#X#R#B#s.E#d.B#.#.#7gbgc.9.M.M.EdU",
"#Xgd#wge.ieb#d.9.9.9.9.9.C.qaX#ibmgfa4.#.##..9.9.9.9.9.9.L.m.ldggg.o.manaj.l#w.Y.9ghaFbJgi.L.9.9.N.f",
".6.M.M#6bj.4#t.X.Y.Y#s.oe8gjazetgkdU.z.r.s.V.9.9.9aI.7.9.9#..ggl#Igm#..8#xeI#xbb.BgnaFbt.9.9.9.9.M.g",
"#Lde#Y#.bE#HaX.1#w#w.zgogpgq.R.S.d.e.D#B#u.K.9.9.9.m.f#s#2.n#a.e#FaefB.9.L.E.L.6#E#IdW.7.9.9.9.9.M.g",
".B.Uab.M.Egrgs#Wgt.k#N.Qgugv.e#L.FQt.C#Y.C.9.9.9.9.0.1.9aqax.V.mbkbHab.L.9.9#a#EdDdh.1.9.9.9.9.9.X.f",
".C.9.L.X.Bb#.igwaudf.wbHdiaU.L.9.K.p.L.9.M.9.9.9.9.8.L.8.V.E#d.zgx#bg##6.Kgy#lgzgAaNab.9.9.D.q.F.V.f",
".C.M#w.0#sahaDcV#OeFa6gB#s.Y.9.9.Y.M.9.9.9.9.9.9.9.9.M#2.z.9.L.zgC#H.bgDgEdD.QgF.##x.M.9aj.tQt.s.o.g",
".C.9.7dF.M.FeGgGgH#U#L.Y#..E.9#s#a#..9.9.9.9.9.9.9.9.9.V.n.9.M.qaJ.x.bdX#F#fgI.g#T.9.9#s.g.sQt.s.o.g",
".B.M#..0.V#Xgt.R#JgJ.L.Y#X#S.L#XeI.F.9.9.9.9.9.9.9.9.9.9.8.9.9.Aa4#zaP#U.K#s.C.L.M.9.9.9gKQtQt.faj.f",
"#a.Y.E.l.F#2.kaX#jbQ#..MaI#t#s.q.s.r.9.9.9.9#s.9.9.9.9.9.9.9.9.6#o#b.R.#.C.9.9.9.9.9.9.9.9#Y.C.L#xQt",
"#t.9#..F.6#2.#gLcVbibt.C.9.9.M.A#R.F.9.9.9.K.1.C.M.M.9.9.9.9.9.Vdi.b.u.k.B.M.9.9.9.E.K.9.9.9.9.M.D.r",
".p.M.9.8.M.FeGaw.Q#HgMaj#d.9.9.X.V#s.9.9.9.A.0#s.X#w#Y.9.9.9.9#2.RbFaJ.d.g#s.9.9.N.f.F.9.9.9.9.9#s.f",
"de.M.9.9#d.gf5#IgNaKalgO.E.8.9.9.M.9.9.9.9.L.L.9#a.s#X.Y.9.M.NgP.QgQa.QtQt.g.6.8.9.B.K.9.9.9.9.9#s.f",
".g.M.9.9dFgR#gaO.#.#fOgSbZ#a.M.9.9.9.9.9.9.9.9.9.BQtat.Y.M.L#vgT#PgI.dQtQtQtQtde.9.Y.Y.M.9.9.9.M.6.z",
".f.L.9#Y#E#Hbk.sQtQtdUbidXgU.o.8.9.9.9.9.9.9.9.9.9.6#s.9.E.fgV#ba6.dQtQtQtQtQt.r.F#Xaj.6#Y#s.9bbanQt",
".f#s.6e7#ggW.s.sQtQt.#di#gesQt.0.V.8.9.9.9.9.9.9.X#6de.faWgXdDeV.TQtQtQtQtQtQtQt.s.sQt.zax.f.g.f.GQt"};
