/* XPM */
static char *dummy[]={
"50 50 79 2",
".v c #3e701f",
".X c #3e711f",
".A c #3f711f",
".1 c #3f721f",
".U c #3f731f",
".H c #40731f",
".w c #40741f",
"#b c #407420",
"#i c #407520",
"#a c #417420",
".9 c #41751f",
".N c #417520",
"#. c #41761f",
".E c #417620",
".G c #42761f",
".r c #42771f",
".D c #427720",
".Z c #427820",
".2 c #427821",
"#l c #43771f",
"Qt c #437720",
".T c #437820",
".Y c #437821",
".S c #437920",
".C c #437921",
"#j c #437a20",
".u c #437a21",
".t c #447a20",
".z c #447a21",
".K c #447b21",
".x c #447c21",
"#h c #457b20",
"## c #457b21",
".B c #457c21",
".# c #457d21",
".4 c #457d22",
"#d c #457e21",
".6 c #457e22",
".d c #467d21",
".m c #467d22",
".j c #467e21",
".i c #467e22",
".P c #467f21",
".y c #467f22",
"#k c #477e22",
"#e c #477f21",
".o c #477f22",
".a c #478022",
".c c #478122",
"#m c #488022",
".e c #488122",
".M c #488222",
".n c #488223",
".5 c #488322",
".R c #488323",
".8 c #498222",
".s c #498322",
".b c #498323",
".q c #498422",
".f c #498423",
".h c #498523",
".7 c #4a8423",
".k c #4a8523",
".l c #4a8623",
"#g c #4a8624",
".3 c #4a8723",
".J c #4b8623",
".g c #4b8624",
".I c #4b8723",
".L c #4b8724",
"#c c #4b8823",
".F c #4b8824",
".0 c #4b8924",
".V c #4c8824",
".p c #4c8924",
".O c #4c8a24",
"#f c #4c8b24",
".Q c #4d8a24",
".W c #4d8b24",
"Qt.#.a.b.c.d.e.f.g.f.b.h.i.j.k.l.f.a.m.n.f.f.o.p.q.r.#.a.b.c.d.e.f.g.f.b.h.i.j.k.l.f.a.m.n.f.f.o.p.s",
".k.t.o.u.v.w.x.y.i.z.z.w.A.B.C.D.w.E.c.F.l.G.H.o.I.h.t.o.u.v.w.x.y.i.z.z.w.A.B.C.D.w.E.c.F.l.G.H.o.I",
".e.n.J.c.#.#.t.b.p.I.f.K.K.p.L.f.l.l.e.M.M.a.t.c.b.c.n.J.c.#.#.t.b.p.I.f.K.K.p.L.f.l.l.e.M.M.a.t.e.M",
".M.N.B.O.l.b.B.b.F.P.k.L.L.F.p.Q.p.l.D.E.A.y.p.#.a.R.N.B.O.l.b.B.b.F.P.k.L.L.F.p.Q.p.l.D.E.A.y.p.#.a",
".S.T.m.D.E.w.U.w.N.R.e.y.t.E.z.M.p.V.y.a.T.o.W.S.E.S.S.m.D.E.w.U.w.N.R.e.y.t.E.z.M.p.V.y.a.T.o.W.S.N",
".B.r.z.v.A.X.X.X.X.E.b.F.V.a.K.y.Q.O.F.I.P.e.F.T.c.#.r.z.v.A.X.X.X.X.E.b.F.V.a.K.y.Q.O.F.I.P.e.F.T.a",
".B.Y.b.a.H.Z.z.#.b.l.L.f.0.k.n.p.O.o.o.b.1.1.n.a.p.B.2.b.a.H.Z.z.#.b.l.L.f.0.k.n.p.O.o.o.b.1.1.n.a.p",
".f.C.3.W.t.B.0.k.a.I.L.F.L.k.n.p.p.M.l.O.K.K.I.o.e.f.C.3.W.t.B.0.k.a.I.L.F.L.k.n.p.p.M.l.O.K.K.I.o.e",
".K.4.M.p.l.D.C.l.5.o.k.6.a.W.s.j.p.p.Q.V.h.l.f.o.b.B.4.M.p.l.D.C.l.5.o.k.6.a.W.s.j.p.p.Q.V.h.l.f.o.f",
".f.7.I.p.l.F.l.f.8.L.L.9.1.#.y.9.l.i.f.l.#.a.l.k.p.f.7.I.p.l.F.l.f.8.L.L.9.1.#.y.9.l.i.f.l.#.a.l.k.O",
".l.a#..k.k.J.x.N.j.p.l.D.w.T.#.B.K.B.a.O.p.p.k.F.p.J.a#..k.k.J.x.N.j.p.l.D.w.T.#.B.K.B.a.O.p.p.k.F.p",
".M.i.w.D.S.z.D.z.U.L.p.F.M.M.L.O.O.I.s.M.a.i.U.z.F.M.i.w.D.S.z.D.z.U.L.p.F.M.M.L.O.O.I.s.M.a.i.U.z.V",
".J.k.L.a##.D#a#b.E.L.7.p.5.f.l.M.I.f.s#c.7.f.k.S.b.I.k.L.a##.D#a#b.E.L.7.p.5.f.l.M.I.f.s#c.7.f.k.S.b",
".f.l.J.l.p.p.n.i.k.Q.B.j.J.M.k.J.e.e.e.b.8.e.p.L.p.f.l.J.l.p.p.n.i.k.Q.B.j.J.M.k.J.e.e.e.b.8.e.p.L.p",
".k.s.s.l.M.f.p.O.p.l.a.z.1.N.f.e.D.Z.S.T.N.D.e.a.k.k.s.s.l.M.f.p.O.p.l.a.z.1.N.f.e.D.Z.S.T.N.D.e.a.k",
".k.b.f.#.z.B.t#d.V.b.j.y.e.F.Q.y.X.N.U.1.v.i.f#e.s.l.b.f.#.z.B.t#d.V.b.j.y.e.F.Q.y.X.N.U.1.v.i.f#e.s",
".b.f.K.A.Z.V.k.c.y.f#f.p.p.L.b.F.D.X.H.S.K.e.M.f.Q.b.f.K.A.Z.V.k.c.y.f#f.p.p.L.b.F.D.X.H.S.K.e.M.f.Q",
".l.F.l.y.a.l.a.M.L.p.l.I.L.B.f.F.F.c.f.I.p.f.j.l.I.l.F.l.y.a.l.a.M.L.p.l.I.L.B.f.F.F.c.f.I.p.f.j.l.I",
".o.a.J.c.p.f.j.B.p#g.M.K.c.M.c.j.p.L.F.F.L.i.b.B#h.m.a.J.c.p.f.j.B.p#g.M.K.c.M.c.j.p.L.F.F.L.i.b.B.t",
".l.p.f.r.e.F.H.S.K.#.K.f.F.j.c.f.L.Q.e.B.V.l.F.c.J.k.p.f.r.e.F.H.S.K.#.K.f.F.j.c.f.L.Q.e.B.V.l.F.c.J",
".M.M.n.b.o.s.K.4.c.M.k.e.a.a.M.B.e.Q.s.o.p.M.Z.p.p.M.M.n.b.o.s.K.4.c.M.k.e.a.a.M.B.e.Q.s.o.p.M.Z.p.p",
".o.z.j.p.p.V.p.i.e.f.f.e.s.k.D.B.d.L.l.l.l.#.j.3.c.a.z.j.p.p.V.p.i.e.f.f.e.s.k.D.B.d.L.l.l.l.#.j.3.a",
".a#i.E.a.f.O.k.i.a.O.F.M.l.f.9.k.#.K.K.b.V.M.k.l.C.a.N.E.a.f.O.k.i.a.O.F.M.l.f.9.k.#.K.K.b.V.M.k.l.C",
".k.9.N#j.j.f.e##.i.M.z.C.f.l.s.k.V.e.e.f.S.M.I.M.f.l.9.N#j.j.f.e##.i.M.z.C.f.l.s.k.V.e.e.f.S.M.I.M.f",
".M#e.k.f#k.d.a.a.n.M.l.l.b.e.L.L.f.L.n.k.B.a.K.u.e.b#e.k.f#k.d.a.a.n.M.l.l.b.e.L.L.f.L.n.k.B.a.K.u.n",
".T.i.a.R.e.i.e.7.g.f.b.f.y.j.k.J.f.a.m.n.b.f.a.p.q#l.j.a.R.e.i.e.7.g.f.b.f.y.j.k.J.f.a.m.n.b.f.a.p.s",
".k.t.o.u.v.w.x.y.i.z.z.w.A.B.C.D.w.E.e.F.l.G.H.o.I.f.t.o.u.v.w.x.y.i.z.z.w.A.B.C.D.w.E.e.F.l.G.H.o.I",
".e.n.J.c.#.#.t.b.p.I.f.K.K.p.L.f.l.l.e.M.M.a.t.c.b.c.n.J.c.#.#.t.b.p.I.f.K.K.p.L.f.l.l.e.M.M.a.t.e.M",
".M.N.B.O.l.b.B.b.F.P.k.L.L.F.p.Q.p.l.D.E.A.y.p.#.a.R.N.B.O.l.b.B.b.F.P.k.L.L.F.p.Q.p.l.D.E.A.y.p.#.a",
".S.T.m.D.E.w.U.w.N.R.e.y.t.E.z.M.p.V.y.a.T.o.W.S.E.S.S.m.D.E.w.U.w.N.R.e.y.t.E.z.M.p.V.y.a.T.o.W.S.N",
".B.r.z.v.A.X.X.X.X.E.b.F.V.a.K.y.Q.O.F.I.P.e.F.T.c.#.r.z.v.A.X.X.X.X.E.b.F.V.a.K.y.Q.O.F.I.P.e.F.T.a",
".B.Y.b.a.H.Z.z.#.b.l.L.f.0.k.n.p.O.o.o.b.1.1.n.a.p.B.2.b.a.H.Z.z.#.b.l.L.f.0.k.n.p.O.o.o.b.1.1.n.a.p",
".f.C.3.W.t.B.0.k.a.I.L.F.L.k.n.p.p.M.l.O.K.K.I.o.e.f.C.3.W.t.B.0.k.a.I.L.F.L.k.n.p.p.M.l.O.K.K.I.o.e",
".K.4.M.p.l.D.C.l.5.o.k.6.a.W.s.j.p.p.Q.V.h.l.f.o.b.B.4.M.p.l.D.C.l.5.o.k.6.a.W.s.j.p.p.Q.V.h.l.f.o.f",
".f.7.I.p.l.F.l.f.8.L.L.9.1.#.y.9.l.i.f.l.#.a.l.k.p.f.7.I.p.l.F.l.f.8.L.L.9.1.#.y.9.l.i.f.l.#.a.l.k.O",
".l.a#..k.k.J.x.N.j.p.l.D.w.T.#.B.K.B.a.O.p.p.k.F.p.J.a#..k.k.J.x.N.j.p.l.D.w.T.#.B.K.B.a.O.p.p.k.F.p",
".M.i.w.D.S.z.D.z.U.L.p.F.M.M.L.O.O.I.s.M.a.i.U.z.F.M.i.w.D.S.z.D.z.U.L.p.F.M.M.L.O.O.I.s.M.a.i.U.z.V",
".J.k.L.a##.D#a#b.E.L.7.p.5.f.l.M.I.f.s#c.7.f.k.S.b.I.k.L.a##.D#a#b.E.L.7.p.5.f.l.M.I.f.s#c.7.f.k.S.b",
".f.l.J.l.p.p.n.i.k.Q.B.j.J.M.k.J.e.e.e.b.8.e.p.L.p.f.l.J.l.p.p.n.i.k.Q.B.j.J.M.k.J.e.e.e.b.8.e.p.L.p",
".k.s.s.l.M.f.p.O.p.l.a.z.1.N.f.e.D.Z.S.T.N.D.e.a.k.k.s.s.l.M.f.p.O.p.l.a.z.1.N.f.e.D.Z.S.T.N.D.e.a.k",
".k.b.f.#.z.B.t#d.V.b.j.y.e.F.Q.y.X.N.U.1.v.i.f#e.s.l.b.f.#.z.B.t#d.V.b.j.y.e.F.Q.y.X.N.U.1.v.i.f#e.s",
".b.f.K.A.Z.V.k.c.y.f#f.p.p.L.b.F.D.X.H.S.K.e.M.f.Q.b.f.K.A.Z.V.k.c.y.f#f.p.p.L.b.F.D.X.H.S.K.e.M.f.Q",
".l.F.l.y.a.l.a.M.L.p.l.I.L.B.f.F.F.c.f.I.p.f.j.l.I.l.F.l.y.a.l.a.M.L.p.l.I.L.B.f.F.F.c.f.I.p.f.j.l.I",
".o.a.J.c.p.f.j.B.p#g.M.K.c.M.c.j.p.L.F.F.L.i.b.B#h.m.a.J.c.p.f.j.B.p#g.M.K.c.M.c.j.p.L.F.F.L.i.b.B.t",
".l.p.f.r.e.F.H.S.K.#.K.f.F.j.c.f.L.Q.e.B.V.l.F.c.J.k.p.f.r.e.F.H.S.K.#.K.f.F.j.c.f.L.Q.e.B.V.l.F.c.J",
".M.M.n.b.o.s.K.4.c.M.k.e.a.a.M.B.e.Q.s.o.p.M.Z.p.p.M.M.n.b.o.s.K.4.c.M.k.e.a.a.M.B.e.Q.s.o.p.M.Z.p.p",
".o.z.j.p.p.V.p.i.e.f.f.e.s.k.D.B.d.L.l.l.l.#.j.3.c.a.z.j.p.p.V.p.i.e.f.f.e.s.k.D.B.d.L.l.l.l.#.j.3.a",
".a#i.E.a.f.O.k.i.a.O.F.M.l.f.9.k.#.K.K.b.V.M.k.l.C.a.N.E.a.f.O.k.i.a.O.F.M.l.f.9.k.#.K.K.b.V.M.k.l.C",
".k.9.N#j.j.f.e##.i.M.z.C.f.l.s.k.F.e.e.f.S.M.I.M.f.l.9.N#j.j.f.e##.i.M.z.C.f.l.s.k.F.e.e.f.S.M.I.M.f",
".n.j.f.f.d.B.o.c.n.e.k.k.R#m.L.L.b.J.e.7.B.a.B.u.M.b.j.f.f.d.B.o.c.n.e.k.k.R#m.L.L.b.J.e.7.B.a.B.u.n"};
