/* XPM */
static char *result[] = {
/* columns rows colors chars-per-pixel */
"50 50 126 2 ",
"   c #020303",
".  c #070909",
"X  c #0B0C0C",
"o  c #151617",
"O  c #161718",
"+  c #28292A",
"@  c #383939",
"#  c #474849",
"$  c #4D4E4F",
"%  c #4E4F50",
"&  c #5A5B5B",
"*  c #5D6A6F",
"=  c #767777",
"-  c #056C9B",
";  c #0D719E",
":  c #11749F",
">  c #086EA1",
",  c #1476A2",
"<  c #1A77A5",
"1  c #1579A6",
"2  c #1978A6",
"3  c #1E77A8",
"4  c #1D7CAB",
"5  c #1E7CB1",
"6  c #2077A9",
"7  c #237DAD",
"8  c #297AAF",
"9  c #247FB2",
"0  c #2D7CB3",
"q  c #337EB7",
"w  c #337DB8",
"e  c #397FBC",
"r  c #2583AB",
"t  c #2C85AD",
"y  c #3188AF",
"u  c #2581B3",
"i  c #2982B5",
"p  c #2D85BB",
"a  c #2D89BE",
"s  c #3086B7",
"d  c #3088B0",
"f  c #3B8CB6",
"g  c #3285BB",
"h  c #3389BD",
"j  c #3A8BB8",
"k  c #4491B3",
"l  c #4692BA",
"z  c #4C96BC",
"x  c #4F98BB",
"c  c #569CBE",
"v  c #3287C1",
"b  c #3A82C0",
"n  c #358BC3",
"m  c #3B8DC5",
"M  c #3C8EC9",
"N  c #3690C9",
"B  c #3C91CB",
"V  c #3696D0",
"C  c #3F96D2",
"Z  c #4582C4",
"A  c #4882C5",
"S  c #4985C9",
"D  c #458CCB",
"F  c #4392CD",
"G  c #4A91CE",
"H  c #478BD0",
"J  c #4595D1",
"K  c #4A95D2",
"L  c #4499D6",
"P  c #4B98D6",
"I  c #4C9CDA",
"U  c #539ED6",
"Y  c #5DA0C0",
"T  c #57A2D8",
"R  c #58A2D9",
"E  c #64A4C0",
"W  c #6EACC8",
"Q  c #71ABC6",
"!  c #76AFC8",
"~  c #63ACDE",
"^  c #7DB7D1",
"/  c #4E9FE0",
"(  c #4FA0E0",
")  c #5BA8E0",
"_  c #70B7E5",
"`  c #74BBE7",
"'  c #76BDE9",
"]  c #79BFEA",
"[  c #7CC2EB",
"{  c #7EC7F2",
"}  c #919292",
"|  c #99999A",
" . c #A3A4A5",
".. c #A8A9A9",
"X. c #B5B6B6",
"o. c #B8BBBC",
"O. c #84B6CD",
"+. c #8BBBCF",
"@. c #92BFD2",
"#. c #99C3D6",
"$. c #96C6DC",
"%. c #9BC9DE",
"&. c #A0C7D9",
"*. c #A4C9D9",
"=. c #AACDDC",
"-. c #84C9EF",
";. c #85CBF1",
":. c #8ACFF3",
">. c #8CD0F3",
",. c #B5D3E0",
"<. c #CECECE",
"1. c gray82",
"2. c #C5DDE7",
"3. c #C0DEEB",
"4. c #D4E6ED",
"5. c #DBE9EF",
"6. c #DCEBF2",
"7. c #E1E1E1",
"8. c #EAEAEA",
"9. c #E6F0F4",
"0. c #EAF2F5",
"q. c #EEF6F9",
"w. c #F4F4F4",
"e. c #F5F9FB",
"r. c #FEFEFE",
"t. c None",
/* pixels */
"t.t.t.t.t.t.t.t.t.t.t.t.t.t.t.t.t.t.t.t.t.t.t.t.t.t.t.t.t.t.t.t.t.t.t.t.t.t.t.t.t.t.t.t.t.t.t.t.t.t.",
"t.t.t.t.t.t.t.t.t.t.t.t.Z S A Z t.t.t.t.t.t.t.t.t.t.t.t.t.t.t.t.t.t.t.t.t.t.t.t.t.t.t.t.t.t.t.t.t.t.",
"t.t.t.t.t.t.t.t.t.t.t.t.Z Z g A t.t.t.t.t.t.t.t.t.t.t.t.t.t.t.t.t.t.t.t.t.t.t.t.t.t.t.t.t.t.t.t.t.t.",
"t.t.t.t.t.t.t.t.t.t.t.t.A Z < Z t.t.t.t.t.t.t.t.K K K K K K P P t.t.t.t.t.t.t.t.t.t.t.t.t.t.t.t.t.t.",
"t.t.t.t.t.t.t.t.t.t.t.t.Z A t.e t.t.t.t.t.P P I I P J G U ] -.{ ) P t.t.t.t.t.t.t.t.t.t.t.t.t.t.t.t.",
"t.t.t.t.t.t.t.t.t.t.t.t.t.t.t.Z t.t.t.t.P I K K G K K K [ :.;.:.[ U P t.t.t.t.t.t.t.t.t.t.t.t.t.t.t.",
"t.t.t.t.t.t.t.t.t.t.t.t.t.t.g A t.t.t.K I K J G J K K K ' >.:.:.] F P P t.t.t.t.t.t.t.t.t.t.t.t.t.t.",
"t.t.t.t.t.t.t.t.t.t.t.t.t.w S t.t.t.t.P K K K K K K K G P _ [ ' ` ~ K P K t.t.t.t.t.t.t.t.t.t.t.t.t.",
"t.t.t.t.t.t.t.t.t.t.t.t.0 S t.t.t.t.t.I K K K K K K J F F K K U :.;.P G I t.t.t.t.t.t.t.t.t.t.t.t.t.",
"t.t.t.t.t.t.t.t.t.t.t.6 H t.t.t.t.t.K I K K K K G p j z l p n K R U K K P K t.t.t.t.t.t.t.t.t.t.t.t.",
"t.t.t.t.t.t.t.t.t.t.t.g A t.t.t.t.t.t.I K K P M f *.0.r.e.4.Q p K G K K K K t.t.t.t.t.t.t.t.t.t.t.t.",
"t.t.t.t.t.t.t.t.t.t.6 H t.t.t.t.t.t.t.M 9 7 u f 5.r.r.r.r.r.r.@.p K G K K K t.t.t.t.t.t.t.t.t.t.t.t.",
"t.t.t.t.t.t.t.t.t.t.8 A t.t.t.t.t.t.; d +.=.k ,.r.r.1.} X.w.r.r.Y M K K K K t.t.t.t.t.t.t.t.t.t.t.t.",
"t.t.t.t.t.t.t.t.t.t.w A t.t.t.t.t.t.d 6.r.r.Q e.r...X & <. .w.r.,.p K K P K t.t.t.t.t.t.t.t.t.t.t.t.",
"t.t.t.t.t.t.t.t.t.t.g A t.t.t.t.t.- %.r.w.6.! r.w.+   | r.=  .r.6.s K K I K t.t.t.t.t.t.t.t.t.t.t.t.",
"t.t.t.t.t.t.t.t.t.t.e A t.t.t.t.t.; 3.r.@ * ^ r.8.O   O #   } r.4.s P K K t.t.t.t.t.t.t.t.t.t.t.t.t.",
"t.t.t.t.t.t.t.t.t.t.0 S Z t.t.t.t.- $.r.| o.W w.r.$       . <.r.=.p P I t.t.t.t.t.t.t.t.t.t.t.t.t.t.",
"t.t.t.t.t.t.t.t.t.t.3 Z S Z t.t.t.t.t 6.r.r.*.%.r.4.% O +  .r.e.x D I K t.t.t.t.t.t.t.t.t.t.t.t.t.t.",
"t.t.t.t.t.t.t.t.t.t.t.9 A S Z A t.t.t.r ^ #.E 7 2.r.r.8.e.r.r.! p I K t.t.t.t.t.t.t.t.t.t.t.t.t.t.t.",
"t.t.t.t.t.t.t.t.t.t.t.: 0 Z A S S Z A w > 9 i m d O.4.0.9.,.c g K P t.t.t.t.t.t.t.t.t.t.t.t.t.t.t.t.",
"t.t.t.t.t.t.t.t.t.t.t.t.1 7 Z Z Z Z A A Z F P K K v p j j g M K I K t.t.t.t.t.t.t.t.t.t.t.t.t.t.t.t.",
"t.t.t.t.t.t.t.t.t.t.t.t.t., 2 w Z A D G P m F K K K K K K K K K K t.t.t.t.t.t.t.t.t.t.t.t.t.t.t.t.t.",
"t.K I I I P t.t.t.t.t.t.t.t.: 2 m K K G J G F K K K K G K G K I K t.t.t.t.t.t.t.t.t.t.t.t.t.t.t.t.t.",
"t.( F i 7 i F t.t.t.t.t.t.t.t.K P K K K K K K h g m K K J K K I t.t.t.t.t.t.t.t.t.t.t.t.t.t.t.t.t.t.",
"t.t.t.t.t.t.4 J t.t.t.t.t.t.P I K G K K K G J F G M F K K K P P t.t.t.t.t.t.t.t.t.t.4 m J n 7 t.t.t.",
"t.t.t.t.t.t.t.u P P t.t.t.K P K N 2 2 m K K K K K K G K K M s i t.t.t.t.t.t.t.t.t., C K K P I u t.t.",
"t.t.t.t.t.t.t.t.u L I P I P K a , t.t.J K K K P J G K K F F F F t.t.t.t.t.t.t.t.t.2 I K t.t.P C t.t.",
"t.t.t.t.t.t.t.t.t.4 B I I P a , t.t.P P K J h u u K J K G P K P t.t.t.t.t.t.t.t.t.: V P t.t.t.L , t.",
"t.t.t.t.t.t.t.t.t.t.t.u h u t.t.t.P P K B 2 t.t.t.K K K i s K I K t.t.t.t.t.t.t.t.t.B t.t.t.P L : t.",
"t.t.t.t.t.t.t.t.t.t.t.t.t.t.t.t.K P K F 1 t.t.t.K I K B : ; p K P t.t.t.t.t.t.t.t.t.t.t.t.t.P m t.t.",
"t.t.t.t.t.t.t.t.t.t.t.t.t.t.t.t.K K K p t.t.t.t.I G K B t.t.t.B I K t.t.t.t.t.t.t.t.t.t.t.P I u t.t.",
"t.t.t.t.t.t.t.t.t.t.t.t.t.t.t.t.K J G 2 t.t.t.K P J K F , t.t.4 F I P t.t.t.t.t.t.t.t.t.P I v t.t.t.",
"t.t.t.t.t.t.t.t.t.t.t.t.t.t.t.t.K K B : t.t.t.K I K K K i t.t.t.7 L P P K K t.t.t.K P I L p t.t.t.t.",
"t.t.t.t.I P P t.t.t.t.t.t.t.t.t.K I n t.t.t.t.t.K K K K F 4 t.t.t.4 B I I I I I T I I n 9 t.t.t.t.t.",
"t.t.t.F N 7 u n J t.t.t.t.t.t.t.K I N : t.t.t.t.t.P P K K F u , t.t.t.i m B J B n p 4 t.t.t.t.t.t.t.",
"t.t.t.i : t.t.t.u J t.t.t.t.t.t.t.P G 3 t.t.t.t.t.t.P I P K K B a 7 t.t.t.t.t.t.t.t.t.t.t.t.t.t.t.t.",
"t.t.t.t.t.t.t.t.t.p P t.t.t.t.t.t.K P a : t.t.t.t.t.t.t.P K P I P K J v t.t.t.t.t.t.t.t.t.t.t.t.t.t.",
"t.t.t.t.t.t.t.t.t.t.L K t.t.t.t.t.K I B : t.t.t.t.t.t.t.t.t.t.K K I K K L t.t.t.t.t.t.t.t.t.t.t.t.t.",
"t.t.t.t.t.t.t.t.t.t.i P t.t.t.t.t.K I N t.t.t.t.t.t.t.t.t.t.t.t.t.K P K P G t.t.t.t.t.t.t.t.t.t.t.t.",
"t.t.t.t.t.t.t.t.t.t.t.v I t.t.t.t.K I i t.t.t.t.t.t.t.t.t.t.t.t.t.t.K I P K t.t.t.t.t.t.t.t.t.t.t.t.",
"t.t.t.t.t.t.t.t.t.t.t., C I P K I L p t.t.t.t.t.t.t.t.t.t.t.t.t.t.t.K I I t.t.t.t.t.t.t.t.t.t.t.t.t.",
"t.t.t.t.t.t.t.t.t.t.t.t.t.h m v p t.t.t.t.t.t.t.t.t.t.t.t.t.t.t.t.t.P I K t.t.t.t.t.t.t.t.t.t.t.t.t.",
"t.t.t.t.t.t.t.t.t.t.t.t.t.t.t.t.t.t.t.t.t.t.t.t.t.t.t.t.t.t.t.t.t.P I P t.t.t.t.t.t.t.t.t.t.t.t.t.t.",
"t.t.t.t.t.t.t.t.t.t.t.t.t.t.t.t.t.t.t.t.t.t.t.t.t.t.t.t.t.t.t.K I P t.t.t.t.t.t.t.t.t.t.t.t.t.t.t.t.",
"t.t.t.t.t.t.t.t.t.t.t.t.t.t.t.t.t.t.t.t.t.t.t.t.t.t.t.t.t.t.t.( P t.t.t.t.t.t.t.t.t.t.t.t.t.t.t.t.t.",
"t.t.t.t.t.t.t.t.t.t.t.t.t.t.t.t.t.t.t.t.t.t.t.t.t.t.t.t.t.t.K I t.t.t.t.t.t.t.t.t.t.t.t.t.t.t.t.t.t.",
"t.t.t.t.t.t.t.t.t.t.t.t.t.t.t.t.t.t.t.t.t.t.t.t.t.t.t.t.t.t.K ( G G P t.t.t.t.t.t.t.t.t.t.t.t.t.t.t.",
"t.t.t.t.t.t.t.t.t.t.t.t.t.t.t.t.t.t.t.t.t.t.t.t.t.t.t.t.t.t.t.K ( ( ( t.t.t.t.t.t.t.t.t.t.t.t.t.t.t.",
"t.t.t.t.t.t.t.t.t.t.t.t.t.t.t.t.t.t.t.t.t.t.t.t.t.t.t.t.t.t.t.t.t.I t.t.t.t.t.t.t.t.t.t.t.t.t.t.t.t.",
"t.t.t.t.t.t.t.t.t.t.t.t.t.t.t.t.t.t.t.t.t.t.t.t.t.t.t.t.t.t.t.t.t.t.t.t.t.t.t.t.t.t.t.t.t.t.t.t.t.t."
};
