/* XPM */
static char *result[] = {
/* columns rows colors chars-per-pixel */
"50 50 236 2 ",
"   c #0B361A",
".  c #362A11",
"X  c #3B2E13",
"o  c #362915",
"O  c #253A1D",
"+  c #3F3012",
"@  c #2F2610",
"#  c #3B3833",
"$  c #443413",
"%  c #4B3915",
"&  c #483616",
"*  c #523318",
"=  c #453B26",
"-  c #423E36",
";  c #114524",
":  c #0D582D",
">  c #16572C",
",  c #0D5E30",
"<  c #165129",
"1  c #3C4923",
"2  c #28592C",
"3  c #365829",
"4  c #2B5130",
"5  c #196734",
"6  c #236332",
"7  c #2B6C35",
"8  c #2D6533",
"9  c #3A6A34",
"0  c #2D7539",
"q  c #2A7336",
"w  c #31753A",
"e  c #357C3D",
"r  c #397B3C",
"t  c #25652D",
"y  c #6B4B1B",
"u  c #7D571B",
"i  c #784F1D",
"p  c #554F22",
"a  c #575427",
"s  c #4A4438",
"d  c #465629",
"f  c #624A23",
"g  c #714C22",
"h  c #785725",
"j  c #675535",
"k  c #765232",
"l  c #47672D",
"z  c #576A2B",
"x  c #446C33",
"c  c #47693A",
"v  c #477635",
"b  c #5A7A32",
"n  c #557833",
"m  c #586F2F",
"M  c #64622A",
"N  c #676A2E",
"B  c #706E2A",
"V  c #667834",
"C  c #6D6E33",
"Z  c #5B5B5B",
"A  c #525252",
"S  c #504C45",
"D  c #4A7645",
"F  c #577C48",
"G  c #6F6944",
"H  c #646464",
"J  c #6B6C6C",
"K  c #676869",
"L  c #737373",
"P  c #75726F",
"I  c #765F47",
"U  c #9B3F2D",
"Y  c #A33B24",
"T  c #A7311B",
"R  c #89511B",
"E  c #B6581B",
"W  c #B0541B",
"Q  c #9E631D",
"!  c #B27F1A",
"~  c #9A4A27",
"^  c #8D542E",
"/  c #A85527",
"(  c #AA5134",
")  c #916F2C",
"_  c #A77822",
"`  c #B97727",
"'  c #B27134",
"]  c #D3761A",
"[  c #C5792A",
"{  c #C47234",
"}  c #9A5F57",
"|  c #BD5A40",
" . c #94734B",
".. c #B46649",
"X. c #AE7259",
"o. c #AD744B",
"O. c #9F7E6D",
"+. c #AB7267",
"@. c #38813F",
"#. c #518238",
"$. c #6C8635",
"%. c #768833",
"&. c #7C832E",
"*. c #388240",
"=. c #668258",
"-. c #868A36",
";. c #8D9434",
":. c #979C38",
">. c #B98325",
",. c #9CA335",
"<. c #9EA539",
"1. c #9FA937",
"2. c #A2A937",
"3. c #A3A939",
"4. c #A1A738",
"5. c #C58B19",
"6. c #D99917",
"7. c #CF941C",
"8. c #DEA318",
"9. c #E8A519",
"0. c #FFBC1C",
"q. c #FBB91D",
"w. c #F0AF1E",
"e. c #C68D25",
"r. c #CC9529",
"t. c #D29526",
"y. c #DB9B26",
"u. c #D39A27",
"i. c #C99933",
"p. c #D49F32",
"a. c #D28838",
"s. c #E5992F",
"d. c #D9A724",
"f. c #D5A639",
"g. c #DDB12D",
"h. c #E5A82A",
"j. c #E9B526",
"k. c #F4BC22",
"l. c #F4BD2E",
"z. c #F6B622",
"x. c #EBB635",
"c. c #E6B43B",
"v. c #E9B63B",
"b. c #E7B335",
"n. c #E1AE35",
"m. c #FFC21E",
"M. c #FFC422",
"N. c #F8C32C",
"B. c #8D8C4C",
"V. c #BC8941",
"C. c #A6974D",
"Z. c #AE885B",
"A. c #B48B58",
"S. c #B08E53",
"D. c #AAA44E",
"F. c #989265",
"G. c #8A886D",
"H. c #A98866",
"J. c #B79369",
"K. c #BA9974",
"L. c #B28C6F",
"P. c #BAA46C",
"I. c #C79759",
"U. c #D2985A",
"Y. c #CE8D4B",
"T. c #D1A354",
"R. c #C79A68",
"E. c #D59A64",
"W. c #CC9F74",
"Q. c #DAA567",
"!. c #C9A576",
"~. c #D8AA79",
"^. c #CCB378",
"/. c #DBB37C",
"(. c #CDA766",
"). c #E3AB6B",
"_. c #E5AA66",
"`. c #E4AD75",
"'. c #E5B47B",
"]. c #ECB67B",
"[. c #F6B779",
"{. c #E7B06A",
"}. c #FFC17E",
"|. c #799480",
" X c #949394",
".X c #849886",
"XX c #A99383",
"oX c #BDA68A",
"OX c #A7A896",
"+X c #BBAFA1",
"@X c #ABAFA6",
"#X c #91A394",
"$X c #C29B82",
"%X c #C5A788",
"&X c #DBAD83",
"*X c #DCB383",
"=X c #D5B287",
"-X c #CEB59A",
";X c #E4BA8B",
":X c #EABD8C",
">X c #E5B885",
",X c #F5BE87",
"<X c #E9B990",
"1X c #CAB9A9",
"2X c #FDC286",
"3X c #FAC38B",
"4X c #F5C28E",
"5X c #EEC192",
"6X c #E6C098",
"7X c #F4C594",
"8X c #FDCA95",
"9X c #FECD99",
"0X c #F9C794",
"qX c #FFD29D",
"wX c #ECC18A",
"eX c #D6C9BA",
"rX c #D0C3B6",
"tX c #E5CCB5",
"yX c #EDCDAD",
"uX c #CACBCA",
"iX c #DBD3CB",
"pX c #D5D6D6",
"aX c #DECECA",
"sX c #E8D9C7",
"dX c #E2DCD5",
"fX c #F1E6DD",
"gX c #DBDEE1",
"hX c #EAEAEA",
"jX c #E6E6E7",
"kX c #F4ECE6",
"lX c #F3F1EE",
"zX c #F3F4F4",
"xX c #FEFFFF",
"cX c #FAF7F4",
"vX c #EEF1F1",
"bX c None",
/* pixels */
"bXbXbXbXbXbXbXbXbXbXbXbXbXbXbXbXbXbXbXbXbXbXbXbXbXbXbXbXbXbXR.R.bXbXbXbXbXbXbXbXbXbXbXbXbXbXbXbXbXbX",
"bXbXbXbXbXbXbXbXbXbXbXbXbXbXbXbXbXbXbXbXbXbXbXbXbXbXbXbXZ.~.qX3X~.8XK.bXbXbXbXbXbXbXbXbXbXbXbXbXbXbX",
"bXbXbXbXbXbXbXbXbXbXbXbXbXbXbXbXbXbXbXbXbXbXbXbXbXbXK.,X[.'.:X8X~.8X=XbXbXbXbXbXbXbXbXbXbXbXbXbXbXbX",
"bXbXbXbXbXbXbXbXbXbXbXbXbXbXbXbXbXbXbXbXbXbXbXbXbXbX!.;X>X3X7X9X7X9X;XbXbXbXbXbXbXbXbXbXbXbXbXbXbXbX",
"bXbXbXbXbXbXbXbXbXbXbXbXH.bXbXbXbXbXbXbXbXbXbXbXbXbXbX*X8X9X9X9XqX9XK.bXbXbXbXbXbXbXbXbXbXbXbXbXbXbX",
"bXbXbXbXbXbXH.:X0X>X~.5X8X&XC bXbXbXbXbXbXbXbXbXbXbXJ.9X9X9X9XqX=XbXbXbXbXbXbXbXbXbXbXbXbXbXbXbXbXbX",
"bXbXbXL.9X8X:X'.4XqXqX~.C.D.<.3.-.r e @.e *.e e 7 3 !.qX9XqX7XK.bXbXbXbXbXbXbXbXbXbXbXbXbXbXbXbXbXbX",
"bXbXbX!.P.;X9X0X!.^.^.D.,.1.1.1.,.v w @.r e e r r 8 Z.8X9X/.B.bXbXbXbXbXbXbXbXbXbXbXbXbXbXbXbXbXbXbX",
"bXbXbX9 7 c D.D.<.,.,.<.3.3.4.1.4.x 6 e e e e e w F.7X7XP.:.1.:.N bXbXbXbXbXbXbXbXbXbXbXbXbXbXbXbXbX",
"bXbX4 0 2 z -.&.%.$.V b n n n n m d m b n #.v 8 =.3X9XB.b 2.1.1.<.M bXbXbXbXbXbXbXbXbXbXbXbXbXbXbXbX",
"bXbXc b l 3 8 w 0 0 w e 0 e e w 5 l <.4.1.1.,.C.2XqX*X$.b %.;.1.3.;.bXbXbXbXbXbXbXbXbXbXbXbXbXbXbXbX",
"bXbX<.3.b 6 0 q 5 5 5 5 5 5 5 6 > a :.1.2.2.:.;XqX9XP.,.,.9 w v #.%.bXbXbXbXbXbXbXbXbXbXbXbXbXbXbXbX",
"bXbX-.-.d ; > > > 5 5 6 6 6 6 6 2 3 l n V %.!.qXqX8XC.2.2.v w @.e e 4 bXbXbXbXbXbXbXbXbXbXbXbXbXbXbX",
"bX; 2 > : , , , 5 7 9 8 9 x x x v F F c x G [.8XqX!.n $.&.l q w e r bXbXbXbXbXbXbXbXbXbXbXbXbXbXbXbX",
"; 5 , , 9 d d p f y g ) h i R y * L.:X2X{.E.2X8X=Xv q 0 7 l %.%.$.x bXbXbXbXbXbXbXbXbXbXbXbXbXbXbXbX",
"bXbX  G '.j * g y ^ !.7X/. .A.J. .I I Z.[.E.[.8XF.q w e e v :.2.3.;.bXbXbXbXbXbXbXbXbXbXbXbXbXbXbXbX",
"bXbXbXa (.J.'.J.g J.qX9X8X9X7XoX%X-X*X>X[.E.{.8X5Xv q e e w %.3.<.3.z bXbXbXbXbXbXbXbXbXbXbXbXbXbXbX",
"bXbXbX; I.'.K.+X+X=XqX9X9X9XoXgXzXuXOXoX`.[.E.,XqX!.7 7 0 w v ,.1.1.,.bXbXbXbXbXbXbXbXbXbXbXbXbXbXbX",
"bXbXbX  G J.uXhX@X+X0X9X9X8X<XzXxX XL zXrX[.).Q.7X9XF.|.#XD q %.2.1.<.%.bXbXbXbXbXbXbXbXbXbXbXbXbXbX",
"bXbXbX; 1 K.xXjX XuX5X9X9X9X0XeXxXxXxXxXdX,X[.J.Q.,X:XeXjXuXn m x x v #.2 bXbXbXbXbXbXbXbXbXbXbXbXbX",
"bXbXbXO O A.sXlXxXtX7X9X9X9X9X7XtXsXsXtX7X,X-XuXoX=XsXlXxXxXOXV 4 7 e e r bXbXbXbXbXbXbXbXbXbXbXbXbX",
"bXbXbXN 1 I.).*X<X0X9X9X9X9X9X9X9X,X7X8X8X,X-XpXgXjXxXxXxXjXU.) l w e e r 2 bXbXbXbXbXbXbXbXbXbXbXbX",
"bXbXp N a T.).'.4X:X:X9X9X9X8X9X9X9X8X9X9X0X4XoXgXhXzXkX<Xs.] R c 7 e r @.2 bXbXbXbXbXbXbXbXbXbXbXbX",
"bXbXa M  ._.).'.>X7X;X5X:X;X7X9X9X9X9X5X&X<X7XA.=.L.X.{ ] ` V.rX=.t e r r 4 bXbXbXbXbXbXbXbXbXbXbXbX",
"bXbXM N ) Q.Q.{.'.*X0X7X0X9X9X9X9X9X5X;X7XqX9X].B.B g ) L.rXhXxXpX8 q *.c bXbXbXbXbXbXbXbXbXbXbXbXbX",
"bXbXp B M j S._._.Q./.:X7X7X0X7X:X;X:X9X8X9X9X8X].C.N O.uXxXxXxXzX.X@XhXpXbXbXbXbXbXbXbXbXbXbXbXbXbX",
"bXbXbXa M a 1 N Z.U.{.].4X7X;X*X;X9X9X9X9X9XqX7X~.bXbXk ~ O.pXxXxXxXxXxXxXeXk bXbXbXbXbXbXbXbXbXbXbX",
"bXbXbXbXbXbXbXO O a S.U.{.3X8X8X9X9X9XqXqX:X%XbXbXbXbXbX} U } 1XzXlXiX-XA.' [ { XXbXbXbXbXbXbXbXbXbX",
"bXbXbXbXbXbXbXbXbXbXbXbXbXA.E.].,X3X:X~.L.bXbXbXbXbXbXbXL ( ~ / ..o.e.[ a.`.yXcXxXuXj bXbXbXbXbXbXbX",
"bXbXbXbXbXbXbXbXbXbXbXbXbXbXbXbXbXbXbXbXbXbXbXbXbXbXbXbXbX} ( U X.( Y.sXlXhXdXrXK.' E ~ bXbXbXbXbXbX",
"bXbXbXbXbXbXbXbXbXbXbXbXbXbXbXbXbXbXbXbXbXbXbXbXbXbXbXbXbXO.XXY +.} / ..S.' ` [ Y.Q.yXfXiXbXbXbXbXbX",
"bXbXbXbXbXbXbXbXbXbXbXbXbXbXbXbXbXbXbXbXbXbXbXbXbXbXbXbXbX* ~ U T ~ X.| W ~.tXfXxXxXxXzXaXO.bXbXbXbX",
"bXbXbXbXbXbXbXbXbXbXbXbXbXbXbXbXbXbXbXbXbXbXbXbXbXbXbXbX` e.f.f.r.Y.^.rXX.( aXfXeX-XR.' W E { bXbXbX",
"bXbXbXbXbXbXbXbXbXbXbXbXbXbXbXbXbXbXbXbXbXbXbXbXbXbX_ d.x.v.c.v.c.c.n.g.T.` / ' ` [ a.T.'.tXkXvX XbX",
"bXbXbXbXbXbXbXbXbXbXbXbXbXbXbXbXbXbXbXbXbXbXbXbXbX>.h.c.c.c.c.c.c.c.b.c.v.c.f.>.tXkXlXcXvXjXdXaX1XbX",
"bXbXbXbXbXbXbXbXbXbXbXbXbXbXbXbXbXbXbXbXbXbXbXbXe.h.c.c.c.v.c.c.c.c.c.c.c.c.c.b.(.%XJ.o.' W W W E R ",
"bXbXbXbXbXbXbXbXbXbXbXbXbXbXbXbXbXbXbXbXbXbXR 7.h.c.c.c.c.c.c.c.c.c.c.c.c.c.b.x.j.u.[ Y.Y.E.`.&X<X$X",
"bXbXbXbXbXbXbXbXbXbXbXbXbXbXbXbXbXbXbXbXbXu t.h.h.v.c.c.c.c.c.c.c.c.c.b.N.N.N.M.M.N.j.g.N.N.l.l.l.u.",
"bXbXbXbXbXbXbXbXbXbXbXbXbXbXbXbXbXbXbXbXbXr.t.e.f.c.c.c.c.c.c.c.c.c.l.k.k.m.m.M.M.M.M.j.k.M.M.M.m.6.",
"bXbXbXbXbXbXbXbXbXbXbXbXbXbXbXbXbXbXbXbXbX>.h.y.t.r.f.c.c.c.c.c.c.x.m.d.d.k.M.M.M.M.M.N.d.M.M.M.m.6.",
"bXbXbXbXbXbXbXbXbXbXbXbXbXbXbXbXbXbXbXbXbXbXQ u.6.I./.T.f.c.v.v.b.N.k.d.M.M.M.M.M.M.M.M.j.j.M.M.m.6.",
"bXbXbXbXbXbXbXbXbXbXbXbX+ $ $ + o @ bXbXbXbXu e.>.~.wX:XI.i.n.v.x.m.d.M.M.M.M.M.M.M.M.M.M.M.M.M.0.6.",
"bXbXbXbXbXbXbXbXbXbXX & $ % $ & % % $ . bX_ h.h.V.'.>X/.i.d.r.f.x.d.m.M.M.M.M.M.M.M.M.M.M.M.M.0.0.5.",
"bXbXbXbXbXbXbXbXbX. & = s s s = $ $ & % $ ) ! _ T.>X:XR.e.y.u.r.d.d.N.M.M.M.M.M.M.M.M.M.M.M.0.q.7.bX",
"bXbXbXbXbXbXbXbXbX- H K J J P K Z S = $ % $ X $ k W.wX' Q e.t.u.d.m.j.d.w.0.M.m.m.m.M.M.m.0.9.>.bXbX",
"bXbXbXbXbXbXbXbXbXA L J J Z - H J J H s X $ $ $ % p  .h R u.q.0.m.m.m.m.w.5.5.8.9.w.9.9.6.bXbXbXbXbX",
"bXbXbXbXbXbXbXbXbXbXZ L L K s # J J J K S o $ $ $ % . @ _ b.m.m.m.m.q.6.bXbXbXbXbXbXbXbXbXbXbXbXbXbX",
"bXbXbXbXbXbXbXbXbXbXbXA H J L H J P J K K S X & % % & X M N.m.m.0.9.! bXbXbXbXbXbXbXbXbXbXbXbXbXbXbX",
"bXbXbXbXbXbXbXbXbXbXbXbXbXbXZ H H K K H Z Z - + & & % ) f.N.m.m.9.bXbXbXbXbXbXbXbXbXbXbXbXbXbXbXbXbX",
"bXbXbXbXbXbXbXbXbXbXbXbXbXbXbXbX# A Z Z Z Z A o + X y f.i.d.8.6.bXbXbXbXbXbXbXbXbXbXbXbXbXbXbXbXbXbX"
};
