/* XPM */
static char *result[] = {
/* columns rows colors chars-per-pixel */
"50 50 202 2 ",
"   c #161A1B",
".  c #262F38",
"X  c #313235",
"o  c #593017",
"O  c #4C3B30",
"+  c #5D4636",
"@  c #66452D",
"#  c #6D4A35",
"$  c #764D34",
"%  c #17365D",
"&  c #22364D",
"*  c #1D3D65",
"=  c #1F4574",
"-  c #29446A",
";  c #3B597C",
":  c #514F4F",
">  c #6B544A",
",  c #655458",
"<  c #4C576B",
"1  c #485B70",
"2  c #566477",
"3  c #686A6F",
"4  c #73757A",
"5  c #BD5F1C",
"6  c #BF611C",
"7  c #88522C",
"8  c #985729",
"9  c #955B37",
"0  c #AB5B23",
"q  c #BC6728",
"w  c #A16033",
"e  c #BB703A",
"r  c #C45D15",
"t  c #C2611B",
"y  c #CD661F",
"u  c #D26219",
"i  c #D46A1E",
"p  c #E66F18",
"a  c #E5721E",
"s  c #EB741D",
"d  c #F4771C",
"f  c #C26421",
"g  c #CD6B23",
"h  c #D46B21",
"j  c #CE702F",
"k  c #DD7021",
"l  c #D8732A",
"z  c #CB783B",
"x  c #D87933",
"c  c #E67320",
"v  c #ED7824",
"b  c #F77C21",
"n  c #8E6140",
"m  c #996A48",
"M  c #B07951",
"N  c #B2835F",
"B  c #B18F74",
"V  c #D48348",
"C  c #D38C59",
"Z  c #D1956A",
"A  c #D2A17D",
"S  c #E4A87D",
"D  c #1B569B",
"F  c #2B578C",
"G  c #365D8A",
"H  c #265997",
"J  c #2B5B94",
"K  c #235B9A",
"L  c #315D92",
"P  c #3D618E",
"I  c #366194",
"U  c #386396",
"Y  c #1B5AA4",
"T  c #1B5DAC",
"R  c #245EA4",
"E  c #1C62B6",
"W  c #1C65BC",
"Q  c #2A61A5",
"!  c #2361AD",
"~  c #3668A5",
"^  c #3D7FA1",
"/  c #2365B4",
"(  c #2768B6",
")  c #476588",
"_  c #566B86",
"`  c #497288",
"'  c #56718D",
"]  c #5D758B",
"[  c #4B6E95",
"{  c #4A7898",
"}  c #597899",
"|  c #677688",
" . c #757D87",
".. c #677C96",
"X. c #4373AD",
"o. c #5779A4",
"O. c #627FA4",
"+. c #1C67C0",
"@. c #1D69C4",
"#. c #1E6ECE",
"$. c #276EC3",
"%. c #3D83A9",
"&. c #7C8389",
"*. c #6B839A",
"=. c #7C8897",
"-. c #77919E",
";. c #4888AA",
":. c #4394BB",
">. c #5797B7",
",. c #6B89A4",
"<. c #748BA4",
"1. c #718CAC",
"2. c #6493AA",
"3. c #7B94A8",
"4. c #6299B7",
"5. c #7A93B0",
"6. c #6EA4BD",
"7. c #78A4BA",
"8. c #3996C3",
"9. c #55A4CB",
"0. c #6EADCB",
"q. c #76B2CE",
"w. c #7CB2CC",
"e. c #868889",
"r. c #8F9297",
"t. c #939393",
"y. c #9D9D9D",
"u. c #B59F8C",
"i. c #A39E9B",
"p. c #B3A291",
"a. c #8697A7",
"s. c #8A97A8",
"d. c #899AAA",
"f. c #899DB5",
"g. c #8BA1AC",
"h. c #92A4AC",
"j. c #85A7B7",
"k. c #97AAB7",
"l. c #A2A2A1",
"z. c #A9A8A5",
"x. c #ACABAB",
"c. c #B9B3AC",
"v. c #A8ADB4",
"b. c #A4B4BE",
"n. c #ACB1B8",
"m. c #B2B2B2",
"M. c #B6B8B9",
"N. c #BDBCBB",
"B. c #D5B198",
"V. c #BEC1BD",
"C. c #DDC6B5",
"Z. c #E1C5B1",
"A. c #83B2C8",
"S. c #95B7CA",
"D. c #87BCD6",
"F. c #AABAC2",
"G. c #BABDC2",
"H. c #96C4DA",
"J. c #ACC1CB",
"K. c #BBC4C8",
"L. c #A8C6D6",
"P. c #B5CAD3",
"I. c #BBCED5",
"U. c #B5D0DE",
"Y. c #BDD2DB",
"T. c #B8D9E8",
"R. c #C5C4C3",
"E. c #C3CBCD",
"W. c #CCCCCC",
"Q. c #D3CCC7",
"!. c #DBD3CF",
"~. c #C2CDD1",
"^. c #C7D3D6",
"/. c #C1D5DD",
"(. c #D5D3D4",
"). c #D5D6D8",
"_. c #DDDCDC",
"`. c #E6D8CD",
"'. c #F3E2D4",
"]. c #C4DAE3",
"[. c #C9DDE6",
"{. c #D1DBE0",
"}. c #CBE2EB",
"|. c #DAE4E9",
" X c #CDE8F3",
".X c #D1E7F1",
"XX c #D5EDF6",
"oX c #D5EEF8",
"OX c #D6F1FC",
"+X c #DAF4FD",
"@X c #DFF9FF",
"#X c #E4E3E3",
"$X c #E8E8E8",
"%X c #ECEBEB",
"&X c #F4F1EF",
"*X c #F1EFF0",
"=X c #EEF2F4",
"-X c #E1F1FC",
";X c #E1FBFF",
":X c #F4F3F3",
">X c #F8F7F7",
",X c #FFFEFE",
/* pixels */
"#.#.#.#.#.#.#.#.#.#.#.#.#.#.#.#.#.#.#.#.#.#.#.#.#.#.#.#.#.#.#.#.#.#.#.#.#.#.#.#.#.#.#.#.#.#.#.#.#.#.",
"#.#.#.#.#.#.#.#.#.#.#.#.#.#.#.#.#.#.#.#.#.#.#.#.#.#.#.#.#.#.#.#.#.#.#.#.#.#.#.#.#.#.#.#.#.#.#.#.#.#.",
"#.#.#.#.#.#.#.#.#.#.#.#.#.#.#.#.#.#.#.#.#.#.#.#.#.#.#.#.#.#.#.#.#.#.#.#.#.#.#.#.#.#.#.#.#.#.#.#.#.#.",
"#.#.#.#.#.#.#.#.#.#.#.#.#.#.#.#.#.#.#.#.#.#.#.#.#.#.#.#.#.#.#.#.#.#.#.#.#.#.#.#.#.#.#.#.#.#.#.#.#.#.",
"#.#.#.#.#.#.#.#.#.#.#.#.#.#.#.#.#.#.#.#.#.#.@.Y J U 1 ) I K T #.#.#.#.#.#.#.#.#.#.#.#.#.#.#.#.#.#.#.",
"#.#.#.#.#.#.#.#.#.#.#.#.#.#.#.#.#.#.#.#.+.J *.F.]. XXXXX}.P.k.} J W #.#.#.#.#.#.#.#.#.#.#.#.#.#.#.#.",
"#.#.#.#.#.#.#.#.#.#.#.#.#.#.#.#.#.#.#.D ../.@X@X+XXXXXXXoX+X;X@XY.*.H #.#.#.#.#.#.#.#.#.#.#.#.#.#.#.",
"#.#.#.#.#.#.#.#.#.#.#.#.#.#.#.#.#.#.H g.@X+XOX+XXXXXXXXXXXXXXXXXOX@Xb.G #.#.#.#.#.#.#.#.#.#.#.#.#.#.",
"#.#.#.#.#.#.#.#.#.#.#.#.#.#.#.#.#.D h.@XOX@X/.I..X+XXXXXXXXXXXXXXXXX@XY.P @.#.#.#.#.#.#.#.#.#.#.#.#.",
"#.#.#.#.#.#.#.#.#.#.#.#.#.#.#.#.E *.@XOXOXc.f 6 N }.+X+X+XXX+XXXXXXXXX@XI.G #.#.#.#.#.#.#.#.#.#.#.#.",
"#.#.#.#.#.#.#.#.#.#.#.#.#.#.#.#.I }.OXOXI.6 A C.y u.U.P./.].I..XXXXXXXXX;Xk.K #.#.#.#.#.#.#.#.#.#.#.",
"#.#.#.#.#.#.#.#.#.#.#.#.#.#.#.+.-.@XXX@Xc.6 V.|.z i + + + m z B }.+XXXXXXX+X' #.#.#.#.#.#.#.#.#.#.#.",
"#.#.#.#.#.#.#.#.#.#.#.#.#.#.#.D Y.@XXX+X^.e e e a b 7 7 + y d 0 h.+XOX+XXX;Xb.T #.#.#.#.#.#.#.#.#.#.",
"#.#.#.#.#.#.#.#.#.#.#.#.#.#.#.[ XXXXXXXXXXN s s a s g g f k $ + + h.^.I.XX+X[.J #.#.#.#.#.#.#.#.#.#.",
"#.#.#.#.#.#.#.#.#.#.#.#.#.#.#.*.@XXXXXXX&.w v c a s v s d g 8 8 @ 8 g t B oX+X{ #.#.#.#.#.#.#.#.#.#.",
"#.#.#.#.#.#.#.#.#.#.#.#.#.#.#.3.@XXXOXz.9 # g s v f k a a s d q g s Z B.q M.@X] #.#.#.#.#.#.#.#.#.#.",
"#.#.#.#.#.#.#.#.#.#.#.#.#.#.@.3.@XOX~.> 8 a a s i o u a a h k v d i Q.-Xz u.@X| #.#.#.#.#.#.#.#.#.#.",
"#.#.#.#.#.#.#.#.#.#.#.#.#.#.#.1.@XOXu.6 t i l x j r u u i o t v a a M N t V.;X{ #.#.#.#.#.#.#.#.#.#.",
"#.#.#.#.#.#.#.#.#.#.#.#.#.#.#.} @XOXP.z S `.$X%X$X'.Z.C i r a a a v a q p.OX}.U #.#.#.#.#.#.#.#.#.#.",
"#.#.#.#.#.#.#.#.#.#.#.#.#.#.#.L }.+XK.!.,X,X,X,X>Xv.(.:XC.V p c s g m J.+X@Xb.Y #.#.#.#.#.#.#.#.#.#.",
"#.#.#.#.#.#.#.#.#.#.#.#.#.#.#.E 3.;XY.E.>X,X,X,X:X: X R.,X$XV s a 7 :  X+X;X' #.#.#.#.#.#.#.#.#.#.#.",
"#.#.#.#.#.#.#.#.#.#.#.#.#.#.+.#.J P.@X~.,X,X,X,X,XW.N.>X,X,X`.l p i M  X;Xb.D #.#.#.#.#.#.#.#.#.#.#.",
"#.#.#.#.#.#.#.#.#.#.X.o.+./ v.X.#.U Y.~.(.>X,X>X#X(.,X,X,X,X,XA t O e.;X.X) #.#.#.#.#.#.#.#.#.#.#.#.",
"#.#.#.#.#.#.#.#.#.#.a.,X<.d.,Xo.#.Y %.4.2.g.E._.!.(.:X,X,X,X,XZ.5 n ].XX] E #.#.#.#.#.#.#.#.#.#.#.#.",
"#.#.#.#.#.#.#.#.#.! ; n.,X,X=X;.1.k.H.q.9.8.%.:.7.F.#X,X,X=X:XW.z.^.XX] T #.#.#.#.#.#.#.#.#.#.#.#.#.",
"#.#.#.~ R #.#.#.W G._.N.,X,XS.0.,X,X,X,X>X|.T.D.%.8.:.k.C.P.M.}.;XI.) E #.#.#.#.#.#.#.#.#.#.#.#.#.#.",
"#.#.G $XE.Q #.#.@.O.r._.,X,X0.H.,X,X,X,X,X,X,X_.z.].q.8.%.A.}.Y.3.J #.#.#.#.#.#.#.#.#.#.#.#.#.#.#.#.",
"#.#.L %X,Xv.E #.#.R v.$X,X,X5.A.,X,X,X,X,X,X,Xx.).,X>X{.q.%.{ F @.#.#.#.#.#.#.#.#.#.#.#.#.#.#.#.#.#.",
"#.#.#.5.&XZ $ E #.! k.s.<.a.[ J 3.].L.L.L.Y.^.l.,X,X,X,X,X[.{ @.$.<.~ #.#.#.#.#.#.#.#.#.#.#.#.#.#.#.",
"#.#.#.+.4 c b # D @.+.@.#.#.#.#.T 6.w.w.0.9.%.>.L.:X,X,X,X,X$X*.[ ,X1.#.#.#.#.#.#.#.#.#.#.#.#.#.#.#.",
"#.#.#.#.+., h $ . X , < = - > : % t.,X,X>X*X[.D.9.>.U.>X,X,X,XS.5.,Xv.~ O.X.#.#.#.#.#.#.#.#.#.#.#.#.",
"#.#.#.#.#.#.H - & O 5 8 & O 9 $   4 ,X,X,X,X,X,X=XL.>.S.=X,X=X^ F.,X,X#X*X<.#.#.#.#.#.#.#.#.#.#.#.#.",
"#.#.#.#.#.#.#.#.#.E F G J +.#.+._ =X,X,X,X,X,X,X,X,X%Xw.) ..` >.,X,X,XN.2 R #.#.#.#.#.#.#.#.#.#.#.#.",
"#.#.#.#.#.#.#.#.W f.$X:X#Xa.Y Y j.|.,X,X,X,X,X,X,X,X>Xf.E #.D =.%X,X).N.(.Q #.#.#.#.#.#.#.#.#.#.#.#.",
"#.#.#.#.#.#.#./ | _.>X,X,XT.^ e.h.2.P.,Xm.F.).:X,X=XK.E #.#.#.E [ #Xn.L o./ #.#.#.#.#.#.#.#.#.#.#.#.",
"#.#.#.#.#.#.#.R e.l.N._.,X].D.4.N.R.2.J...W L d.j.j.,.! #.#.#.#.+.=.b.@.#.#.#.#.#.#.#.#.#.#.#.#.#.#.",
"#.#.#.#.#.#.#.@._ t.t.z.W.=X|.H.W.R.R.` K #.K <.K.C.M.P T T W #.#.W E #.#.#.#.#.#.#.#.#.#.#.#.#.#.#.",
"#.#.#.#.#.#.#.#.W _ y.t.y.N.%X,X,XR.m.; #.#.J i.m.>.k.j.>.W.G.<.R #.#.#.#.#.#.#.#.#.#.#.#.#.#.#.#.#.",
"#.#.#.#.#.#.#.#.#.+.) t.y.t.m.#X,X$X4 / #.#.) (.=XD. XT.T.,X,X,XG.! #.#.#.#.#.#.#.#.#.#.#.#.#.#.#.#.",
"#.#.#.#.#.#.#.#.#.#.#.L &.y.t.m.$X(.; #.#.+.=.,X,X:X=X%X%X%X%X>X,X5.#.#.#.#.#.#.#.#.#.#.#.#.#.#.#.#.",
"#.#.#.#.#.#.#.#.#.#.#.#.! _ e.y.v.| ( #.#.W e.(.R.M.x.x.z.z.z.m.R.h.#.#.#.#.#.#.#.#.#.#.#.#.#.#.#.#.",
"#.#.#.#.#.#.#.#.#.#.#.#.#.#.Q ] 1 T #.#.#.E 3 y.t.t.t.t.t.t.t.t.y. .@.#.#.#.#.#.#.#.#.#.#.#.#.#.#.#.",
"#.#.#.#.#.#.#.#.#.#.#.#.#.#.#.#.@.#.#.#.#.+.< t.l.i.i.y.y.l.l.l.y._ #.#.#.#.#.#.#.#.#.#.#.#.#.#.#.#.",
"#.#.#.#.#.#.#.#.#.#.#.#.#.#.#.#.#.#.#.#.#.#./ G |  .e.e.e.e. .| P / #.#.#.#.#.#.#.#.#.#.#.#.#.#.#.#.",
"#.#.#.#.#.#.#.#.#.#.#.#.#.#.#.#.#.#.#.#.#.#.#.#.@.E R * = ! / @.#.#.#.#.#.#.#.#.#.#.#.#.#.#.#.#.#.#.",
"#.#.#.#.#.#.#.#.#.#.#.#.#.#.#.#.#.#.#.#.#.#.#.#.#.#.#.#.#.#.#.#.#.#.#.#.#.#.#.#.#.#.#.#.#.#.#.#.#.#.",
"#.#.#.#.#.#.#.#.#.#.#.#.#.#.#.#.#.#.#.#.#.#.#.#.#.#.#.#.#.#.#.#.#.#.#.#.#.#.#.#.#.#.#.#.#.#.#.#.#.#.",
"#.#.#.#.#.#.#.#.#.#.#.#.#.#.#.#.#.#.#.#.#.#.#.#.#.#.#.#.#.#.#.#.#.#.#.#.#.#.#.#.#.#.#.#.#.#.#.#.#.#.",
"#.#.#.#.#.#.#.#.#.#.#.#.#.#.#.#.#.#.#.#.#.#.#.#.#.#.#.#.#.#.#.#.#.#.#.#.#.#.#.#.#.#.#.#.#.#.#.#.#.#.",
"#.#.#.#.#.#.#.#.#.#.#.#.#.#.#.#.#.#.#.#.#.#.#.#.#.#.#.#.#.#.#.#.#.#.#.#.#.#.#.#.#.#.#.#.#.#.#.#.#.#."
};
