/* XPM */
static char *dummy[]={
"50 50 849 2",
"Qt c None",
"#o c #000000",
"aI c #1b0e08",
"lk c #25310a",
"ar c #1c2106",
"fr c #000000",
"kj c #030001",
"hX c #212b09",
"hW c #212e09",
"jW c #222c08",
"jf c #242e08",
"k8 c #242f09",
"kH c #263308",
"kV c #2b3c0a",
"kZ c #1b2106",
"le c #1d2508",
".e c #1e2707",
"hI c #212c09",
"cM c #242e09",
"k5 c #263308",
"#C c #161902",
"ko c #171d04",
"kM c #263209",
"kf c #212c08",
".L c #243108",
".s c #263509",
".B c #283809",
"i# c #232f08",
"hy c #27350a",
".Q c #000000",
".1 c #0a0f00",
"ac c #1e2404",
"kI c #273509",
"j8 c #222c08",
"j9 c #253209",
"lo c #2a390a",
"k3 c #2a3a0a",
"ke c #232c08",
"#c c #2a3a0a",
"#b c #1b2105",
"bO c #2a3a0a",
"#J c #010700",
".b c #243108",
"li c #2a3a0a",
".R c #091201",
"kn c #243109",
"ks c #232e08",
"kB c #243008",
"kL c #28370a",
".X c #2a3a0a",
"aq c #111903",
"iZ c #2a3a0a",
"#Z c #0b1301",
"#R c #0e0f00",
"eB c #2a3a0a",
"#v c #161b03",
"#K c #111603",
"eD c #212c07",
"ir c #273509",
"k9 c #263309",
"i. c #273409",
"j5 c #161d05",
"fm c #243007",
"kP c #26340a",
"is c #273609",
"bw c #293a0a",
"eC c #29380a",
"dE c #263409",
"gj c #28370a",
"jg c #2a3a0a",
".k c #131e04",
"bX c #243109",
"kt c #273509",
".w c #111a03",
".f c #2a3a0a",
"bn c #1b2605",
"ln c #283709",
"ab c #1c2505",
".l c #2a3a0a",
".F c #152004",
"g2 c #28370a",
"fq c #1b2505",
"aR c #253108",
"#w c #283709",
"ki c #28360a",
"#Y c #243007",
"aP c #29390a",
"fp c #141e04",
"kw c #283609",
"kv c #283609",
"hH c #28370a",
"kE c #283609",
"gH c #28350a",
"fn c #1a2505",
"aA c #212a06",
"jz c #27360a",
"hV c #29380a",
"#D c #152004",
"iK c #28370a",
"k2 c #28370a",
"jX c #27360a",
"lh c #28360a",
"fs c #273609",
".v c #243208",
"cj c #253409",
"kW c #29380a",
"k4 c #2a3a0a",
"cg c #243008",
"bY c #1e2b06",
"h9 c #29370a",
"ia c #28370a",
".7 c #182405",
"bN c #222d07",
"aZ c #212c06",
"bm c #222d07",
"aj c #233108",
"g1 c #28360a",
"#h c #202d07",
"az c #212c07",
"iY c #28370a",
".r c #1c2906",
"aQ c #29390a",
"kz c #27360a",
"la c #28370a",
"jO c #29390a",
".h c #1e2a07",
"fo c #1c2806",
"#n c #1d2a06",
"kT c #2a390a",
"el c #283709",
"ky c #28370a",
".n c #273609",
"#i c #253408",
"lb c #2a3a0a",
"kc c #232f08",
"hx c #28380a",
"iq c #29390a",
"jA c #293a0a",
".g c #2a3a0a",
"hj c #28370a",
"kC c #28370a",
"#5 c #1e2c06",
"aO c #1e2d07",
"bv c #273509",
"de c #283709",
"hk c #29380a",
"eU c #263408",
"eV c #283609",
"eW c #2a3a0a",
".0 c #273609",
"k. c #29380a",
"#6 c #222f08",
".a c #29390a",
"#S c #2a3a0a",
"a8 c #273709",
"h8 c #28370a",
"ci c #29390a",
"iJ c #29380a",
"kb c #28370a",
"hY c #29380a",
"f1 c #202d07",
"cs c #223008",
"bC c #192505",
"aH c #253308",
"gI c #2a3a0a",
"jN c #29390a",
".2 c #33450c",
"eT c #263509",
"bf c #29380a",
"#B c #223008",
"a7 c #273609",
".A c #243408",
"cJ c #253208",
".# c #29390a",
"ld c #2a3a0a",
".G c #233308",
"eX c #2a3a0a",
".6 c #253409",
"i0 c #2a3a0a",
"hJ c #2a390a",
"hU c #2a3a0a",
"cL c #31420c",
"j6 c #28370a",
"eZ c #2a3a0a",
"a0 c #283709",
"ch c #273709",
"aJ c #27390a",
"it c #2a3a0a",
"by c #263509",
"bd c #2b3a0a",
"kG c #2a3a0a",
"ll c #2b3b0a",
"f0 c #233308",
"dd c #2c3d0b",
"cr c #2b3b0a",
".o c #28390a",
".M c #2c3d0b",
"bP c #263509",
"hz c #2a390a",
"iL c #2b3b0a",
"kg c #2b3a0a",
"#p c #2c3d0b",
"eO c #273709",
"k7 c #2b3c0a",
".Y c #2a3a0a",
".W c #2b3f0b",
".K c #27390a",
"d5 c #2b3b0a",
"ip c #2b3b0a",
"fT c #2a390a",
"ad c #31450d",
"jU c #1f2b08",
"eS c #29390a",
"eP c #2a3c0a",
"eQ c #2a3e0b",
"eR c #2c3e0b",
"bx c #2d3d0b",
"lj c #2a3a0a",
"jV c #2b3c0a",
"hG c #2b3b0a",
"cN c #29390a",
"kU c #2a3a0a",
"#d c #29390a",
"lm c #2a3a0a",
"#X c #273809",
"k6 c #2a3b0a",
"kp c #2a3a0a",
"kN c #2b3c0a",
"ak c #33480d",
"as c #2a3c0a",
"gk c #29390a",
".d c #2d3e0b",
"jY c #2c3c0a",
"#g c #34470d",
"bc c #3a4f0f",
"e0 c #283809",
"eA c #2c3d0a",
"kJ c #2b3b0a",
"d4 c #2b3c0a",
"ek c #2c3e0b",
"fS c #2a3a0a",
"lf c #2c3f0a",
".P c #33450c",
"dD c #293a0a",
".C c #273609",
"fZ c #2d410c",
"be c #2b3b0a",
"kY c #2d3f0b",
"#a c #2f450c",
".Z c #2c3d0b",
"hT c #2c3d0a",
"#I c #3b4e0e",
"ib c #2c3e0a",
"kk c #2e400b",
"j7 c #2d400b",
"cV c #293809",
"km c #2c3d0b",
"i1 c #2b3b0a",
"gi c #2d3e0b",
"ap c #3c500f",
"kS c #2b3c0a",
".S c #3c510f",
".t c #2b3b0a",
".c c #2c3e0b",
"#0 c #476113",
"bD c #4c6514",
"eN c #283709",
"lg c #2d400b",
"kd c #2f430b",
"j1 c #283809",
"j0 c #2b3c0a",
"kA c #2f410b",
"kr c #2f420b",
".E c #415610",
"h7 c #2d3e0b",
"l. c #2f420b",
"hS c #2e400b",
"kO c #2f420b",
"f2 c #273709",
"fU c #31470d",
"#Q c #395210",
"gG c #2d3f0b",
"ai c #2e410b",
"kK c #2b3c0b",
"hw c #2c3e0a",
"eE c #2f420b",
"#L c #3d5811",
"k# c #2c3d0a",
"dF c #2e400b",
"j4 c #2e410b",
"#u c #344b0e",
"k1 c #2d3e0b",
"g3 c #2e400b",
"jh c #29390a",
"jB c #2b3c0a",
"eY c #2e400b",
"jP c #2e410b",
".m c #2a3a0a",
"#x c #2c3d0b",
"aa c #3b5610",
".x c #4c6414",
"bo c #3d520f",
".j c #4f6714",
"bF c #293a0a",
"l# c #2e3f0b",
".u c #34470d",
"bW c #2e400b",
"hZ c #2f410b",
"iM c #2f420b",
"aS c #30460c",
"db c #31420c",
"aB c #3d5a12",
"g0 c #2f410b",
"b7 c #2e3f0b",
"aG c #384f0f",
"fY c #3e5711",
"kh c #2e420b",
"#E c #5d7a19",
"hF c #2f420b",
"jy c #30430b",
"cU c #32470c",
"cK c #3a4e0f",
"#A c #3f5911",
"kx c #2f420b",
"iI c #30440b",
"bz c #39530f",
"bE c #4f6615",
"jT c #2c3d0a",
"io c #2c3f0b",
"kX c #2e420b",
"kF c #30440b",
"kQ c #30450c",
"ft c #31460c",
"ck c #32470c",
"bB c #69871b",
"hi c #2e410b",
"kD c #30430b",
"cI c #374f0e",
"fv c #3f5410",
"fX c #567217",
".8 c #65831b",
"if c #28380a",
"i2 c #2a390a",
"i9 c #2a3b0a",
"js c #2a3c0a",
"cv c #2b3c0a",
"j. c #2b3d0a",
"h5 c #2b3d0b",
"fl c #2c3d0b",
"hQ c #2c3e0a",
"h2 c #2c3e0b",
"dt c #2c3f0b",
"c5 c #2c410b",
"gy c #2d3f0a",
"hP c #2d3f0b",
"f8 c #2d400a",
"gg c #2d400b",
"lc c #2e3f0b",
"dm c #2e400b",
"c6 c #2e410b",
"h6 c #2e420a",
"gf c #2e420b",
"ig c #2e430b",
"#e c #2f410b",
"fz c #2f420b",
"c. c #2f420c",
"du c #2f430b",
"b1 c #2f430c",
"fR c #30420b",
"fH c #30430b",
"kl c #30430c",
"ex c #30440b",
"gQ c #30440c",
"fF c #30450b",
"dA c #30450c",
"ie c #30460b",
"bJ c #30460c",
"ku c #31440c",
"hO c #31450b",
"fB c #31450c",
"e9 c #31460b",
"cx c #31460c",
"hA c #31460d",
"dx c #31470c",
"dT c #31470d",
"cB c #31490c",
"gJ c #32450c",
"et c #32470b",
"c0 c #32470c",
"dM c #32470d",
"ea c #32480b",
"ei c #32480c",
"hE c #32480d",
"gF c #32490c",
"iy c #32490d",
"hK c #33470c",
"hl c #33480c",
"dX c #33480d",
"dU c #33490c",
"da c #33490d",
"ew c #334a0c",
"g5 c #334a0d",
"hg c #334b0d",
"bu c #334b0e",
"bq c #334d0e",
"eM c #344a0c",
"b3 c #344a0d",
"dY c #344b0c",
"fw c #344b0d",
"ix c #344b0e",
"dQ c #344c0c",
"df c #344c0d",
"gv c #344c0e",
"ji c #35490d",
"em c #354b0d",
"e2 c #354c0c",
"cc c #354c0d",
"gl c #354c0e",
"eg c #354d0c",
"f. c #354d0d",
"cC c #354d0e",
"h4 c #354e0c",
"ht c #354e0d",
"iX c #354f0d",
"fb c #354f0f",
"ih c #364c0e",
"iu c #364d0c",
"hv c #364d0d",
"cD c #364d0e",
"eL c #364e0d",
"eK c #364e0e",
"k0 c #364f0c",
"gh c #364f0d",
"gZ c #364f0e",
"bj c #364f0f",
"h3 c #36500d",
"gY c #36500e",
"kR c #374f0d",
"hh c #374f0e",
"g4 c #37500d",
"ef c #37500e",
"a2 c #37500f",
"fI c #37510d",
"jo c #375110",
"fC c #38510d",
"hR c #38510e",
"e5 c #38520d",
"dq c #38520e",
"a6 c #38520f",
"cG c #385210",
"e4 c #38530d",
"dh c #385310",
"cY c #394e0e",
"fG c #39520e",
"jc c #395210",
"eu c #39530d",
"eb c #39530e",
"bg c #39530f",
"hm c #39540e",
"ge c #39540f",
"gu c #395410",
"hn c #39550f",
"i8 c #3a530f",
"dN c #3a540e",
"iw c #3a540f",
"fQ c #3a5410",
"f# c #3a550e",
"b2 c #3a550f",
"jx c #3a560e",
"jF c #3a560f",
"fk c #3a5610",
"#T c #3a5611",
"j# c #3a570f",
"kq c #3b550e",
"fA c #3b550f",
"d. c #3b560e",
"cZ c #3b560f",
"b. c #3b5610",
"d7 c #3b5611",
"fa c #3b570e",
"cq c #3b570f",
"dl c #3b5710",
"gE c #3b5810",
"ju c #3b5910",
"c7 c #3c570f",
"hL c #3c5710",
"cw c #3c580f",
"dw c #3c5810",
"jl c #3c5811",
"jJ c #3c590f",
"h0 c #3c5910",
"jC c #3d5510",
"hb c #3d590f",
"e3 c #3d5910",
"dy c #3d5a0f",
"cf c #3d5a10",
"f9 c #3d5a11",
"gR c #3d5b0f",
"j2 c #3d5b10",
"hd c #3d5b12",
"f3 c #3e560f",
"in c #3e5710",
"am c #3e5711",
"ec c #3e5a10",
"dV c #3e5b10",
"dn c #3e5c10",
"ii c #3f5a11",
"d3 c #3f5c10",
"eh c #3f5c11",
"eF c #3f5d10",
"dZ c #3f5d11",
"c1 c #3f5e11",
"jH c #3f5e12",
"#2 c #3f6214",
"#k c #405b12",
"dp c #405c12",
"iv c #405d10",
"d1 c #405e11",
"aV c #405e13",
"ez c #405f11",
"bG c #406112",
"b# c #406113",
"aC c #406114",
".N c #415610",
"#y c #415911",
"cm c #415a12",
"ey c #415f11",
"ay c #415f13",
"dW c #416011",
"dI c #416014",
"hc c #416111",
"gP c #416112",
"hN c #416114",
"iR c #416212",
"jM c #426011",
"d0 c #426112",
"gw c #426212",
"ep c #426214",
"e8 c #426313",
"dz c #436212",
"ej c #436312",
"dP c #436314",
"jK c #436412",
"es c #436414",
"j3 c #436512",
"ij c #436513",
"f4 c #446312",
"dG c #446412",
"a9 c #446413",
"dL c #446513",
"jp c #446613",
"gS c #446713",
"eo c #446714",
"ae c #446715",
"cy c #446813",
"b8 c #456514",
"en c #456713",
"iN c #456715",
"gx c #456913",
"g6 c #456914",
"gX c #456a15",
"b0 c #465d12",
"gT c #466314",
"gz c #466513",
"a1 c #466514",
"ha c #466615",
"cW c #466714",
"ed c #466813",
"aY c #466816",
"e. c #466913",
"bM c #466915",
"e# c #466a16",
"c# c #476a14",
"av c #476a16",
"cT c #476b14",
"e6 c #476b15",
"id c #476c17",
"#U c #486213",
"ka c #486c14",
"hM c #486c15",
"dH c #486c16",
"eG c #486d14",
"eI c #486d15",
"f6 c #486e14",
"ik c #486e15",
"gt c #496614",
"cO c #496813",
"gd c #496d15",
"er c #496e15",
"cb c #496e17",
"f5 c #496f14",
"fy c #496f15",
"bS c #4a6e16",
"fE c #4a6f17",
"hf c #4a7217",
"e1 c #4b7116",
"jS c #4b7117",
"jR c #4b7118",
"d# c #4b7316",
"b4 c #4b7416",
"#f c #4c6413",
"af c #4c6714",
"cQ c #4c6d17",
"d6 c #4c7316",
"cE c #4c7317",
"dg c #4c7417",
"a. c #4d6814",
"#O c #4d6a15",
"aD c #4d6d17",
"iQ c #4d7417",
"dv c #4d7517",
"#s c #4e6914",
"f7 c #4e7617",
"dO c #4e7718",
"i7 c #4e7818",
".D c #4f6815",
"fj c #4f7117",
"fP c #4f7217",
"i6 c #4f7317",
"fc c #4f7318",
"aL c #4f7919",
"i3 c #4f7a1a",
"aw c #506c14",
"#W c #507017",
"d2 c #507919",
"eJ c #507a19",
"bk c #517718",
"hs c #517a1a",
"hu c #517b1a",
"cH c #517c19",
"c9 c #517c1a",
"fx c #517d19",
"dr c #517d1a",
"iU c #526b15",
"cP c #527217",
"je c #527316",
"c8 c #527c19",
"dk c #527d1a",
"gK c #527f1a",
"cA c #536f16",
"dB c #537218",
"b9 c #537619",
"iD c #537f1a",
"ic c #53801b",
".3 c #546e15",
"#F c #547016",
"aW c #547317",
"iz c #547618",
"bV c #547e1a",
"g7 c #54821b",
"fV c #557217",
"#9 c #557718",
"dC c #557918",
"iC c #55841c",
"gm c #567f1b",
"bK c #56801b",
"jE c #56831b",
"cd c #56831c",
"eH c #56841d",
"jv c #577217",
"bR c #577317",
"jZ c #57851c",
"c2 c #57861c",
"d8 c #57861d",
"bZ c #587517",
"jD c #587f1a",
"a3 c #58801b",
"ev c #58871d",
"h1 c #58881e",
"ho c #58891d",
"fu c #597617",
"#7 c #597d1a",
"fJ c #59811b",
"bA c #59881c",
"jj c #5a7417",
"he c #5b891d",
"dK c #5b8b1e",
"#m c #5c7517",
"ct c #5c7e19",
"hD c #5c8e1f",
"fD c #5d8e1f",
"jQ c #5d9020",
"hB c #5d9121",
"#. c #5e7b19",
"gs c #5e7e1a",
"gc c #5e891c",
"#G c #5e8a1e",
"cF c #5e9120",
".q c #5f7e19",
"dc c #5f801a",
"jt c #5f8b1c",
"ee c #5f9321",
"dS c #609221",
"d9 c #609421",
".i c #617f1a",
"bQ c #61821a",
"gL c #619521",
"e7 c #619522",
".4 c #62831b",
"eq c #629722",
"dJ c #629822",
"hC c #629823",
"gW c #63901e",
"di c #639020",
"jG c #639822",
"#j c #64811a",
"do c #64921f",
"ce c #649621",
"ca c #649721",
"dR c #649822",
"hp c #659a23",
".z c #66881c",
"fd c #67921f",
"cz c #679620",
"fW c #69871b",
"jk c #69871c",
"gD c #699921",
"#N c #6a8c1d",
"ah c #6a8e1e",
"hr c #6a9e24",
"bt c #6b961f",
"il c #6b9a21",
"bp c #6c8f1e",
"aK c #6c951f",
"jq c #6d8c1c",
".J c #6d931e",
"jr c #6e8d1d",
"#z c #6e901e",
"ds c #6e9b22",
"dj c #6ea224",
"jL c #6f8f1d",
"aN c #6f8f1e",
"#4 c #70911e",
"at c #709a20",
"an c #709f23",
"jm c #70a325",
"cl c #71931e",
"c4 c #729720",
"fe c #729c21",
"im c #729d21",
"iG c #73921e",
"cp c #739e22",
"#1 c #74971f",
"iW c #749a1f",
".V c #759f21",
"bI c #759f22",
"iB c #75a524",
"gr c #779c20",
"fi c #779c21",
"iP c #77a423",
"ba c #77a825",
"iV c #789a20",
"aT c #78a020",
"gb c #78a623",
"gn c #78a924",
"hq c #78aa25",
".O c #799b20",
"iS c #79a422",
"g. c #79a724",
".5 c #7a9b20",
"gM c #7aad26",
"jI c #7ba222",
"br c #7ba723",
"g8 c #7bad26",
"ja c #7ea923",
"jn c #7ead26",
"cu c #7fa322",
"cn c #7fac25",
"al c #80a723",
"## c #80ad25",
"h# c #80b127",
"ff c #81ab24",
".H c #82a522",
"iA c #82a924",
"#3 c #82b428",
"aF c #83a924",
"bh c #83ac24",
"gU c #83b327",
"#r c #84aa24",
"bH c #84b026",
"#V c #85af25",
"jb c #85af26",
"bL c #85b728",
"jw c #86ac24",
"cX c #87b326",
"b5 c #87b728",
"gV c #88b828",
"i4 c #88b929",
"iF c #89ad24",
"i5 c #89b226",
"gq c #89b326",
"iE c #89b928",
"fO c #8ab627",
"fK c #8ab828",
"bl c #8abc29",
"fh c #8bb226",
"a5 c #8db626",
"gC c #8dbc29",
"go c #8dbd29",
"jd c #8fb626",
"fg c #8fb827",
"#q c #90b727",
"#t c #90bd28",
"iH c #91ba27",
"#l c #92c029",
"gp c #92c02a",
".p c #93ba27",
"cS c #93bf29",
".U c #94c029",
"gA c #94c129",
"ag c #96c32a",
"iO c #96c42a",
"#H c #97c029",
"#P c #97c32a",
"bi c #97c42a",
"b6 c #98c029",
"aU c #98c62b",
"aX c #98c72b",
"a# c #99c52a",
"gN c #9bc92b",
"bU c #9dca2b",
"aM c #9dcb2c",
"ao c #9ec82b",
"g9 c #9eca2c",
"ax c #9ecb2c",
"bb c #9fc92b",
"c3 c #9fcd2c",
"au c #a0cd2c",
"aE c #a0ce2d",
".9 c #a1ca2b",
".T c #a3cc2b",
"bT c #a4d02d",
"#M c #a4d12d",
"cR c #a6d22d",
"fL c #a6d32d",
"g# c #a7d32d",
"gB c #a8d42d",
"a4 c #a8d52e",
"iT c #a9d22d",
"h. c #a9d32d",
"gO c #a9d42d",
"fN c #aad62e",
"#8 c #aad72e",
"ga c #acd62e",
".y c #acd72e",
".I c #adda2f",
"fM c #aed92e",
"bs c #afd92e",
"co c #afda2e",
"QtQtQtQtQtQtQtQtQtQtQtQtQtQtQtQtQtQtQtQtQtQtQtQtQtQtQtQtQtQtQtQtQtQt.#.aQtQtQtQtQtQtQtQtQtQtQtQtQtQt",
"QtQtQtQtQtQtQtQtQtQtQtQtQtQtQtQtQtQtQtQtQtQtQtQtQtQtQtQtQtQtQtQtQt.b.c.d.eQtQtQtQtQtQtQtQtQtQtQtQtQt",
"QtQtQtQtQtQtQtQtQtQtQtQtQtQtQtQtQt.f.gQtQtQtQtQtQtQtQtQtQtQtQtQtQt.h.i.j.kQtQtQtQtQtQtQtQtQtQtQtQtQt",
"QtQtQtQtQtQtQtQtQtQtQtQtQtQtQtQtQt.l.m.nQtQtQtQtQtQtQtQtQtQtQtQtQt.o.p.q.rQtQtQtQtQtQtQtQtQtQtQtQtQt",
"QtQtQtQtQtQtQtQtQtQtQtQtQtQtQtQtQt.s.t.u.vQtQtQtQtQtQtQtQtQtQtQt.w.x.y.z.AQtQtQtQtQtQtQtQtQtQtQtQtQt",
"QtQtQtQtQtQtQtQtQtQtQtQtQtQtQtQtQt.B.C.D.E.FQtQtQtQtQtQtQtQtQtQt.G.H.I.J.KQtQtQtQtQtQtQtQtQtQtQtQtQt",
"QtQtQtQtQt.LQtQtQtQtQtQtQtQtQtQtQtQt.M.N.O.P.QQtQtQtQtQtQtQtQt.R.S.T.U.V.WQtQtQtQtQtQtQtQtQtQtQtQtQt",
"QtQtQt.X.Y.Z.0.1QtQtQtQtQtQtQtQtQtQt.2.3.4.5.6QtQtQtQtQtQtQtQt.7.8.9#.###a#bQtQtQtQtQtQtQtQtQtQtQtQt",
"QtQtQt#c#d#e#f#g#hQtQtQtQtQtQtQtQtQt#i#j#k#l#m#nQtQtQtQtQtQt#o#p#q#r#s#t#u#vQtQtQtQtQtQtQtQtQtQtQtQt",
"QtQtQtQt#w#x#y#z#A#B#CQtQtQtQtQtQtQt#D#E#F#G#H#I#JQtQtQtQtQt#K#L#M#N#O#P#Q#RQtQtQtQtQtQtQtQtQtQtQtQt",
"QtQtQtQtQt#S#T#U#V#W#X#YQtQtQtQtQtQt#Z#0#1#2#3#4#5QtQtQtQtQt#6#7#8#9a.a#aaabQtQtQtQtQtQtQtQtQtQtQtQt",
"QtQtQtQtQtacadaeafagahaiajQtQtQtQtQtQtakalamanaoapaqQtQtQtarasatauavawaxayazQtQtQtQtQtQtQtQtQtQtQtQt",
"QtQtQtQtQtQtaAaBaCaDaEaFaGaHaIQtQtQtQtaJaK#UaLaMaNaOQtaPaQaRaSaTaUaVaWaXaYaZQtQtQtQtQtQtQtQtQtQtQtQt",
"QtQtQtQtQtQtQta0a1a2a3a4a5a6a7QtQtQtQta8a9b.b#babbbcQtbdbebfbgbhbibjbkblavbmQtQtQtQtQtQtQtQtQtQtQtQt",
"QtQtQtQtQtQtQtbnbobpbqbrbsbtbubvQtbwbxbybzbgbgbA#MbBbCbDbEbFbGbHbIbJbKbLbMbNbO#cQtQtQtQtQtQtQtQtQtQt",
"QtQtQtQtQtQtQtQtbPbQbRbSbTbUbVbWbXbYbZb0b1b2b3b4b5b6b7b8b9c.c#cacbcccdcecfcgchciQtQtQtQtQtQtQtQtQtQt",
"QtQtQtQtQtQtQtQtcjckclcmcncocpcqcrcsctcucvcwcxcycz#8cAcBcCcDcEcFcGb2cHaLcIcJcKcLQtQtQtQtQtQtQtQtQtQt",
"QtQtQtQtQtQtQtQtcMcNcOcPcQcRcScTcUcVcWcXcYcZc0c1c2c3c4c5c6c7c8c9cxd.d#c#dadbdcddQtQtQtQtQtQtQtQtQtQt",
"QtQtQtQtQtQtQtQtQtdedfdgdhdidjdkdldmdndodpdqcDbgdrb5dsdtdudndvdwdxdycTdzdAdBdCdD#oQtQtQtQtQtQtQtQtQt",
"QtQtQtQtQtQtQtQtQtdEdFdGdHdIdJdKdLdMdNdOdPdQdqb3dvdRdSdTdUdVdWdXdYdZd0d1dfd2d3d4#oQtQtQtQtQtQtQtQtQt",
"QtQtQtQtQtQtQtQtQtQtd5cZd6d7d8d9e.a6c0cTe#eaebecedcFeeefegdZehb1ebd1d1cfeiejb2ek#oQtQtQtQtQtQtQtQtQt",
"QtQtQtQtQtQtQtQtQtQtelemeneoepeqerd3b1dZeseteucfdWevcFa6ewd3cqexcweyezdNcxdndqeAQtQtQtQtQtQtQtQtQtQt",
"QtQtQtQtQtQtQtQteBeCeDeEeFeGa2eHeIezcxefcfcxeueud3eJd9dwdUdyeKeiecc1d1eLeiebeMeNeOePeQeReSeTeUeVeWeW",
"QtQtQtQtQtQtQtQteXeYeZe0cZdLdZc9e1eye2c0e3cxe4e5e3e6e7e8e9cwdMf.f#cwfac0c6c6fbfcfdfefffgfhfifjfkc.fl",
"QtfmfnfofpfqfrQtfsftfufvfwezcTfxfyd1ebfzfAfBe5fCb2d0fDfEfFfGfHfIe5eue5cvdTfJfKfLfMfNaxfOatfPfQdMfRfS",
"fTfUfVfWfXfYfZf0f1f2f3afcxdZf4f5f6eyd.fzeffBe5e5eud3f7erdAe2exe5e5fIf8f9g.g#gabigbgcgdgegfggeaghgigj",
"gkglgmgngogpgqgrgsgtgugvc.cwd0gwcTeycwexemdAe5e5e5dVedgxcxcxeie4fCgygzgAgBgCgDdvgEgFc.c0gheufCgGgHQt",
"gIgJgggEgKgLgMgNfMgOagcebjgheFdVgPd1ecc0c0gQfCfCfIgRd0gSeiduf.e5c6gTgUgVgWgXgYb1fBgZdNf#eufCg0g1QtQt",
"g2g3g4dAg5g6g7eeg8g9h.h#haethbc7d1d1ecdYfHfHfCe5fIfaeyhcc0dmfCethdcehehfhgcxhhdwdVfae5e5g4hihjQtQtQt",
"QthkhlhmeLgQhndghohphqhrhsfzfaf#ehezdnhtgfdufCe5fCe5e3dWdAc6f.dAhudggwd1eccfcwdNe5e5e5hvhwhxQtQtQtQt",
"QthyhzdUcZcZemhAezdrhBhChDhEg4e5eucfdng4c6fzfCe5fCfCdNezcxexdudwezeccwebeueueue5g4f.hFhGhHQtQtQtQtQt",
"QtQthIhJhKfCcwhLdaf.hMhDdJhNhOe5fCe5cwe4c6hPfIf#eufCe5d3b3hQhld.f#eue5e5hRemexhShThUhVhWQtQtQtQtQtQt",
"QtQtQthXhYhZg4d.ezf9c0h0cHh1hAg4e5e5e5e5exh2fIh3h4g4fIhbesh5h6ghe4gheih7crh8h9i.i#QtQtQtQtQtQtQtQtQt",
"QtQtQtQtQtiaibfwe5cfdWcCdaicidexe5fCe5hmieifigihiiijhcikiliminhQioipiqirQtQtQtQtQtQtQtQtQtQtQtQtQtQt",
"QtQtQtQtQtQtisithZiudNiviwixfEdMeLe5eLc6iyiziAaoiBiCiDiEiFiGiHcwiIiJQtQtQtQtQtQtQtQtQtQtQtQtQtQtQtQt",
"QtQtQtQtQtQtQtQtiKiLiMdQcwc7cxdXdueic6iNcnaEiOiPiQhtiRiSiTiUiViWiXiIiYQtQtQtQtQtQtQtQtQtQtQtQtQtQtQt",
"QtQtQtQtQtQtQtQtiZi0i1cvcvdudYdAi2cxi3i4i5i6i7cyi8i9j.j#jajbjcjdjeghhGjfQtQtQtQtQtQtQtQtQtQtQtQtQtQt",
"QtQtQtQtQtQtQtQtjgjhjijjjk.4jlggfzikjmjnjodljpdZc6jqjrjscfjtjujvjwjxjyjzQtQtQtQtQtQtQtQtQtQtQtQtQtQt",
"QtQtQtQtQtQtQtQtQtjAjBdXjCjDjEeKjFg7jGjHf.d0d1dqgfffjIggcvjJjKhvjLjMe2jNQtQtQtQtQtQtQtQtQtQtQtQtQtQt",
"QtQtQtQtQtQtQtQtQtQtjOjPdqdycZc6gPjQjRc6d1d1dVcxc0cdjSjTjU#eezc1dadVfCjVjWQtQtQtQtQtQtQtQtQtQtQtQtQt",
"QtQtQtQtQtQtQtQtQtQtQtjXjYhlexfwc#jZhEdqeycwdqj0j1j2j3j4j5j6ccjMfwfGebj7j8QtQtQtQtQtQtQtQtQtQtQtQtQt",
"QtQtQtQtQtQtQtQtQtQtQtQtj9k.k#cZkadwcxd1e3f#ewkbkcc0d1kdkekfkgfGb2cxe4khkiQtQtQtQtQtQtQtQtQtQtQtQtQt",
"QtQtQtQtQtQtQtQtQtQtQtQtQtkjkkdVenklcZdZebfCkmknkokpkqkrksQtktgGcZkufIiIkvQtQtQtQtQtQtQtQtQtQtQtQtQt",
"QtQtQtQtQtQtQtQtQtQtQtQtQtkwkxdncqcxdnhme5fBkyQtQtkzhKkAkBQtQtkChlhle2kDkEQtQtQtQtQtQtQtQtQtQtQtQtQt",
"QtQtQtQtQtQtQtQtQtQtQtQtQtkvkFdndahhd.e5e2kGkHQtQtkIkJkKkLQtQtkMkNc0dUkOkPQtQtQtQtQtQtQtQtQtQtQtQtQt",
"QtQtQtQtQtQtQtQtQtQtQtQtQtkvkQjxfzdqe4kRkSirQtQtQtQtkTkUkVQtQtQtkWkXhOkYkZQtQtQtQtQtQtQtQtQtQtQtQtQt",
"QtQtQtQtQtQtQtQtQtQtQtQtQtkEexk0dueug4k1k2QtQtQtQtQtk3k4QtQtQtQtk5k6#ek7k8QtQtQtQtQtQtQtQtQtQtQtQtQt",
"QtQtQtQtQtQtQtQtQtQtQtQtQtk9l.dYeifCl#laQtQtQtQtQtQtQtQtQtQtQtQtQtlblcldQtQtQtQtQtQtQtQtQtQtQtQtQtQt",
"QtQtQtQtQtQtQtQtQtQtQtQtQtlelfeicxlglhQtQtQtQtQtQtQtQtQtQtQtQtQtQtlilj.lQtQtQtQtQtQtQtQtQtQtQtQtQtQt",
"QtQtQtQtQtQtQtQtQtQtQtQtQtlkll#elmlnQtQtQtQtQtQtQtQtQtQtQtQtQtQtQtQtloQtQtQtQtQtQtQtQtQtQtQtQtQtQtQt"};
