/* XPM */
static char *dummy[]={
"50 50 915 2",
"az c #000000",
"bv c #010700",
"lT c #030001",
"aD c #091201",
"aK c #0a0f00",
"bO c #0b1301",
"bD c #0e0f00",
"bw c #111603",
"co c #111903",
"#9 c #111a03",
"#u c #131e04",
"hD c #141e04",
"ai c #152004",
"bo c #161902",
"bf c #161b03",
"lI c #161d05",
"lV c #171d04",
"aS c #182405",
"dO c #192505",
"hB c #1a2505",
"cO c #1b0e08",
"aY c #1b2105",
"l9 c #1b2106",
"hE c #1b2505",
"dB c #1b2605",
"cp c #1c2106",
"b2 c #1c2505",
"hC c #1c2806",
"#U c #1c2906",
"mj c #1d2508",
"b. c #1d2a06",
"fv c #1d6323",
"ca c #1e2404",
".8 c #1e2707",
"#r c #1e2a07",
"e# c #1e2b06",
"bU c #1e2c06",
"cU c #1e2d07",
"ly c #1f2b08",
"a4 c #202d07",
"cG c #212a06",
"jK c #212b09",
"c3 c #212c06",
"cx c #212c07",
"lQ c #212c08",
"jz c #212c09",
"jG c #212e09",
"lz c #222c08",
"du c #222d07",
"bV c #222f08",
"bn c #223008",
"lP c #232c08",
"lX c #232e08",
"jT c #232f08",
"ch c #233108",
"am c #233308",
"kT c #242e08",
"e2 c #242e09",
"md c #242f09",
"bN c #243007",
"et c #243008",
".5 c #243108",
"e. c #243109",
"#5 c #243208",
"ab c #243408",
"cV c #253108",
"mo c #25310a",
"eW c #253208",
"lN c #253209",
"cN c #253308",
"a5 c #253408",
"aO c #253409",
"l4 c #263209",
"l2 c #263308",
"mh c #263309",
"hc c #263408",
"f0 c #263409",
"l5 c #26340a",
"#2 c #263509",
"jS c #273409",
"dJ c #273509",
"jr c #27350a",
"#K c #273609",
"lb c #27360a",
"dg c #273709",
"bM c #273809",
"aq c #27390a",
"iI c #28350a",
"hd c #283609",
"i0 c #28360a",
"bj c #283709",
"il c #28370a",
"af c #283809",
"jq c #28380a",
"#R c #28390a",
"jR c #29370a",
"e9 c #293809",
"dn c #29380a",
".z c #29390a",
"dK c #293a0a",
"gr c #296026",
"h2 c #2a390a",
"#l c #2a3a0a",
"kM c #2a3b0a",
"cq c #2a3c0a",
"hb c #2a3e0b",
"dm c #2b3a0a",
"#3 c #2b3b0a",
"eI c #2b3c0a",
"l3 c #2b3c0b",
"kN c #2b3d0a",
"jP c #2b3d0b",
"aI c #2b3f0b",
"lE c #2c3c0a",
"g1 c #2c3d0a",
"aw c #2c3d0b",
"jp c #2c3e0a",
".6 c #2c3e0b",
"mk c #2c3f0a",
"fJ c #2c3f0b",
"fg c #2c410b",
"dL c #2d3d0b",
".7 c #2d3e0b",
"iz c #2d3f0a",
"iH c #2d3f0b",
"i# c #2d400a",
"ij c #2d400b",
"h5 c #2d410c",
"ei c #2e3f0b",
"d9 c #2e400b",
"cg c #2e410b",
"jQ c #2e420a",
"ii c #2e420b",
"j0 c #2e430b",
"a2 c #2f410b",
"g4 c #2f420b",
"el c #2f420c",
"fK c #2f430b",
"ec c #2f430c",
"aX c #2f450c",
"h1 c #30420b",
"hR c #30430b",
"lU c #30430c",
"gY c #30440b",
"iQ c #30440c",
"hP c #30450b",
"fQ c #30450c",
"jZ c #30460b",
"cW c #30460c",
"eY c #31420c",
"lY c #31440c",
"jE c #31450b",
"hL c #31450c",
"cb c #31450d",
"hn c #31460b",
"eK c #31460c",
"js c #31460d",
"fN c #31470c",
"gc c #31470d",
"eO c #31490c",
"iJ c #32450c",
"gU c #32470b",
"ez c #32470c",
"f7 c #32470d",
"gy c #32480b",
"gG c #32480c",
"jw c #32480d",
"iG c #32490c",
"kd c #32490d",
"ay c #33450c",
"jA c #33470c",
"je c #33480c",
"ci c #33480d",
"gd c #33490c",
"fm c #33490d",
"gX c #334a0c",
"i2 c #334a0d",
"jd c #334b0d",
"dI c #334b0e",
"dE c #334d0e",
"#4 c #34470d",
"ha c #344a0c",
"ee c #344a0d",
"gg c #344b0c",
"hH c #344b0d",
"be c #344b0e",
"g# c #344c0c",
"fw c #344c0d",
"iw c #344c0e",
"kY c #35490d",
"gN c #354b0d",
"hg c #354c0c",
"ep c #354c0d",
"im c #354c0e",
"gE c #354d0c",
"ho c #354d0d",
"eP c #354d0e",
"jO c #354e0c",
"jm c #354e0d",
"kD c #354f0d",
"hr c #354f0f",
"j1 c #364c0e",
"ka c #364d0c",
"jo c #364d0d",
"eQ c #364d0e",
"h# c #364e0d",
"h. c #364e0e",
"mb c #364f0c",
"ik c #364f0d",
"iZ c #364f0e",
"dr c #364f0f",
"jN c #36500d",
"iY c #36500e",
"l8 c #374f0d",
"eV c #374f0e",
"i1 c #37500d",
"gD c #37500e",
"db c #37500f",
"hS c #37510d",
"k4 c #375110",
"cM c #384f0f",
"hM c #38510d",
"jF c #38510e",
"hj c #38520d",
"fG c #38520e",
"df c #38520f",
"eT c #385210",
"hi c #38530d",
"fy c #385310",
"fa c #394e0e",
"hQ c #39520e",
"bC c #395210",
"gV c #39530d",
"gz c #39530e",
"do c #39530f",
"jf c #39540e",
"ih c #39540f",
"iv c #395410",
"jg c #39550f",
"eX c #3a4e0f",
"dl c #3a4f0f",
"kL c #3a530f",
"f8 c #3a540e",
"kc c #3a540f",
"h0 c #3a5410",
"hp c #3a550e",
"ed c #3a550f",
"la c #3a560e",
"lj c #3a560f",
"hA c #3a5610",
"bI c #3a5611",
"kO c #3a570f",
"bu c #3b4e0e",
"lW c #3b550e",
"hK c #3b550f",
"fk c #3b560e",
"fb c #3b560f",
"b1 c #3b5610",
"gt c #3b5611",
"hq c #3b570e",
"eF c #3b570f",
"fC c #3b5710",
"iF c #3b5810",
"k9 c #3b5910",
"cn c #3c500f",
"aE c #3c510f",
"fh c #3c570f",
"jB c #3c5710",
"eJ c #3c580f",
"fM c #3c5810",
"k1 c #3c5811",
"ln c #3c590f",
"jL c #3c5910",
"dC c #3d520f",
"lg c #3d5510",
"bx c #3d5811",
"j. c #3d590f",
"hh c #3d5910",
"fO c #3d5a0f",
"es c #3d5a10",
"ia c #3d5a11",
"cH c #3d5a12",
"iR c #3d5b0f",
"lG c #3d5b10",
"ja c #3d5b12",
"h6 c #3e560f",
"j7 c #3e5710",
"ck c #3e5711",
"gA c #3e5a10",
"ge c #3e5b10",
"fD c #3e5c10",
"hG c #3f5410",
"bm c #3f5911",
"j2 c #3f5a11",
"gl c #3f5c10",
"gF c #3f5c11",
"g5 c #3f5d10",
"gh c #3f5d11",
"fc c #3f5e11",
"ll c #3f5e12",
"bR c #3f6214",
"a7 c #405b12",
"fF c #405c12",
"kb c #405d10",
"gj c #405e11",
"cZ c #405e13",
"g0 c #405f11",
"dR c #406112",
"di c #406113",
"cI c #406114",
"ah c #415610",
"bk c #415911",
"eB c #415a12",
"gZ c #415f11",
"cw c #415f13",
"gf c #416011",
"f3 c #416014",
"j# c #416111",
"iP c #416112",
"jD c #416114",
"kx c #416212",
"lq c #426011",
"gi c #426112",
"ix c #426212",
"gQ c #426214",
"hm c #426313",
"fP c #436212",
"gH c #436312",
"g. c #436314",
"lo c #436412",
"gT c #436414",
"lH c #436512",
"j3 c #436513",
"h7 c #446312",
"f1 c #446412",
"dh c #446413",
"f6 c #446513",
"k5 c #446613",
"iS c #446713",
"gP c #446714",
"cc c #446715",
"eL c #446813",
"ej c #456514",
"gO c #456713",
"kt c #456715",
"iy c #456913",
"i3 c #456914",
"iX c #456a15",
"eb c #465d12",
"iT c #466314",
"iA c #466513",
"da c #466514",
"i9 c #466615",
"f. c #466714",
"gB c #466813",
"c2 c #466816",
"gw c #466913",
"dW c #466915",
"gx c #466a16",
"bP c #476113",
"em c #476a14",
"ct c #476a16",
"e8 c #476b14",
"hk c #476b15",
"jY c #476c17",
"bJ c #486213",
"lO c #486c14",
"jC c #486c15",
"f2 c #486c16",
"g6 c #486d14",
"g8 c #486d15",
"h9 c #486e14",
"j4 c #486e15",
"iu c #496614",
"e3 c #496813",
"ig c #496d15",
"gS c #496e15",
"eo c #496e17",
"h8 c #496f14",
"hJ c #496f15",
"d5 c #4a6e16",
"hO c #4a6f17",
"jc c #4a7217",
"hf c #4b7116",
"lx c #4b7117",
"lw c #4b7118",
"fl c #4b7316",
"ef c #4b7416",
"a3 c #4c6413",
"a. c #4c6414",
"dP c #4c6514",
"cd c #4c6714",
"fZ c #4c6834",
"e5 c #4c6d17",
"gs c #4c7316",
"eR c #4c7317",
"fx c #4c7417",
"bZ c #4d6814",
"bA c #4d6a15",
"cJ c #4d6d17",
"kw c #4d7417",
"fL c #4d7517",
"bc c #4e6914",
"i. c #4e7617",
"f9 c #4e7718",
"kK c #4e7818",
"dQ c #4f6615",
"#t c #4f6714",
"ag c #4f6815",
"hz c #4f7117",
"hZ c #4f7217",
"kJ c #4f7317",
"hs c #4f7318",
"cR c #4f7919",
"kG c #4f7a1a",
"cu c #506c14",
"bL c #507017",
"gk c #507919",
"g9 c #507a19",
"ds c #517718",
"jl c #517a1a",
"jn c #517b1a",
"eU c #517c19",
"fj c #517c1a",
"hI c #517d19",
"fH c #517d1a",
"kA c #526b15",
"e4 c #527217",
"kS c #527316",
"fi c #527c19",
"fB c #527d1a",
"iK c #527f1a",
"eN c #536f16",
"fR c #537218",
"ek c #537619",
"ki c #537f1a",
"jX c #53801b",
"aL c #546e15",
"br c #547016",
"c0 c #547317",
"ke c #547618",
"d8 c #547e1a",
"i4 c #54821b",
"h3 c #557217",
"bY c #557718",
"fS c #557918",
"kh c #55841c",
"h4 c #567217",
"in c #567f1b",
"dU c #56801b",
"li c #56831b",
"eq c #56831c",
"g7 c #56841d",
"l. c #577217",
"d4 c #577317",
"lF c #57851c",
"fd c #57861c",
"gu c #57861d",
"ea c #587517",
"lh c #587f1a",
"dc c #58801b",
"gW c #58871d",
"jM c #58881e",
"jh c #58891d",
"hF c #597617",
"bW c #597d1a",
"hT c #59811b",
"dM c #59881c",
"kZ c #5a7417",
"jb c #5b891d",
"f5 c #5b8b1e",
"a9 c #5c7517",
"eG c #5c7e19",
"jv c #5c8e1f",
"bq c #5d7a19",
"hN c #5d8e1f",
"lv c #5d9020",
"jt c #5d9121",
"aV c #5e7b19",
"it c #5e7e1a",
"if c #5e891c",
"bs c #5e8a1e",
"eS c #5e9120",
"#T c #5f7e19",
"fn c #5f801a",
"k8 c #5f8b1c",
"gC c #5f9321",
"gb c #609221",
"gv c #609421",
"#s c #617f1a",
"d3 c #61821a",
"iL c #619521",
"hl c #619522",
"aM c #62831b",
"gR c #629722",
"f4 c #629822",
"ju c #629823",
"iW c #63901e",
"fz c #639020",
"lk c #639822",
"a6 c #64811a",
"fE c #64921f",
"er c #649621",
"en c #649721",
"ga c #649822",
"aT c #65831b",
"ji c #659a23",
"aa c #66881c",
"ht c #67921f",
"eM c #679620",
"dN c #69871b",
"k0 c #69871c",
"iE c #699921",
"bz c #6a8c1d",
"cf c #6a8e1e",
"jk c #6a9e24",
"dH c #6b961f",
"j5 c #6b9a21",
"dD c #6c8f1e",
"cQ c #6c951f",
"k6 c #6d8c1c",
"ap c #6d931e",
"k7 c #6e8d1d",
"bl c #6e901e",
"fI c #6e9b22",
"fA c #6ea224",
"lp c #6f8f1d",
"cT c #6f8f1e",
"bT c #70911e",
"cr c #709a20",
"cl c #709f23",
"k2 c #70a325",
"eA c #71931e",
"ff c #729720",
"hu c #729c21",
"j6 c #729d21",
"kl c #73921e",
"eE c #739e22",
"bQ c #74971f",
"kC c #749a1f",
"ey c #755741",
"aH c #759f21",
"dT c #759f22",
"kg c #75a524",
"is c #779c20",
"hy c #779c21",
"kv c #77a423",
"dj c #77a825",
"kB c #789a20",
"cX c #78a020",
"ie c #78a623",
"io c #78a924",
"jj c #78aa25",
"ax c #799b20",
"ky c #79a422",
"ib c #79a724",
"aN c #7a9b20",
"iM c #7aad26",
"lm c #7ba222",
"dF c #7ba723",
"i5 c #7bad26",
"kP c #7ea923",
"k3 c #7ead26",
"fs c #7f5545",
"eH c #7fa322",
"eC c #7fac25",
"dA c #805644",
"#7 c #805645",
"e1 c #807049",
"cj c #80a723",
"aW c #80ad25",
"i8 c #80b127",
"jH c #815745",
"jI c #815746",
"hv c #81ab24",
"fV c #825746",
".4 c #825747",
"at c #825846",
"an c #82a522",
"kf c #82a924",
"bS c #82b428",
"a1 c #835846",
"mg c #835847",
"k. c #835947",
"cL c #83a924",
"dp c #83ac24",
"iU c #83b327",
"jU c #845946",
"c4 c #845947",
"bb c #84aa24",
"dS c #84b026",
"bG c #855947",
"d. c #855948",
".b c #855a47",
"bK c #85af25",
"kQ c #85af26",
"dV c #85b728",
"#i c #865a48",
"lB c #865a49",
"lr c #865b48",
"kn c #865b49",
"l# c #86ac24",
".w c #875b48",
"c5 c #875b49",
"f# c #87b326",
"eg c #87b728",
".J c #885b49",
"#d c #885c49",
"iV c #88b828",
"kH c #88b929",
"bi c #895c49",
"jJ c #895c4a",
"ad c #895d49",
"jx c #895d4a",
"kk c #89ad24",
"kI c #89b226",
"ir c #89b326",
"kj c #89b928",
"#L c #8a5d4a",
"d0 c #8a5d4b",
"hY c #8ab627",
"hU c #8ab828",
"dt c #8abc29",
"g2 c #8b5d4a",
"b8 c #8b5e4a",
"#C c #8b5e4b",
"hx c #8bb226",
".i c #8c5f4b",
".R c #8d5f4b",
".x c #8d5f4c",
"b9 c #8d604b",
"lD c #8d604c",
"de c #8db626",
"iD c #8dbc29",
"ip c #8dbd29",
"c6 c #8e604c",
"eu c #8f614c",
"cA c #8f614d",
"kR c #8fb626",
"hw c #8fb827",
"#q c #90614d",
"le c #90624c",
"#j c #90624d",
"ba c #90b727",
"bd c #90bd28",
"ex c #91614d",
"l6 c #91624d",
".3 c #91624e",
"km c #91ba27",
"#J c #92634e",
"a8 c #92c029",
"iq c #92c02a",
"lL c #93634e",
"cz c #93634f",
"#k c #93644f",
"#S c #93ba27",
"e7 c #93bf29",
"c# c #94644f",
"aG c #94c029",
"iB c #94c129",
"dZ c #95654f",
"l7 c #956550",
"mq c #966550",
"gq c #967c53",
"ce c #96c32a",
"ku c #96c42a",
"a0 c #976650",
"d1 c #976751",
"bt c #97c029",
"bB c #97c32a",
"dq c #97c42a",
"bF c #986851",
"ma c #986852",
"eh c #98c029",
"cY c #98c62b",
"c1 c #98c72b",
".c c #996852",
"as c #996952",
"ko c #996953",
"b0 c #99c52a",
"kV c #9a6951",
"c7 c #9a6952",
".v c #9a6953",
"cB c #9b6952",
"ld c #9b6a52",
"aP c #9b6a53",
"iN c #9bc92b",
"b7 c #9c6a52",
"#m c #9c6a53",
"m. c #9d6b53",
"au c #9d6c55",
"d7 c #9dca2b",
"cS c #9dcb2c",
"#6 c #9e6b54",
"jy c #9e6c54",
"cm c #9ec82b",
"i6 c #9eca2c",
"cv c #9ecb2c",
"aA c #9f6c54",
"lM c #9f6c55",
"lu c #9f6d55",
"ew c #9f6d56",
"dk c #9fc92b",
"fe c #9fcd2c",
"jW c #a06c54",
"cs c #a0cd2c",
"cK c #a0ce2d",
"#h c #a16e56",
"aU c #a1ca2b",
"#M c #a26e56",
"cy c #a26f56",
"#Z c #a27159",
"ls c #a36f56",
"#n c #a36f57",
"kr c #a37056",
"#I c #a37057",
"#D c #a37159",
"aF c #a3cc2b",
"dY c #a47057",
"mm c #a47058",
"cF c #a47157",
"d6 c #a4d02d",
"by c #a4d12d",
"mn c #a57057",
"mp c #a57158",
"c8 c #a67157",
"me c #a67158",
"lC c #a67258",
"ev c #a67259",
"#e c #a6725a",
"e6 c #a6d22d",
"hV c #a6d32d",
"fu c #a77f5b",
"ic c #a7d32d",
"j9 c #a87259",
".S c #a87359",
"iC c #a8d42d",
"dd c #a8d52e",
".K c #a9735a",
"mi c #a97459",
"mf c #a9745a",
"fW c #a9745b",
"l1 c #a9755a",
"kz c #a9d22d",
"i7 c #a9d32d",
"iO c #a9d42d",
"d# c #aa7459",
"aB c #aa745a",
"aQ c #aa755a",
"b# c #aa755b",
"fo c #aa755c",
"g3 c #aa765b",
"hX c #aad62e",
"bX c #aad72e",
"dz c #ab755a",
"c. c #ab755b",
"gJ c #ab765b",
"gM c #ab7d5f",
"ak c #ac765b",
"gm c #ac765c",
"id c #acd62e",
"a# c #acd72e",
"he c #ad765c",
"kX c #ad775c",
"ao c #adda2f",
"bE c #ae775c",
"bh c #ae785c",
"hW c #aed92e",
"fU c #af785c",
"cC c #af785d",
"#o c #af795e",
"dG c #afd92e",
"eD c #afda2e",
"#H c #b07a5f",
"d2 c #b1775d",
"lJ c #b1795d",
".j c #b1795e",
".y c #b17a5e",
".I c #b27a5e",
"ml c #b37b5e",
"b6 c #b37b5f",
"aj c #b37c5f",
"ft c #b37d60",
"dx c #b37f63",
"fY c #b38161",
"ac c #b47b5f",
".a c #b47c5f",
".Z c #b47e63",
".N c #b47f63",
".u c #b57c5f",
"lc c #b57c60",
"ks c #b57d61",
"kF c #b57e62",
"kq c #b57e63",
"## c #b57f63",
"j8 c #b57f64",
"cP c #b58063",
"#. c #b67f63",
"#g c #b67f64",
".M c #b68063",
".Y c #b68064",
"#Q c #b77e61",
"fX c #b77f63",
".O c #b78063",
"#v c #b78064",
"fp c #b78163",
"#f c #b78164",
"eZ c #b87f61",
"lA c #b88062",
"dw c #b88063",
"dy c #b88064",
"av c #b88163",
"#a c #b88164",
"gn c #b98062",
"kE c #b98163",
".L c #b98164",
".D c #b98165",
"ar c #b98264",
".9 c #b98265",
"cE c #ba8062",
".Q c #ba8063",
"e0 c #ba8064",
"m# c #ba8162",
"dv c #ba8163",
"bp c #ba8164",
"#G c #ba8165",
".E c #ba8264",
"#F c #ba8265",
"#b c #ba8364",
".X c #ba8365",
"lt c #bb8062",
"lR c #bb8163",
"#N c #bb8164",
"ae c #bb8264",
".W c #bb8265",
".C c #bb8365",
"#X c #bb8366",
"#B c #bc8163",
".h c #bc8263",
"fT c #bc8264",
".F c #bc8365",
"#O c #bc8366",
"gL c #bc8465",
"b3 c #bc8466",
"#Y c #bd8264",
"c9 c #bd8265",
"aC c #bd8365",
"#A c #bd8366",
"#c c #bd8465",
"#z c #bd8466",
"lZ c #bd8565",
"k# c #be8364",
"#w c #be8465",
"#8 c #be8466",
".B c #be8566",
".P c #be8567",
"#p c #bf8465",
"aR c #bf8466",
"#1 c #bf8566",
".o c #bf8567",
"l0 c #c08466",
"gp c #c08468",
"aJ c #c08566",
".p c #c08567",
".0 c #c08666",
".n c #c08667",
"b5 c #c18566",
"kW c #c18567",
"b4 c #c18666",
".G c #c18667",
".T c #c28666",
".V c #c28667",
"gI c #c28668",
".q c #c28767",
"al c #c28768",
"mc c #c38666",
"fq c #c38667",
".1 c #c38767",
"#E c #c38768",
"go c #c38867",
"#y c #c38868",
".U c #c48767",
".2 c #c48768",
"cD c #c48867",
".g c #c48868",
"lK c #c58767",
"#0 c #c58867",
".f c #c58868",
"#W c #c58869",
".m c #c58968",
"gK c #c58969",
"jV c #c68868",
".e c #c68968",
".A c #c68969",
"kp c #c78968",
".r c #c78969",
".t c #c78a68",
".H c #c78a69",
"#x c #c88969",
"Qt c #c88a69",
"dX c #c88a6a",
"kU c #c88b69",
"lS c #c88b6a",
".s c #c98a69",
"fr c #c98a6a",
".l c #c98b69",
".d c #c98b6a",
"#V c #ca8b69",
".# c #ca8b6a",
".k c #ca8c6a",
"#P c #ca8c6b",
"lf c #cb8b6a",
"aZ c #cb8c6a",
"bg c #cb8c6b",
"bH c #cc8d6c",
"Qt.#.a.b.c.d.e.f.g.f.d.h.i.j.k.lQt.m.n.o.p.p.q.f.r.l.s.t.u.v.w.x.y.e.z.z.r.A.f.q.B.C.D.E.F.B.G.g.HQt",
"Qt.#.I.J.K.G.L.M.N.O.P.Q.R.S.T.U.V.W.C.P.X.Y.Z.M.W.0.1.1.2.H.u.3.4.5.6.7.8.9#..Z#####..W#a.N###b#c.m",
"Qt.#.I#d#e.Y#f#g######.L#h#i#j#k#k#l#l#m#n#o.L.9.N.N.M#.#..CQt#p#q#r#s#t#u.N#g#v#####w#x#y#v#z.H#z#A",
"Qt.l#B#C#D#z.A#E#####F.G#G#H#I.c#J#l#l#K.J#d#L#M#N###v#z.M.Z#O#P#Q#R#S#T#U#v#E.f.L.N.G.s.A.L.f#V#W#X",
"Qt.l#Y#C#Z.n.l.e#a.N#0#V#1#########2#3#4#5#6.i#7.y#8.G.l#w.N#v.A#9a.a#aaab.E.eQt#8.Z.p#V.m#v.f.H#8.W",
"Qt.kacad#D.o.l.m.M##.f#V.B.Zae#1.Faf#Kagahaiaj.iakal.V#V#z.Z#a.famanaoapaq.L.fQt.W###v#8#F##ar#F.Y.V",
"#V.Aasatau.5.B#F####.C.nav#v.e.lQt.eawahaxayazaAaB.n#aaC.M.Z#zaDaEaFaGaHaI.Nar.W#.####.Z.N##.Z##aJQt",
".U#hat#l#law#KaK##########.LQtQtQtQtayaLaMaNaOaPaQ.B.N.Z##.ZaRaSaTaUaVaWaXaY.N###############a.q.saZ",
"a0a1#L#l.za2a3#4a4#########v.f.s.s.la5a6a7a8a9b.b##z#v#z##.Nazawbabbbcbdbebf.N########.N.M#z.rbg.eac",
".xbh.Sbibjawbkblbmbnbo####.Nbp#8#1#zaibqbrbsbtbubv#F#F#W.G#ObwbxbybzbAbBbCbDar#########O.g.#.UbEbFbG",
".TbH#n.i.T#lbIbJbKbLbMbN#z.p.M#F#v.NbObPbQbRbSbTbU#X##.9Qt.gbVbWbXbYbZb0b1b2.d#8#Ob3b4b5b6b7b8.wb9c.",
".#.ec##m.ecacbcccdcecfcgchQt#E.l.G##.Zcicjckclcmcnco##.Y.fcpcqcrcsctcucvcwcxac#B.Icycza1#icAcBcCcD.d",
".kcE#CcFal.NcGcHcIcJcKcLcMcNcO.s.q.McPaqcQbJcRcScTcU##.z.zcVcWcXcYcZc0c1c2c3c4c5atc6c7c8.jc9.P#v.0.l",
"aZ.Id.d#.B#a.1bjdadbdcdddedf#KQt#z.Z#vdgdhb1didjdkdl##dm#3dndodpdqdrdsdtctdu#I#CcEdvdw#y.A.Ldxdy.AQt",
"bgdzdAb6aC#p#0dBdCdDdEdFdGdHdIdJ#cdKdL#2dodododMbydNdOdPdQdKdRdSdTcWdUdVdWdu#l#l.d.9.Y.AQt#F.Z#8.sQt",
"dXdYatdZ#Ld0d1d2#2d3d4d5d6d7d8d9e.e#eaebecedeeefegeheiejekelemeneoepeqeresetdg.z.1.Z#FQt.s#8#..qQtQt",
".r#h#7euevewexeyaOezeAeBeCeDeEeF#3bneGeHeIeJeKeLeMbXeNeOePeQeReSeTedeUcReVeWeXeYaJ.Z.M.eQtae##.0.sQt",
".r#h#7eZ.C#ve0e1e2.ze3e4e5e6e7e8eze9f.f#fafbezfcfdfefffgcgfhfifjeKfkflemfmeYfnawfo.9.M#O#F#.##fpfqQt",
"frcFfsft.M###GfufvbjfwfxfyfzfAfBfCd9fDfEfFfGeQdofHegfIfJfKfDfLfMfNfOe8fPfQfRfSdKazfT#E.e.L######.Y.f",
"bgfUfVfW.M#ffXfYfZf0d9f1f2f3f4f5f6f7f8f9g.g#fGeefLgagbgcgdgegfciggghgigjfwgkgleIazgm.#.s#O.N##.N.N.G",
".#gnb8fo#1go#vgpgqgr#3fbgsgtgugvgwdfeze8gxgygzgAgBeSgCgDgEghgFecgzgjgjesgGgHed.6az#k.Ual#v##.E#z.MgI",
".l.1#kgJ.GgK#a#vgLgMbjgNgOgPgQgRgSglecghgTgUgVesgfgWeSdfgXgleFgYeJgZg0f8eKfDfGg1cEg2.a.B.N.YgK.l.o.g",
".l.U#kg3fpar#.###ldncxg4g5g6dbg7g8g0eKgDeseKgVgVglg9gvfMgdfOh.gGgAfcgjh#gGgzhabjdgcqhb.6.z#2hchd#l#l",
".l.U#khe.X#.#####ld9#laffbf6ghfjhfgZhgezhheKhihjhhhkhlhmhneJf7hohpeJhqezcgcghrhshthuhvhwhxhyhzhAelaw",
".lbNhBhChDhEaz###KeKhFhGhHg0e8hIhJgjgzg4hKhLhjhMedgihNhOhPhQhRhShjgVhjeIgchThUhVhWhXcvhYcrhZh0f7h1#l",
"h2gch3dNh4ckh5ama4dgh6cdeKghh7h8h9gZfkg4gDhLhjhjgVgli.gSfQhggYhjhjhSi#iaibiciddqieifigihiiijgyik.7il",
".ziminioipiqirisitiuiviweleJgiixe8gZeJgYgNfQhjhjhjgegBiyeKeKgGhihMiziAiBiCiDiEfLiFiGelezikgVhMiHiI.r",
"#liJijiFiKiLiMiNhWiOceerdrikg5geiPgjgAezeziQhMhMhSiRgiiSgGfKhohjcgiTiUiViWiXiYechLiZf8hpgVhMa2i0#..f",
"ild9i1fQi2i3i4gCi5i6i7i8i9gUj.fhgjgjgAgghRhRhMhjhShqgZj#ezd9hMgUjaerjbjcjdeKeVfMgehqhjhji1cgil.Y.N#E",
"bEdnjejfh#iQjgfxjhjijjjkjlg4hqhpgFg0fDjmiifKhMhjhMhjhhgffQcghofQjnfxixgjgAeseJf8hjhjhjjojpjq.Q.G#z#y",
"c5jrh2gdfbfbgNjsg0fHjtjujvjwi1hjgVesfDi1cgg4hMhjhMhMf8g0eKgYfKfMg0gAeJgzgVgVgVhji1hog4#3ilbijx#mcyjy",
"cFjyjzh2jAhMeJjBfmhojCjvf4jDjEhjhMhjeJhicgiHhShpgVhMhjgleejpjefkhpgVhjhjjFgNgYd9g1#ldnjG#Y.RjHfVjIjx",
".k.QjJjKdna2i1fkg0iaezjLeUjMjsi1hjhjhjhjgY.6hSjNjOi1hSj.gTjPjQikhiikgG.7#3iljRjSjT#.#v.2bFjUdY#B.UjV",
"Qt.kjWcA#.iljphHhjesgfePfmjXjYgYhjhMhjjfjZjqj0j1j2j3j#j4j5j6j7jpfJ#3.zdJ##.N#aQt.qj8#zj9k.ew.G.q.r.s",
"jVgIk##C#n#F#K#la2kaf8kbkcbehOf7h#hjh#cgkdkekfcmkgkhkikjkkklkmeJgYdn#V#E#v.F#f.C#a#aajknko##.N.N.Fkp",
"#1kq#zkr.iks#f##il#3g4g#eJfheKcifKgGcgkteCcKkukvkwjmkxkykzkAkBkCkDgYilaJaC.l#z.Z##kEeud1kF.M####.O.f",
"#F.N.Naec6jy#w.Y#l#l#3eIeIfKggfQh2eKkGkHkIkJkKeLkLkMkNkOkPkQbCkRkSik#3kT#AkU#AcP.CkVeudw########.N.g",
"#OkWdy#akXc5b6.2#l.zkYkZk0aMk1ijg4j4k2k3k4fCk5ghcgk6k7cqesk8k9l.l#lahRlb.M.F.M#F#I#Llc.9########.N.g",
".C.Var.N.Fldle#0lfdKeIcilglhlih.lji4lkllhogigjfGiihvlmijeIlnlojolplqhg.z#####c#Ilrgm.2##########.Y.f",
".D##.M.Y.CcE.ilsltlu.zcgfGfOfbcgiPlvlwcggjgjgeeKezeqlxg1lya2g0fcfmgehMeIlzlA#mlBlCdXar####.E.q.G.W.f",
".D.N#z.1#vgKb#fVc4lDcylblEjegYhHemlFjwfGgZeJfGeIaflGlHcglIileplqhHhQgzijlzlr.RlJ.##A.N##aC.tQt.s.o.g",
".D##.9gL.N.GlKlLlM#Y#O.ZlNdng1fblOfMeKgjhhhpgXiljTezgjfKlPlQdmhQedeKhiiii0#hlR.g#X#####v.g.sQt.s.o.g",
".C.N#a.1.W#1lf.S#MlS.M.Z#1lTd9gegOlUfbghgzhMawe.lV#llWg4lX##dJiHfblYhSgYhd#v.D.M.N######lZQtQt.faC.f",
"#c.Z.F.l.G#8.kb6c#l0#a.Nbphdg4fDeFeKfDjfhjhLil####lbjAa2et####iljejehghRhd################dy.D.M#AQt",
"#w###a.G#F#8.#l1fVc7dw.D##hdgYfDfmeVfkhjhg#ll2.D.NdJ#3l3il####l4eIezgdg4l5.N######.F.L########.N.E.r",
".p.N###..N.GlKl6.Rc5l7aC#fhdfQlag4fGhil8eIdJ.1#v.Y#zh2#leI#####8dniijEiHl9#v####.O.f.G###########v.f",
"kW.N#####f.gm.#Lm#cCbGma.FhdgYmbfKgVi1.7il.M.M###c.s#l#l##.N.Omcl2kMa2eImd.g#F#.##.C.L###########v.f",
".g.N####gLme#ibE.#.#mfmgevmhg4gggGhMeiil########.CQtaR.Z.N.M#ymijx#lei#lQtQtQtkW##.Z.Z.N######.N#F.A",
".f.M##dy#Ic5c8.sQtQtkpc7g2mjmkgGeKiji0#############F#v##.F.fml#dcy#l#l#lQtQtQt.r.G#1aC#Fdy#v##cPaJQt",
".f#v#Fmm#imn.s.sQtQt.#gn#imo#3a2#lbj############.YaekW.fb5mplrmq.UQth2QtQtQtQtQt.s.sQt.AjV.f.g.f.HQt"};
